<?xml version="1.0" encoding="utf-8"?>
<!-- Generator: Adobe Illustrator 17.0.0, SVG Export Plug-In . SVG Version: 6.00 Build 0)  -->
<!DOCTYPE svg PUBLIC "-//W3C//DTD SVG 1.1//EN" "http://www.w3.org/Graphics/SVG/1.1/DTD/svg11.dtd">
<svg version="1.1" id="Layer_1" xmlns="http://www.w3.org/2000/svg" xmlns:xlink="http://www.w3.org/1999/xlink" x="0px" y="0px"
	 width="290px" height="70px" viewBox="0 0 290 70" enable-background="new 0 0 290 70" xml:space="preserve">
<g>
	<path fill="#FAA51A" d="M234.078,15.769c1.615-0.258,2.736-1.928,2.505-3.73c-0.232-1.802-1.728-3.053-3.343-2.794
		c-1.615,0.258-2.736,1.928-2.504,3.73C230.967,14.776,232.463,16.027,234.078,15.769z"/>
	<path fill="#FAA51A" d="M239.662,27.507c-1.464-4.053-0.719-8.684,1.916-11.917l0,0c0.46-0.564-0.093-1.43-0.721-1.129
		l-1.693,0.813c-3.567,1.712-7.62,1.636-11.133-0.208l0,0c-0.606-0.318-1.184,0.491-0.771,1.079l0.759,1.08
		c1.654,2.354,2.412,5.339,2.109,8.311l-0.624,6.124c-0.064,0.625,0.579,1.026,1.023,0.639c2.317-2.021,5.485-2.326,8.077-0.775
		l1.654,0.989c0.524,0.313,1.112-0.275,0.89-0.89L239.662,27.507z"/>
</g>
<g>
	<path fill="#FFC80C" d="M260.125,19.337c1.869-0.299,3.168-2.232,2.9-4.318s-2.001-3.534-3.87-3.235
		c-1.869,0.299-3.168,2.232-2.899,4.318C256.523,18.187,258.256,19.636,260.125,19.337z"/>
	<path fill="#FFC80C" d="M268.217,15.864l-0.571,0.498c-4.188,3.657-9.536,5.239-14.798,4.379c-0.499-0.034-0.644,0.747-0.173,0.936
		v0c3.93,1.581,6.35,5.994,5.822,10.618l-0.437,3.832c-0.057,0.499,0.523,0.75,0.783,0.339l0.393-0.621
		c2.195-3.468,6.444-4.4,9.653-2.119c0.374,0.266,0.822-0.194,0.616-0.632l-2.186-4.638c-1.511-3.206-1.342-7.074,0.441-10.1
		l1.091-1.851C269.121,16.045,268.602,15.519,268.217,15.864z"/>
</g>
<g>
	<path fill="#EE2924" d="M206.734,22.077c1.55-0.248,2.626-1.851,2.404-3.58c-0.222-1.729-1.659-2.93-3.208-2.682
		c-1.55,0.248-2.626,1.851-2.404,3.58C203.748,21.124,205.185,22.325,206.734,22.077z"/>
	<path fill="#EE2924" d="M213.387,20.355l-1.729,0.976c-3.217,1.816-6.917,2.264-10.409,1.26c-0.754-0.217-1.244,0.862-0.642,1.412
		l0.842,0.769c2.001,1.827,3.183,4.543,3.232,7.427l0.073,4.228c0.012,0.692,0.745,1.05,1.209,0.591
		c1.549-1.533,3.751-1.931,5.655-1.022l2.822,1.349c0.622,0.297,1.239-0.433,0.936-1.108l-1.938-4.32
		c-1.504-3.351-1.171-7.363,0.857-10.35v0C214.759,20.883,214.074,19.967,213.387,20.355z"/>
</g>
<polygon points="31.789,12.905 28.946,12.905 28.946,7.093 27.684,7.093 27.684,2.952 28.946,2.952 28.946,1.372 19.667,1.372 
	19.667,12.905 17.582,12.905 17.582,15.287 31.789,15.287 "/>
<path fill="#EE2924" d="M21.599,44.742c-0.287-0.333-0.585-0.618-0.89-0.877c-0.404-3.151-0.457-6.345,0.031-9.546
	c0.612-3.999,1.751-7.868,2.884-11.727c-0.505-0.028-1.01-0.027-1.513,0.028c-1.162,3.921-2.319,7.867-2.832,11.941
	c-0.352,2.804-0.352,5.575-0.089,8.318c-4.976-2.39-11.236,1.863-11.236,1.863c0,7.722,4.203,14.348,10.199,17.186h13.063
	c5.996-2.839,10.198-9.464,10.198-17.186C41.414,44.742,26.654,50.58,21.599,44.742z"/>
<path d="M24.682,15.987c-13.401,0-24.307,12.169-24.307,27.13c0,10.907,5.813,20.713,14.815,24.974l0.445,0.212h18.099l0.446-0.212
	c8.997-4.265,14.814-14.067,14.814-24.974C48.994,28.156,38.087,15.987,24.682,15.987z M32.758,63.017H16.611
	c-7.003-3.539-11.504-11.292-11.504-19.9c0-11.21,7.607-20.466,17.36-21.698c-0.043,0.005,1.538-0.126,1.538-0.126
	c0.224-0.008,0.453-0.017,0.677-0.017c10.795,0,19.58,9.796,19.58,21.84C44.262,51.725,39.761,59.478,32.758,63.017z"/>
<g>
	<path fill="#F26B62" d="M31.139,6.255c0,0,0.222-0.207,0.71-0.505c0.492-0.278,1.237-0.711,2.284-0.986
		c1.035-0.294,2.353-0.547,3.871-0.503c1.525-0.024,3.228,0.253,5.035,0.727c1.785,0.527,3.703,1.217,5.571,2.23
		c0.471,0.247,0.949,0.497,1.433,0.751c0.477,0.265,0.933,0.569,1.41,0.857c0.472,0.296,0.949,0.596,1.43,0.898
		c0.471,0.316,0.92,0.668,1.387,1.005c1.903,1.396,3.638,2.758,5.567,3.851c1.941,1.107,4.039,2.006,6.222,2.453
		c2.168,0.499,4.413,0.618,6.554,0.267c2.135-0.349,4.185-1.069,5.92-2.182c1.722-1.113,3.182-2.535,4.073-4.149
		c0.915-1.591,1.21-3.381,0.861-4.861c-0.119-0.431-0.224-0.875-0.347-1.268c-0.146-0.345-0.289-0.682-0.428-1.01
		c-0.2-0.295-0.357-0.63-0.576-0.888c-0.239-0.228-0.426-0.53-0.705-0.681c-1.018-0.765-2.281-0.898-3.276-0.763
		c-1.004,0.131-1.795,0.39-2.313,0.599c-0.521,0.209-0.787,0.355-0.787,0.355s0.233-0.192,0.713-0.5
		c0.482-0.299,1.211-0.741,2.269-1.039c1.025-0.302,2.536-0.454,4.015,0.383c0.392,0.169,0.678,0.489,1.029,0.762
		c0.323,0.297,0.57,0.666,0.87,1.021c0.246,0.389,0.461,0.818,0.693,1.252c0.176,0.414,0.316,0.82,0.481,1.244
		c0.345,1.007,0.48,2.061,0.4,3.17c-0.077,1.105-0.422,2.196-0.9,3.235c-0.964,2.087-2.588,3.934-4.598,5.331
		c-2.008,1.392-4.382,2.43-6.915,2.847c-2.527,0.45-5.168,0.352-7.688-0.198c-2.524-0.56-4.885-1.617-7.026-2.88
		c-2.187-1.258-4.015-2.931-5.701-4.251c-0.431-0.341-0.847-0.7-1.281-1.019c-0.438-0.313-0.872-0.623-1.301-0.93
		c-0.43-0.305-0.845-0.629-1.276-0.91c-0.437-0.271-0.869-0.538-1.295-0.802c-1.702-1.066-3.407-1.882-5.019-2.549
		c-1.63-0.588-3.172-1.057-4.578-1.217c-1.403-0.21-2.652-0.182-3.671-0.056c-1.024,0.116-1.808,0.362-2.335,0.55
		C31.396,6.092,31.139,6.255,31.139,6.255z"/>
</g>
<g>
	<path fill="#191918" d="M64.763,39.806c1.802,0,3.303,0.485,4.505,1.456c1.615,1.294,2.423,3.316,2.423,6.066
		c0,1.988-0.497,3.686-1.491,5.095c-1.077,1.502-2.578,2.253-4.505,2.253c-1.015,0-1.937-0.271-2.765-0.815
		c-0.829-0.543-1.316-1.473-1.46-2.79l0.279-0.104c0.228,0.994,0.756,1.687,1.585,2.08c0.559,0.277,1.056,0.416,1.491,0.416
		c1.698,0,2.931-0.739,3.697-2.218c0.559-1.086,0.839-2.38,0.839-3.882c0-2.403-0.601-4.136-1.802-5.199
		c-0.912-0.832-2.071-1.248-3.48-1.248c-0.332,0-0.616,0.017-0.854,0.052c-0.238,0.035-1.279,0.225-3.122,0.572v20.555
		c0.021,0.624,0.228,1.144,0.621,1.56c0.393,0.416,0.849,0.624,1.367,0.624h0.404v0.347h-6.804v-0.347h0.404
		c0.518,0,0.973-0.208,1.367-0.624c0.393-0.416,0.601-0.936,0.621-1.56V43.341c0-0.601-0.155-1.069-0.466-1.404
		c-0.311-0.335-0.714-0.503-1.212-0.503c-0.104,0-0.207,0.012-0.311,0.035l-0.373,0.035l-0.062-0.347
		c1.077-0.115,2.521-0.341,4.334-0.676c1.812-0.335,2.936-0.531,3.371-0.589C63.8,39.835,64.266,39.806,64.763,39.806z"/>
	<path fill="#191918" d="M73.58,45.206c1.027-0.476,2.015-0.714,2.964-0.714c0.79,0,1.604,0.327,2.442,0.979
		c0.458,0.353,0.972,1.041,1.541,2.064c0.379,0.706,0.861,1.984,1.446,3.836l2.893,9.154c0.664,2.046,1.34,3.673,2.027,4.881
		c0.688,1.208,1.316,2.116,1.885,2.725c0.569,0.608,1.162,1.036,1.778,1.283c0.617,0.247,1.126,0.37,1.529,0.37
		c0.403,0,0.762-0.036,1.079-0.106l0.024,0.265c-0.759,0.282-1.502,0.423-2.229,0.423c-0.727,0-1.454-0.208-2.181-0.622
		c-0.727-0.415-1.407-0.992-2.039-1.733c-1.36-1.534-2.513-3.871-3.462-7.011l-0.925-3.016h-6.497l-1.636,4.709
		c-0.079,0.212-0.119,0.423-0.119,0.635c0,0.212,0.083,0.437,0.249,0.675c0.166,0.238,0.423,0.357,0.771,0.357h0.19v0.265h-4.766
		v-0.265h0.213c0.379,0,0.751-0.128,1.114-0.384c0.363-0.256,0.664-0.639,0.901-1.151l5.88-15.715
		c-0.854-1.358-1.913-2.037-3.177-2.037c-0.569,0-1.178,0.132-1.826,0.397L73.58,45.206z M76.117,57.19h5.999l-1.873-6.164
		c-0.364-1.181-0.696-2.107-0.996-2.778L76.117,57.19z"/>
	<path fill="#191918" d="M107.867,69.121c-0.664,0.194-1.253,0.291-1.767,0.291c-0.514,0-0.968-0.036-1.363-0.106
		c-0.395-0.071-0.818-0.208-1.269-0.41c-0.451-0.203-0.874-0.437-1.269-0.701c-0.395-0.265-0.79-0.591-1.185-0.979
		c-0.727-0.653-1.387-1.358-1.98-2.117c-0.593-0.758-1.735-2.183-3.426-4.273c-1.691-2.09-2.814-3.479-3.367-4.167
		c-0.553-0.688-0.98-1.049-1.28-1.085v-0.265c0.917,0,1.529-0.022,1.838-0.066c0.308-0.044,0.636-0.123,0.984-0.238
		c0.348-0.115,0.64-0.269,0.877-0.463c0.933-0.67,1.399-1.781,1.399-3.333c0-1.287-0.257-2.319-0.77-3.095
		c-0.514-0.776-1.237-1.173-2.17-1.19h-2.94v15.768c0,0.441,0.146,0.829,0.439,1.164c0.292,0.335,0.652,0.503,1.079,0.503h0.285
		l0.024,0.265h-5.193v-0.265h0.308c0.395,0,0.743-0.159,1.043-0.476c0.3-0.318,0.458-0.705,0.474-1.164V48.036
		c-0.016-0.458-0.17-0.851-0.462-1.177c-0.293-0.326-0.644-0.489-1.055-0.489h-0.308v-0.265h6.402c1.391,0,2.509,0.437,3.355,1.31
		c0.846,0.873,1.269,2.028,1.269,3.466c0,1.438-0.387,2.672-1.162,3.704c-0.775,1.032-1.723,1.548-2.845,1.548h-0.024
		c0.537,0.635,1.146,1.376,1.826,2.222c2.735,3.369,4.489,5.485,5.264,6.349c0.774,0.864,1.458,1.574,2.051,2.13
		c0.593,0.556,1.118,0.966,1.577,1.23c0.933,0.564,1.857,0.847,2.774,0.847c0.19,0,0.379-0.018,0.569-0.053V69.121z"/>
	<path fill="#191918" d="M112.561,57.19c0-0.353-0.107-0.652-0.32-0.9c-0.213-0.247-0.478-0.379-0.794-0.397h-7.587v6.799
		c0,0.459,0.15,0.851,0.451,1.177c0.3,0.326,0.656,0.489,1.067,0.489h0.308v0.265h-5.193v-0.265h0.308
		c0.411,0,0.762-0.163,1.055-0.489c0.292-0.326,0.446-0.718,0.462-1.177V47.878c0-0.423-0.154-0.78-0.462-1.072
		s-0.66-0.437-1.055-0.437h-0.285l-0.024-0.265h6.947c0.68,0,1.28-0.062,1.802-0.185c0.522-0.123,0.861-0.22,1.02-0.291v2.989
		h-0.237v-0.397c0-0.353-0.111-0.657-0.332-0.913c-0.222-0.255-0.498-0.384-0.83-0.384h-5.003V55.1h7.564
		c0.316-0.017,0.585-0.15,0.806-0.397c0.221-0.247,0.332-0.556,0.332-0.926v-0.37h0.237v4.18h-0.237V57.19z"/>
	<path fill="#191918" d="M132.052,41.555c0.126,0,0.261,0,0.403,0v0.265c-1.739,0-3.114,0.64-4.126,1.918
		c-1.012,1.279-1.517,3.126-1.517,5.542v8.81c0,2.064-0.585,3.73-1.755,5c-1.17,1.27-2.727,1.905-4.671,1.905
		s-3.521-0.63-4.73-1.892c-1.209-1.261-1.814-2.923-1.814-4.987v-10.45c0-0.511-0.206-0.89-0.616-1.138
		c-0.19-0.106-0.403-0.159-0.64-0.159h-0.379v-0.265h4.813v0.265h-0.379c-0.348,0-0.64,0.119-0.877,0.357
		c-0.237,0.238-0.364,0.542-0.379,0.913v10.106c0,1.923,0.462,3.47,1.387,4.643c0.925,1.173,2.138,1.759,3.64,1.759
		c1.596,0,2.877-0.556,3.841-1.667c0.964-1.111,1.446-2.575,1.446-4.392v-8.783c0-2.593,0.589-4.533,1.767-5.82
		C128.641,42.199,130.17,41.555,132.052,41.555z"/>
	<path fill="#191918" d="M153.416,68.91c0.095,0,0.19,0,0.285,0v0.265c-0.443,0.07-0.937,0.106-1.482,0.106
		c-0.545,0-1.217-0.132-2.015-0.397c-0.798-0.265-1.522-0.759-2.17-1.481c-1.328-1.482-2.134-3.404-2.418-5.767l-1.446-11.773
		l-4.932,12.434c-0.443,1.076-0.711,1.976-0.806,2.699h-0.237L132.052,50.1l-1.043,13.148c-0.032,0.3,0.051,0.565,0.249,0.794
		c0.198,0.229,0.415,0.344,0.652,0.344h0.379v0.238h-4.6v-0.265h0.379c0.427,0,0.802-0.145,1.126-0.437
		c0.324-0.291,0.525-0.675,0.605-1.151l1.494-14.445c-1.391-3.051-3.059-4.577-5.003-4.577c-0.174,0-0.356,0.009-0.545,0.026v-0.264
		c0.427-0.123,0.775-0.185,1.043-0.185c0.269,0,0.561,0.013,0.877,0.04c0.316,0.026,0.688,0.11,1.114,0.251
		c0.427,0.141,0.83,0.349,1.209,0.622c0.379,0.274,0.711,0.556,0.996,0.847c0.285,0.291,0.553,0.613,0.806,0.966
		c0.427,0.635,0.767,1.243,1.02,1.825l5.714,13.81l6.378-15.953h0.213l2.205,15.662c0.332,2.469,1.047,4.339,2.146,5.609
		C150.566,68.275,151.882,68.91,153.416,68.91z"/>
	<path fill="#191918" d="M161.359,56.158v-3.333c0-0.476-0.356-0.82-0.735-0.82h-1.423c-0.213,0-0.379,0.079-0.522,0.238
		c-0.142,0.132-0.213,0.344-0.213,0.582v1.376h-1.47v-1.402c0-1.376,1.02-2.46,2.229-2.46h1.423c1.233,0,2.205,1.164,2.205,2.46
		v11.825h-1.233l-0.237-0.635l-1.683,0.608c-0.261,0.079-0.593,0.159-0.854,0.159c-1.257,0-2.087-0.926-2.087-2.222v-3.915
		c0-1.376,1.043-2.46,2.205-2.46H161.359z M161.359,57.799h-2.395c-0.379,0-0.735,0.423-0.735,0.82v3.704
		c0,0.476,0.356,0.794,0.735,0.794c0.071,0,0.166,0,0.261-0.026l2.134-0.82V57.799z"/>
	<path fill="#191918" d="M168.614,54.201v-1.376c0-0.45-0.332-0.82-0.735-0.82h-1.162c-0.403,0-0.735,0.37-0.735,0.82v9.339
		c0,0.45,0.332,0.82,0.735,0.82h1.162c0.403,0,0.735-0.37,0.735-0.82v-2.249h1.47v2.249c0,1.349-0.972,2.46-2.205,2.46h-1.162
		c-1.209,0-2.205-1.111-2.205-2.46v-9.339c0-1.376,0.996-2.487,2.205-2.487h1.162c1.233,0,2.205,1.111,2.205,2.487v1.376H168.614z"
		/>
	<path fill="#191918" d="M173.214,46.105v4.841l1.375-0.608c0.237-0.079,0.522-0.132,0.759-0.132c1.186,0,2.181,1.111,2.181,2.46
		v11.958h-1.47V52.56c0-0.45-0.332-0.714-0.711-0.714c-0.095,0-0.19,0.026-0.285,0.053l-1.849,0.82v11.905h-1.47V46.105H173.214z"/>
	<path fill="#191918" d="M183.789,56.158v-3.333c0-0.476-0.356-0.82-0.735-0.82h-1.423c-0.213,0-0.379,0.079-0.521,0.238
		c-0.142,0.132-0.213,0.344-0.213,0.582v1.376h-1.47v-1.402c0-1.376,1.02-2.46,2.229-2.46h1.423c1.233,0,2.205,1.164,2.205,2.46
		v11.825h-1.233l-0.237-0.635l-1.683,0.608c-0.261,0.079-0.593,0.159-0.854,0.159c-1.257,0-2.087-0.926-2.087-2.222v-3.915
		c0-1.376,1.043-2.46,2.205-2.46H183.789z M183.789,57.799h-2.395c-0.379,0-0.735,0.423-0.735,0.82v3.704
		c0,0.476,0.356,0.794,0.735,0.794c0.071,0,0.166,0,0.261-0.026l2.134-0.82V57.799z"/>
	<path fill="#191918" d="M189.266,62.164c0,0.476,0.356,0.82,0.735,0.82h0.806v1.64h-0.83c-1.233,0-2.181-1.19-2.181-2.487V52.005
		h-1.328v-1.667h1.304v-2.196h1.494v2.196h1.541v1.667h-1.541V62.164z"/>
	<path fill="#191918" d="M218.407,69.227c-2.008,0-3.651-0.714-4.932-2.143c-0.948-1.058-1.573-2.39-1.873-3.995
		c-1.502,1.27-3.343,1.905-5.525,1.905c-1.723,0-3.292-0.419-4.707-1.257c-1.415-0.837-2.521-1.988-3.319-3.452
		c-0.798-1.464-1.197-3.113-1.197-4.947c0-1.834,0.399-3.488,1.197-4.96c0.798-1.472,1.901-2.614,3.308-3.426
		c1.407-0.811,2.98-1.217,4.719-1.217c2.181,0,4.102,0.6,5.762,1.799l0.474,3.73H212.1c-0.474-2.046-1.549-3.439-3.225-4.18
		c-0.822-0.37-1.755-0.556-2.798-0.556c-2.134,0-3.909,0.829-5.323,2.487c-1.415,1.658-2.122,3.761-2.122,6.31
		c0,2.549,0.711,4.661,2.134,6.336c1.423,1.676,3.193,2.522,5.311,2.54c1.027,0,2.007-0.203,2.94-0.608
		c0.933-0.405,1.731-0.97,2.395-1.693v-4.683c0-0.388-0.103-0.683-0.308-0.886c-0.206-0.203-0.498-0.304-0.877-0.304h-0.379v-0.265
		h4.647v0.265h-0.356c-0.395,0-0.696,0.102-0.901,0.304c-0.206,0.203-0.3,0.499-0.285,0.886v4.074
		c0.095,2.787,0.909,4.779,2.442,5.979c1.075,0.847,2.466,1.27,4.173,1.27c0.711,0,1.486-0.079,2.324-0.238l0.024,0.265
		C220.652,69.007,219.482,69.227,218.407,69.227z"/>
	<path fill="#191918" d="M235.598,69.121c-0.664,0.194-1.253,0.291-1.767,0.291c-0.514,0-0.968-0.036-1.363-0.106
		c-0.395-0.071-0.818-0.208-1.269-0.41c-0.451-0.203-0.874-0.437-1.269-0.701c-0.395-0.265-0.79-0.591-1.186-0.979
		c-0.727-0.653-1.387-1.358-1.98-2.117c-0.593-0.758-1.735-2.183-3.426-4.273c-1.691-2.09-2.814-3.479-3.367-4.167
		c-0.553-0.688-0.98-1.049-1.28-1.085v-0.265c0.917,0,1.529-0.022,1.838-0.066c0.308-0.044,0.636-0.123,0.984-0.238
		c0.348-0.115,0.64-0.269,0.877-0.463c0.932-0.67,1.399-1.781,1.399-3.333c0-1.287-0.257-2.319-0.77-3.095
		c-0.514-0.776-1.237-1.173-2.17-1.19h-2.94v15.768c0,0.441,0.146,0.829,0.439,1.164c0.292,0.335,0.652,0.503,1.079,0.503h0.285
		l0.024,0.265h-5.193v-0.265h0.308c0.395,0,0.743-0.159,1.043-0.476c0.3-0.318,0.458-0.705,0.474-1.164V48.036
		c-0.016-0.458-0.17-0.851-0.462-1.177c-0.293-0.326-0.644-0.489-1.055-0.489h-0.308v-0.265h6.402c1.391,0,2.509,0.437,3.355,1.31
		c0.846,0.873,1.269,2.028,1.269,3.466c0,1.438-0.387,2.672-1.162,3.704c-0.774,1.032-1.723,1.548-2.845,1.548h-0.024
		c0.537,0.635,1.146,1.376,1.826,2.222c2.735,3.369,4.489,5.485,5.264,6.349c0.774,0.864,1.458,1.574,2.051,2.13
		c0.593,0.556,1.118,0.966,1.577,1.23c0.933,0.564,1.857,0.847,2.774,0.847c0.19,0,0.379-0.018,0.569-0.053V69.121z"/>
	<path fill="#191918" d="M232.302,52.269c-0.063-0.229-0.095-0.427-0.095-0.595c0-0.167,0.008-0.357,0.024-0.569
		c0.016-0.212,0.051-0.503,0.107-0.873c0.055-0.37,0.162-0.736,0.32-1.098c0.158-0.361,0.34-0.71,0.545-1.045
		c0.205-0.335,0.47-0.644,0.794-0.926c0.324-0.282,0.684-0.529,1.079-0.741c0.838-0.458,1.857-0.688,3.059-0.688
		c2.418,0,4.39,0.895,5.916,2.685c1.525,1.79,2.288,4.079,2.288,6.865c0,2.787-0.901,5.102-2.703,6.945
		c-1.802,1.843-4.086,2.765-6.852,2.765c-2.766,0-5.062-0.917-6.888-2.751c-1.826-1.834-2.739-4.215-2.739-7.143
		c0-1.887,0.395-3.562,1.186-5.027c0.79-1.464,1.921-2.61,3.391-3.439l0.142,0.238c-1.028,0.759-1.766,1.852-2.217,3.281
		c-0.451,1.429-0.676,2.946-0.676,4.55c0,2.981,0.727,5.309,2.181,6.984c1.454,1.676,3.319,2.513,5.596,2.513
		s4.138-0.842,5.584-2.527c1.446-1.684,2.17-3.902,2.17-6.654c0-2.381-0.573-4.392-1.719-6.032c-1.146-1.64-2.762-2.46-4.849-2.46
		c-0.933,0-1.778,0.185-2.537,0.556c-1.375,0.653-2.284,1.729-2.727,3.228c-0.127,0.441-0.19,0.82-0.19,1.138
		c0,0.317,0.016,0.573,0.047,0.767L232.302,52.269z"/>
	<path fill="#191918" d="M267.015,41.555c0.126,0,0.261,0,0.403,0v0.265c-1.739,0-3.114,0.64-4.126,1.918
		c-1.012,1.279-1.518,3.126-1.518,5.542v8.81c0,2.064-0.585,3.73-1.754,5c-1.17,1.27-2.727,1.905-4.671,1.905
		c-1.944,0-3.521-0.63-4.73-1.892c-1.209-1.261-1.814-2.923-1.814-4.987v-10.45c0-0.511-0.206-0.89-0.617-1.138
		c-0.19-0.106-0.403-0.159-0.64-0.159h-0.379v-0.265h4.813v0.265h-0.379c-0.348,0-0.64,0.119-0.877,0.357
		c-0.237,0.238-0.364,0.542-0.379,0.913v10.106c0,1.923,0.462,3.47,1.387,4.643c0.925,1.173,2.138,1.759,3.64,1.759
		c1.596,0,2.877-0.556,3.841-1.667c0.964-1.111,1.446-2.575,1.446-4.392v-8.783c0-2.593,0.589-4.533,1.767-5.82
		C263.605,42.199,265.134,41.555,267.015,41.555z"/>
	<path fill="#191918" d="M270.809,45.682c1.375,0,2.521,0.37,3.438,1.111c1.233,0.988,1.849,2.531,1.849,4.63
		c0,1.517-0.379,2.813-1.138,3.889c-0.822,1.147-1.968,1.72-3.438,1.72c-0.775,0-1.478-0.207-2.11-0.622
		c-0.632-0.414-1.004-1.124-1.115-2.13l0.214-0.079c0.174,0.759,0.577,1.288,1.209,1.587c0.427,0.212,0.806,0.317,1.138,0.317
		c1.296,0,2.237-0.564,2.822-1.693c0.427-0.829,0.64-1.816,0.64-2.963c0-1.834-0.459-3.157-1.375-3.968
		c-0.696-0.635-1.581-0.952-2.656-0.952c-0.253,0-0.471,0.013-0.652,0.04c-0.182,0.026-0.976,0.172-2.383,0.437v15.688
		c0.016,0.476,0.174,0.873,0.474,1.19c0.3,0.317,0.648,0.476,1.043,0.476h0.308v0.265h-5.193v-0.265h0.308
		c0.395,0,0.743-0.159,1.043-0.476c0.3-0.318,0.458-0.714,0.474-1.19V48.38c0-0.458-0.118-0.816-0.356-1.072
		c-0.237-0.255-0.545-0.384-0.925-0.384c-0.079,0-0.158,0.009-0.237,0.026l-0.285,0.026l-0.047-0.265
		c0.822-0.088,1.924-0.26,3.308-0.516c1.383-0.255,2.241-0.405,2.573-0.45C270.074,45.704,270.43,45.682,270.809,45.682z"/>
	<path fill="#191918" d="M276.998,64.359c0.411,0,0.762-0.163,1.055-0.489c0.292-0.326,0.446-0.718,0.462-1.177V47.878
		c0-0.423-0.15-0.78-0.451-1.072c-0.3-0.291-0.656-0.437-1.067-0.437h-0.285l-0.024-0.265h4.813c0.68,0,1.284-0.062,1.814-0.185
		c0.529-0.123,0.865-0.22,1.008-0.291v3.333h-0.237v-0.476c0-0.423-0.131-0.785-0.391-1.085c-0.261-0.3-0.573-0.458-0.937-0.476
		h-2.703V55.1h4.505c0.316-0.017,0.585-0.15,0.806-0.397c0.221-0.247,0.332-0.556,0.332-0.926v-0.37h0.237v4.18H285.7V57.19
		c0-0.353-0.107-0.652-0.32-0.9c-0.213-0.247-0.478-0.379-0.794-0.397h-4.529v7.91h5.05c1.17,0,2.063-0.291,2.679-0.873
		c0.616-0.582,1.13-1.446,1.541-2.593h0.237l-1.375,4.286h-11.5v-0.265H276.998z M281.148,44.412l-0.166-0.185
		c1.201-1.446,2.205-2.601,3.011-3.466c0.427,0.476,0.751,0.944,0.972,1.402C283.953,42.816,282.681,43.565,281.148,44.412z"/>
</g>
</svg>
