<?xml version="1.0" encoding="utf-8"?>
<!-- Generator: Adobe Illustrator 21.0.0, SVG Export Plug-In . SVG Version: 6.00 Build 0)  -->
<svg version="1.1" id="Layer_1" xmlns="http://www.w3.org/2000/svg" xmlns:xlink="http://www.w3.org/1999/xlink" x="0px" y="0px"
	 viewBox="0 0 290 70" style="enable-background:new 0 0 290 70;" xml:space="preserve">
<style type="text/css">
	.st0{fill:#FEA500;}
	.st1{fill:#FFC704;}
	.st2{fill:#FF1400;}
	.st3{fill:#F26B62;}
	.st4{fill:#181818;}
</style>
<g>
	<g>
		<ellipse transform="matrix(0.9899 -0.142 0.142 0.9899 0.3622 33.3513)" class="st0" cx="233.9" cy="14.1" rx="3" ry="3"/>
		<path class="st0" d="M240,27.6c-1.5-3.6-0.7-7.8,1.9-10.7l0,0c0.5-0.5-0.1-1.3-0.7-1l-1.7,0.7c-3.6,1.5-7.6,1.5-11.2-0.2l0,0
			c-0.6-0.3-1.2,0.4-0.8,1l0.8,1c1.7,2.1,2.4,4.8,2.1,7.5l-0.6,5.5c-0.1,0.6,0.6,0.9,1,0.6c2.3-1.8,5.5-2.1,8.1-0.7l1.7,0.9
			c0.5,0.3,1.1-0.2,0.9-0.8L240,27.6z"/>
	</g>
	<g>
		<ellipse transform="matrix(0.9899 -0.142 0.142 0.9899 0.2365 37.0775)" class="st1" cx="260" cy="16.9" rx="3.4" ry="3.4"/>
		<path class="st1" d="M268.6,17.2l-0.6,0.4c-4.2,3.3-9.6,4.7-14.8,3.9c-0.5,0-0.6,0.7-0.2,0.8v0c3.9,1.4,6.4,5.4,5.8,9.5l-0.4,3.4
			c-0.1,0.4,0.5,0.7,0.8,0.3l0.4-0.6c2.2-3.1,6.5-4,9.7-1.9c0.4,0.2,0.8-0.2,0.6-0.6l-2.2-4.2c-1.5-2.9-1.3-6.4,0.4-9.1l1.1-1.7
			C269.5,17.3,269,16.8,268.6,17.2z"/>
	</g>
	<g>
		<ellipse transform="matrix(0.9899 -0.142 0.142 0.9899 -0.7369 29.5199)" class="st2" cx="206.5" cy="19.9" rx="2.8" ry="2.8"/>
		<path class="st2" d="M213.6,21.2l-1.7,0.9c-3.2,1.6-6.9,2-10.4,1.1c-0.8-0.2-1.2,0.8-0.6,1.3l0.8,0.7c2,1.6,3.2,4.1,3.2,6.7
			l0.1,3.8c0,0.6,0.7,0.9,1.2,0.5c1.6-1.4,3.8-1.7,5.7-0.9l2.8,1.2c0.6,0.3,1.2-0.4,0.9-1l-1.9-3.9c-1.5-3-1.2-6.6,0.9-9.3l0,0
			C215,21.7,214.3,20.8,213.6,21.2z"/>
	</g>
	<polygon points="31.5,14.5 28.7,14.5 28.7,9.3 27.4,9.3 27.4,5.5 28.7,5.5 28.7,4.1 19.3,4.1 19.3,14.5 17.3,14.5 17.3,16.6 
		31.5,16.6 	"/>
	<path class="st2" d="M21.3,43.1c-0.3-0.3-0.6-0.6-0.9-0.8c-0.4-2.8-0.5-5.7,0-8.6c0.6-3.6,1.8-7.1,2.9-10.5c-0.5,0-1,0-1.5,0
		c-1.2,3.5-2.3,7.1-2.8,10.7c-0.4,2.5-0.4,5-0.1,7.5c-5-2.1-11.3,1.7-11.3,1.7c0,6.9,4.2,12.9,10.2,15.4h13.1
		c6-2.6,10.2-8.5,10.2-15.4C41.2,43.1,26.4,48.4,21.3,43.1z"/>
	<path d="M24.4,17.3C10.9,17.3,0,28.2,0,41.6c0,9.8,5.8,18.6,14.9,22.4l0.4,0.2h18.2l0.4-0.2c9-3.8,14.9-12.6,14.9-22.4
		C48.8,28.2,37.8,17.3,24.4,17.3z M32.5,59.5H16.3c-7-3.2-11.5-10.1-11.5-17.9c0-10.1,7.6-18.4,17.4-19.5c0,0,1.5-0.1,1.5-0.1
		c0.2,0,0.5,0,0.7,0C35.2,22,44,30.8,44,41.6C44,49.4,39.5,56.4,32.5,59.5z"/>
	<g>
		<path class="st3" d="M30.9,8.5c1.3-0.9,2.9-1.4,4.4-1.7c1.6-0.2,3.2-0.2,4.8,0c3.2,0.4,6.3,1.5,9.2,2.9c0.7,0.3,1.4,0.7,2.1,1.1
			c0.7,0.4,1.4,0.8,2.1,1.2l3.9,2.6c1.3,0.8,2.6,1.5,3.9,2.1c1.4,0.6,2.8,1,4.2,1.3c2.8,0.6,5.8,0.7,8.6,0c2.8-0.6,5.5-2,7.4-4
			c0.5-0.5,0.9-1.1,1.2-1.7c0.3-0.6,0.5-1.2,0.7-1.9c0.1-0.6,0.1-1.3-0.1-1.9l-0.3-1l-0.4-1c-0.6-1.2-1.8-2.1-3.3-2.2
			c-1.5-0.2-3,0.2-4.4,0.8c1.3-0.9,2.8-1.6,4.5-1.6c1.7-0.1,3.5,0.8,4.5,2.2c0.2,0.4,0.5,0.7,0.7,1.1L85,8c0.3,0.8,0.4,1.8,0.4,2.7
			c-0.1,0.9-0.3,1.8-0.7,2.6c-0.4,0.8-0.8,1.6-1.4,2.2c-1.1,1.4-2.4,2.5-3.9,3.3c-1.5,0.9-3,1.5-4.6,2c-3.3,0.9-6.7,0.8-9.9,0.2
			c-3.2-0.7-6.3-2.1-9-3.9L52,14.2c-0.6-0.5-1.3-0.8-1.9-1.3c-0.6-0.4-1.3-0.9-1.9-1.2c-2.6-1.5-5.4-2.8-8.3-3.5
			C36.9,7.5,33.8,7.3,30.9,8.5z"/>
	</g>
	<g>
		<path class="st4" d="M64.6,38.7c1.8,0,3.3,0.4,4.5,1.3c1.6,1.2,2.4,3,2.4,5.5c0,1.8-0.5,3.3-1.5,4.6c-1.1,1.4-2.6,2-4.5,2
			c-1,0-1.9-0.2-2.8-0.7c-0.8-0.5-1.3-1.3-1.5-2.5l0.3-0.1c0.2,0.9,0.8,1.5,1.6,1.9c0.6,0.2,1.1,0.4,1.5,0.4c1.7,0,2.9-0.7,3.7-2
			c0.6-1,0.8-2.1,0.8-3.5c0-2.2-0.6-3.7-1.8-4.7c-0.9-0.7-2.1-1.1-3.5-1.1c-0.3,0-0.6,0-0.9,0c-0.2,0-1.3,0.2-3.1,0.5v18.5
			c0,0.6,0.2,1,0.6,1.4c0.4,0.4,0.9,0.6,1.4,0.6h0.4V61h-6.8v-0.3h0.4c0.5,0,1-0.2,1.4-0.6c0.4-0.4,0.6-0.8,0.6-1.4V41.9
			c0-0.5-0.2-1-0.5-1.3c-0.3-0.3-0.7-0.5-1.2-0.5c-0.1,0-0.2,0-0.3,0l-0.4,0l-0.1-0.3c1.1-0.1,2.5-0.3,4.3-0.6
			c1.8-0.3,2.9-0.5,3.4-0.5C63.6,38.7,64.1,38.7,64.6,38.7z"/>
		<path class="st4" d="M73.4,43.5c1-0.4,2-0.6,3-0.6c0.8,0,1.6,0.3,2.4,0.9c0.5,0.3,1,0.9,1.5,1.9c0.4,0.6,0.9,1.8,1.5,3.4l2.9,8.2
			c0.7,1.8,1.3,3.3,2,4.4c0.7,1.1,1.3,1.9,1.9,2.4c0.6,0.5,1.2,0.9,1.8,1.2c0.6,0.2,1.1,0.3,1.5,0.3c0.4,0,0.8,0,1.1-0.1l0,0.2
			c-0.8,0.3-1.5,0.4-2.2,0.4c-0.7,0-1.5-0.2-2.2-0.6c-0.7-0.4-1.4-0.9-2-1.6c-1.4-1.4-2.5-3.5-3.5-6.3L82.2,55h-6.5l-1.6,4.2
			c-0.1,0.2-0.1,0.4-0.1,0.6c0,0.2,0.1,0.4,0.2,0.6c0.2,0.2,0.4,0.3,0.8,0.3h0.2V61h-4.8v-0.2h0.2c0.4,0,0.8-0.1,1.1-0.3
			c0.4-0.2,0.7-0.6,0.9-1l5.9-14.1c-0.9-1.2-1.9-1.8-3.2-1.8c-0.6,0-1.2,0.1-1.8,0.4L73.4,43.5z M76,54.3h6l-1.9-5.5
			c-0.4-1.1-0.7-1.9-1-2.5L76,54.3z"/>
		<path class="st4" d="M107.8,65c-0.7,0.2-1.3,0.3-1.8,0.3c-0.5,0-1,0-1.4-0.1c-0.4-0.1-0.8-0.2-1.3-0.4c-0.5-0.2-0.9-0.4-1.3-0.6
			c-0.4-0.2-0.8-0.5-1.2-0.9c-0.7-0.6-1.4-1.2-2-1.9c-0.6-0.7-1.7-2-3.4-3.8c-1.7-1.9-2.8-3.1-3.4-3.7c-0.6-0.6-1-0.9-1.3-1v-0.2
			c0.9,0,1.5,0,1.8-0.1c0.3,0,0.6-0.1,1-0.2c0.3-0.1,0.6-0.2,0.9-0.4c0.9-0.6,1.4-1.6,1.4-3c0-1.2-0.3-2.1-0.8-2.8
			c-0.5-0.7-1.2-1.1-2.2-1.1h-2.9v14.2c0,0.4,0.1,0.7,0.4,1c0.3,0.3,0.7,0.5,1.1,0.5h0.3l0,0.2h-5.2v-0.2H87c0.4,0,0.7-0.1,1-0.4
			c0.3-0.3,0.5-0.6,0.5-1V46.1c0-0.4-0.2-0.8-0.5-1.1c-0.3-0.3-0.6-0.4-1.1-0.4h-0.3v-0.2h6.4c1.4,0,2.5,0.4,3.4,1.2
			c0.8,0.8,1.3,1.8,1.3,3.1c0,1.3-0.4,2.4-1.2,3.3c-0.8,0.9-1.7,1.4-2.9,1.4h0c0.5,0.6,1.1,1.2,1.8,2c2.7,3,4.5,4.9,5.3,5.7
			c0.8,0.8,1.5,1.4,2.1,1.9c0.6,0.5,1.1,0.9,1.6,1.1c0.9,0.5,1.9,0.8,2.8,0.8c0.2,0,0.4,0,0.6,0V65z"/>
		<path class="st4" d="M112.5,54.3c0-0.3-0.1-0.6-0.3-0.8c-0.2-0.2-0.5-0.3-0.8-0.4h-7.6v6.1c0,0.4,0.2,0.8,0.5,1.1
			c0.3,0.3,0.7,0.4,1.1,0.4h0.3V61h-5.2v-0.2h0.3c0.4,0,0.8-0.1,1.1-0.4c0.3-0.3,0.4-0.6,0.5-1.1V45.9c0-0.4-0.2-0.7-0.5-1
			c-0.3-0.3-0.7-0.4-1.1-0.4h-0.3l0-0.2h7c0.7,0,1.3-0.1,1.8-0.2c0.5-0.1,0.9-0.2,1-0.3v2.7H110v-0.4c0-0.3-0.1-0.6-0.3-0.8
			c-0.2-0.2-0.5-0.3-0.8-0.3h-5v7.3h7.6c0.3,0,0.6-0.1,0.8-0.4c0.2-0.2,0.3-0.5,0.3-0.8v-0.3h0.2v3.8h-0.2V54.3z"/>
		<path class="st4" d="M132,40.2c0.1,0,0.3,0,0.4,0v0.2c-1.7,0-3.1,0.6-4.1,1.7c-1,1.1-1.5,2.8-1.5,5v7.9c0,1.9-0.6,3.4-1.8,4.5
			c-1.2,1.1-2.7,1.7-4.7,1.7s-3.5-0.6-4.7-1.7c-1.2-1.1-1.8-2.6-1.8-4.5v-9.4c0-0.5-0.2-0.8-0.6-1c-0.2-0.1-0.4-0.1-0.6-0.1h-0.4
			v-0.2h4.8v0.2h-0.4c-0.3,0-0.6,0.1-0.9,0.3c-0.2,0.2-0.4,0.5-0.4,0.8v9.1c0,1.7,0.5,3.1,1.4,4.2c0.9,1.1,2.1,1.6,3.6,1.6
			c1.6,0,2.9-0.5,3.9-1.5c1-1,1.5-2.3,1.5-3.9v-7.9c0-2.3,0.6-4.1,1.8-5.2C128.6,40.8,130.2,40.2,132,40.2z"/>
		<path class="st4" d="M153.5,64.8c0.1,0,0.2,0,0.3,0v0.2c-0.4,0.1-0.9,0.1-1.5,0.1c-0.5,0-1.2-0.1-2-0.4c-0.8-0.2-1.5-0.7-2.2-1.3
			c-1.3-1.3-2.1-3.1-2.4-5.2l-1.5-10.6l-4.9,11.2c-0.4,1-0.7,1.8-0.8,2.4h-0.2L132,47.9l-1,11.8c0,0.3,0.1,0.5,0.2,0.7
			c0.2,0.2,0.4,0.3,0.7,0.3h0.4V61h-4.6v-0.2h0.4c0.4,0,0.8-0.1,1.1-0.4c0.3-0.3,0.5-0.6,0.6-1l1.5-13c-1.4-2.7-3.1-4.1-5-4.1
			c-0.2,0-0.4,0-0.5,0V42c0.4-0.1,0.8-0.2,1-0.2c0.3,0,0.6,0,0.9,0c0.3,0,0.7,0.1,1.1,0.2c0.4,0.1,0.8,0.3,1.2,0.6
			c0.4,0.2,0.7,0.5,1,0.8c0.3,0.3,0.6,0.6,0.8,0.9c0.4,0.6,0.8,1.1,1,1.6l5.7,12.4l6.4-14.3h0.2l2.2,14.1c0.3,2.2,1,3.9,2.2,5
			C150.6,64.3,151.9,64.8,153.5,64.8z"/>
		<path class="st4" d="M161.4,53.4v-3c0-0.4-0.4-0.7-0.7-0.7h-1.4c-0.2,0-0.4,0.1-0.5,0.2c-0.1,0.1-0.2,0.3-0.2,0.5v1.2h-1.5v-1.3
			c0-1.2,1-2.2,2.2-2.2h1.4c1.2,0,2.2,1,2.2,2.2V61h-1.2l-0.2-0.6l-1.7,0.5c-0.3,0.1-0.6,0.1-0.9,0.1c-1.3,0-2.1-0.8-2.1-2v-3.5
			c0-1.2,1-2.2,2.2-2.2H161.4z M161.4,54.8H159c-0.4,0-0.7,0.4-0.7,0.7v3.3c0,0.4,0.4,0.7,0.7,0.7c0.1,0,0.2,0,0.3,0l2.1-0.7V54.8z"
			/>
		<path class="st4" d="M168.7,51.6v-1.2c0-0.4-0.3-0.7-0.7-0.7h-1.2c-0.4,0-0.7,0.3-0.7,0.7v8.4c0,0.4,0.3,0.7,0.7,0.7h1.2
			c0.4,0,0.7-0.3,0.7-0.7v-2h1.5v2c0,1.2-1,2.2-2.2,2.2h-1.2c-1.2,0-2.2-1-2.2-2.2v-8.4c0-1.2,1-2.2,2.2-2.2h1.2
			c1.2,0,2.2,1,2.2,2.2v1.2H168.7z"/>
		<path class="st4" d="M173.3,44.3v4.4l1.4-0.5c0.2-0.1,0.5-0.1,0.8-0.1c1.2,0,2.2,1,2.2,2.2V61h-1.5V50.1c0-0.4-0.3-0.6-0.7-0.6
			c-0.1,0-0.2,0-0.3,0l-1.9,0.7V61h-1.5V44.3H173.3z"/>
		<path class="st4" d="M183.9,53.4v-3c0-0.4-0.4-0.7-0.7-0.7h-1.4c-0.2,0-0.4,0.1-0.5,0.2c-0.1,0.1-0.2,0.3-0.2,0.5v1.2h-1.5v-1.3
			c0-1.2,1-2.2,2.2-2.2h1.4c1.2,0,2.2,1,2.2,2.2V61h-1.2l-0.2-0.6l-1.7,0.5c-0.3,0.1-0.6,0.1-0.9,0.1c-1.3,0-2.1-0.8-2.1-2v-3.5
			c0-1.2,1-2.2,2.2-2.2H183.9z M183.9,54.8h-2.4c-0.4,0-0.7,0.4-0.7,0.7v3.3c0,0.4,0.4,0.7,0.7,0.7c0.1,0,0.2,0,0.3,0l2.1-0.7V54.8z
			"/>
		<path class="st4" d="M189.4,58.8c0,0.4,0.4,0.7,0.7,0.7h0.8V61h-0.8c-1.2,0-2.2-1.1-2.2-2.2v-9.1h-1.3v-1.5h1.3v-2h1.5v2h1.5v1.5
			h-1.5V58.8z"/>
		<path class="st4" d="M218.6,65.1c-2,0-3.7-0.6-4.9-1.9c-1-1-1.6-2.1-1.9-3.6c-1.5,1.1-3.4,1.7-5.5,1.7c-1.7,0-3.3-0.4-4.7-1.1
			c-1.4-0.8-2.5-1.8-3.3-3.1c-0.8-1.3-1.2-2.8-1.2-4.4c0-1.6,0.4-3.1,1.2-4.5c0.8-1.3,1.9-2.3,3.3-3.1c1.4-0.7,3-1.1,4.7-1.1
			c2.2,0,4.1,0.5,5.8,1.6l0.5,3.4h-0.2c-0.5-1.8-1.6-3.1-3.2-3.8c-0.8-0.3-1.8-0.5-2.8-0.5c-2.1,0-3.9,0.7-5.3,2.2
			c-1.4,1.5-2.1,3.4-2.1,5.7c0,2.3,0.7,4.2,2.1,5.7c1.4,1.5,3.2,2.3,5.3,2.3c1,0,2-0.2,2.9-0.5c0.9-0.4,1.7-0.9,2.4-1.5v-4.2
			c0-0.3-0.1-0.6-0.3-0.8c-0.2-0.2-0.5-0.3-0.9-0.3h-0.4V53h4.7v0.2h-0.4c-0.4,0-0.7,0.1-0.9,0.3c-0.2,0.2-0.3,0.4-0.3,0.8V58
			c0.1,2.5,0.9,4.3,2.4,5.4c1.1,0.8,2.5,1.1,4.2,1.1c0.7,0,1.5-0.1,2.3-0.2l0,0.2C220.9,64.9,219.7,65.1,218.6,65.1z"/>
		<path class="st4" d="M235.9,65c-0.7,0.2-1.3,0.3-1.8,0.3c-0.5,0-1,0-1.4-0.1c-0.4-0.1-0.8-0.2-1.3-0.4c-0.5-0.2-0.9-0.4-1.3-0.6
			c-0.4-0.2-0.8-0.5-1.2-0.9c-0.7-0.6-1.4-1.2-2-1.9c-0.6-0.7-1.7-2-3.4-3.8c-1.7-1.9-2.8-3.1-3.4-3.7c-0.6-0.6-1-0.9-1.3-1v-0.2
			c0.9,0,1.5,0,1.8-0.1c0.3,0,0.6-0.1,1-0.2c0.3-0.1,0.6-0.2,0.9-0.4c0.9-0.6,1.4-1.6,1.4-3c0-1.2-0.3-2.1-0.8-2.8
			c-0.5-0.7-1.2-1.1-2.2-1.1h-2.9v14.2c0,0.4,0.1,0.7,0.4,1c0.3,0.3,0.7,0.5,1.1,0.5h0.3l0,0.2h-5.2v-0.2h0.3c0.4,0,0.7-0.1,1-0.4
			c0.3-0.3,0.5-0.6,0.5-1V46.1c0-0.4-0.2-0.8-0.5-1.1c-0.3-0.3-0.6-0.4-1.1-0.4h-0.3v-0.2h6.4c1.4,0,2.5,0.4,3.4,1.2
			c0.8,0.8,1.3,1.8,1.3,3.1c0,1.3-0.4,2.4-1.2,3.3c-0.8,0.9-1.7,1.4-2.9,1.4h0c0.5,0.6,1.1,1.2,1.8,2c2.7,3,4.5,4.9,5.3,5.7
			c0.8,0.8,1.5,1.4,2.1,1.9c0.6,0.5,1.1,0.9,1.6,1.1c0.9,0.5,1.9,0.8,2.8,0.8c0.2,0,0.4,0,0.6,0V65z"/>
		<path class="st4" d="M232.6,49.9c-0.1-0.2-0.1-0.4-0.1-0.5c0-0.2,0-0.3,0-0.5c0-0.2,0.1-0.5,0.1-0.8c0.1-0.3,0.2-0.7,0.3-1
			c0.2-0.3,0.3-0.6,0.5-0.9c0.2-0.3,0.5-0.6,0.8-0.8c0.3-0.3,0.7-0.5,1.1-0.7c0.8-0.4,1.9-0.6,3.1-0.6c2.4,0,4.4,0.8,5.9,2.4
			c1.5,1.6,2.3,3.7,2.3,6.2c0,2.5-0.9,4.6-2.7,6.2c-1.8,1.7-4.1,2.5-6.9,2.5c-2.8,0-5.1-0.8-6.9-2.5c-1.8-1.6-2.7-3.8-2.7-6.4
			c0-1.7,0.4-3.2,1.2-4.5c0.8-1.3,1.9-2.3,3.4-3.1l0.1,0.2c-1,0.7-1.8,1.7-2.2,2.9c-0.5,1.3-0.7,2.6-0.7,4.1c0,2.7,0.7,4.8,2.2,6.3
			c1.5,1.5,3.3,2.3,5.6,2.3c2.3,0,4.1-0.8,5.6-2.3c1.5-1.5,2.2-3.5,2.2-6c0-2.1-0.6-3.9-1.7-5.4c-1.1-1.5-2.8-2.2-4.9-2.2
			c-0.9,0-1.8,0.2-2.5,0.5c-1.4,0.6-2.3,1.6-2.7,2.9c-0.1,0.4-0.2,0.7-0.2,1s0,0.5,0,0.7L232.6,49.9z"/>
		<path class="st4" d="M267.4,40.2c0.1,0,0.3,0,0.4,0v0.2c-1.7,0-3.1,0.6-4.1,1.7c-1,1.1-1.5,2.8-1.5,5v7.9c0,1.9-0.6,3.4-1.8,4.5
			c-1.2,1.1-2.7,1.7-4.7,1.7s-3.5-0.6-4.7-1.7c-1.2-1.1-1.8-2.6-1.8-4.5v-9.4c0-0.5-0.2-0.8-0.6-1c-0.2-0.1-0.4-0.1-0.6-0.1h-0.4
			v-0.2h4.8v0.2h-0.4c-0.3,0-0.6,0.1-0.9,0.3c-0.2,0.2-0.4,0.5-0.4,0.8v9.1c0,1.7,0.5,3.1,1.4,4.2c0.9,1.1,2.1,1.6,3.6,1.6
			c1.6,0,2.9-0.5,3.9-1.5c1-1,1.5-2.3,1.5-3.9v-7.9c0-2.3,0.6-4.1,1.8-5.2C264,40.8,265.5,40.2,267.4,40.2z"/>
		<path class="st4" d="M271.2,44c1.4,0,2.5,0.3,3.4,1c1.2,0.9,1.9,2.3,1.9,4.2c0,1.4-0.4,2.5-1.1,3.5c-0.8,1-2,1.5-3.4,1.5
			c-0.8,0-1.5-0.2-2.1-0.6c-0.6-0.4-1-1-1.1-1.9l0.2-0.1c0.2,0.7,0.6,1.2,1.2,1.4c0.4,0.2,0.8,0.3,1.1,0.3c1.3,0,2.2-0.5,2.8-1.5
			c0.4-0.7,0.6-1.6,0.6-2.7c0-1.6-0.5-2.8-1.4-3.6c-0.7-0.6-1.6-0.9-2.7-0.9c-0.3,0-0.5,0-0.7,0c-0.2,0-1,0.2-2.4,0.4v14.1
			c0,0.4,0.2,0.8,0.5,1.1c0.3,0.3,0.6,0.4,1,0.4h0.3V61h-5.2v-0.2h0.3c0.4,0,0.7-0.1,1-0.4c0.3-0.3,0.5-0.6,0.5-1.1V46.4
			c0-0.4-0.1-0.7-0.4-1c-0.2-0.2-0.5-0.3-0.9-0.3c-0.1,0-0.2,0-0.2,0l-0.3,0l0-0.2c0.8-0.1,1.9-0.2,3.3-0.5c1.4-0.2,2.2-0.4,2.6-0.4
			C270.5,44,270.8,44,271.2,44z"/>
		<path class="st4" d="M277.4,60.7c0.4,0,0.8-0.1,1.1-0.4c0.3-0.3,0.4-0.6,0.5-1.1V45.9c0-0.4-0.2-0.7-0.5-1
			c-0.3-0.3-0.7-0.4-1.1-0.4h-0.3l0-0.2h4.8c0.7,0,1.3-0.1,1.8-0.2c0.5-0.1,0.9-0.2,1-0.3v3h-0.2v-0.4c0-0.4-0.1-0.7-0.4-1
			c-0.3-0.3-0.6-0.4-0.9-0.4h-2.7v7.3h4.5c0.3,0,0.6-0.1,0.8-0.4c0.2-0.2,0.3-0.5,0.3-0.8v-0.3h0.2v3.8h-0.2v-0.4
			c0-0.3-0.1-0.6-0.3-0.8c-0.2-0.2-0.5-0.3-0.8-0.4h-4.5v7.1h5.1c1.2,0,2.1-0.3,2.7-0.8s1.1-1.3,1.5-2.3h0.2l-1.4,3.9h-11.5v-0.2
			H277.4z M281.6,42.8l-0.2-0.2c1.2-1.3,2.2-2.3,3-3.1c0.4,0.4,0.8,0.8,1,1.3C284.4,41.4,283.1,42.1,281.6,42.8z"/>
	</g>
</g>
</svg>
