<?xml version="1.0" encoding="utf-8"?>
<!-- Generator: Adobe Illustrator 21.0.0, SVG Export Plug-In . SVG Version: 6.00 Build 0)  -->
<svg version="1.1" id="Layer_1" xmlns="http://www.w3.org/2000/svg" xmlns:xlink="http://www.w3.org/1999/xlink" x="0px" y="0px"
	 viewBox="0 0 290 70" style="enable-background:new 0 0 290 70;" xml:space="preserve">
<style type="text/css">
	.st0{fill:#FEA500;}
	.st1{fill:#7F47DD;}
	.st2{fill:#FFC704;}
	.st3{fill:#FF1400;}
	.st4{fill:#4F4FFF;}
	.st5{fill:#F26B62;}
	.st6{fill:#181818;}
	.st7{font-family:'CinzelDecorative-Regular';}
	.st8{font-size:28.4066px;}
	.st9{letter-spacing:-2;}
	.st10{font-size:21.6808px;}
	.st11{letter-spacing:-1;}
	.st12{font-family:'BravoRG';}
</style>
<g>
	<g>
		<ellipse transform="matrix(0.9899 -0.142 0.142 0.9899 0.2546 32.2401)" class="st0" cx="226.1" cy="14.3" rx="2.7" ry="2.7"/>
		<g>
			<path class="st0" d="M231.6,26.6c-1.3-3.3-0.7-7.1,1.8-9.8l0,0c0.4-0.5-0.1-1.2-0.7-0.9l-1.5,0.7c-3.3,1.4-7,1.3-10.2-0.2l0,0
				c-0.6-0.3-1.1,0.4-0.7,0.9l0.7,0.9c1.5,1.9,2.2,4.4,1.9,6.8l-0.6,5c-0.1,0.5,0.5,0.8,0.9,0.5c2.1-1.7,5-1.9,7.4-0.6l1.5,0.8
				c0.5,0.3,1-0.2,0.8-0.7L231.6,26.6z"/>
			<path class="st1" d="M232.4,31c-0.1,0-0.3,0-0.4-0.1l-1.5-0.8c-2.3-1.2-5.1-1-7.2,0.6c-0.3,0.2-0.6,0.2-0.9,0.1
				c-0.3-0.2-0.4-0.5-0.4-0.8l0.6-5c0.3-2.4-0.4-4.8-1.9-6.7l-0.7-0.9c-0.2-0.3-0.2-0.7,0-1c0.2-0.3,0.6-0.4,1-0.2
				c3.2,1.5,6.8,1.5,10,0.2l1.5-0.7c0.4-0.2,0.7,0,1,0.3c0.2,0.3,0.2,0.7-0.1,1c-2.3,2.6-3,6.3-1.7,9.5l1.4,3.4
				c0.1,0.3,0,0.7-0.2,0.9C232.8,30.9,232.6,31,232.4,31z M227.4,28.9c1.1,0,2.3,0.3,3.3,0.8l1.5,0.8c0.2,0.1,0.3,0,0.4-0.1
				c0.1-0.1,0.2-0.2,0.1-0.4l-1.4-3.4c-1.4-3.4-0.7-7.3,1.8-10c0.1-0.2,0.1-0.3,0-0.5c-0.1-0.1-0.2-0.2-0.4-0.1l-1.5,0.7
				c-3.3,1.4-7.1,1.4-10.4-0.2c-0.2-0.1-0.4,0-0.4,0.1c-0.1,0.1-0.1,0.3,0,0.5l0.7,0.9c1.6,2,2.3,4.5,2,7l-0.6,5
				c0,0.2,0.1,0.3,0.2,0.4c0.1,0.1,0.3,0.1,0.4,0C224.4,29.4,225.9,28.9,227.4,28.9z"/>
		</g>
	</g>
	<g>
		<ellipse transform="matrix(0.9899 -0.142 0.142 0.9899 0.14 35.6377)" class="st2" cx="249.9" cy="16.8" rx="3.1" ry="3.1"/>
		<path class="st2" d="M257.7,17.1l-0.5,0.4c-3.8,3-8.7,4.3-13.5,3.6c-0.5,0-0.6,0.6-0.2,0.8v0c3.6,1.3,5.8,4.9,5.3,8.7l-0.4,3.1
			c-0.1,0.4,0.5,0.6,0.7,0.3l0.4-0.5c2-2.8,5.9-3.6,8.8-1.7c0.3,0.2,0.8-0.2,0.6-0.5l-2-3.8c-1.4-2.6-1.2-5.8,0.4-8.3l1-1.5
			C258.5,17.2,258,16.8,257.7,17.1z"/>
	</g>
	<g>
		<g>
			<ellipse transform="matrix(0.9899 -0.142 0.142 0.9899 -0.7475 28.7466)" class="st3" cx="201.1" cy="19.6" rx="2.6" ry="2.6"/>
			<path class="st4" d="M201.1,22.4c-0.6,0-1.2-0.2-1.7-0.6c-0.6-0.4-1-1.1-1.1-1.8c-0.1-0.7,0.1-1.5,0.5-2.1c0.4-0.6,1.1-1,1.8-1.1
				c1.5-0.2,3,0.8,3.2,2.4c0.2,1.5-0.8,3-2.4,3.2l0,0C201.4,22.4,201.2,22.4,201.1,22.4z M201.1,17.2c-0.1,0-0.2,0-0.3,0
				c-0.6,0.1-1.2,0.4-1.6,0.9c-0.4,0.5-0.5,1.1-0.5,1.8c0.1,0.6,0.4,1.2,0.9,1.6c0.5,0.4,1.1,0.5,1.8,0.5c1.3-0.2,2.2-1.4,2-2.7
				C203.3,18.1,202.3,17.2,201.1,17.2z"/>
		</g>
		<path class="st3" d="M207.6,20.8l-1.6,0.8c-2.9,1.5-6.3,1.9-9.5,1c-0.7-0.2-1.1,0.7-0.6,1.2l0.8,0.6c1.8,1.5,2.9,3.7,3,6.1
			l0.1,3.5c0,0.6,0.7,0.9,1.1,0.5c1.4-1.3,3.4-1.6,5.2-0.8l2.6,1.1c0.6,0.2,1.1-0.4,0.9-0.9l-1.8-3.5c-1.4-2.7-1.1-6,0.8-8.5v0
			C208.8,21.2,208.2,20.4,207.6,20.8z"/>
	</g>
	<polygon points="41.5,14.7 38.9,14.7 38.9,9.9 37.8,9.9 37.8,6.5 38.9,6.5 38.9,5.2 30.4,5.2 30.4,14.7 28.5,14.7 28.5,16.6 
		41.5,16.6 	"/>
	<path class="st3" d="M32.2,40.8c-0.3-0.3-0.5-0.5-0.8-0.7c-0.4-2.6-0.4-5.2,0-7.8c0.6-3.3,1.6-6.4,2.6-9.6c-0.5,0-0.9,0-1.4,0
		c-1.1,3.2-2.1,6.4-2.6,9.8c-0.3,2.3-0.3,4.6-0.1,6.8c-4.6-2-10.3,1.5-10.3,1.5c0,6.3,3.8,11.8,9.3,14.1H41
		c5.5-2.3,9.3-7.8,9.3-14.1C50.3,40.8,36.8,45.5,32.2,40.8z"/>
	<path d="M35,17.2c-12.3,0-22.2,10-22.2,22.2c0,8.9,5.3,17,13.5,20.5l0.4,0.2h16.5l0.4-0.2c8.2-3.5,13.5-11.5,13.5-20.5
		C57.2,27.2,47.3,17.2,35,17.2z M42.4,55.7H27.6c-6.4-2.9-10.5-9.3-10.5-16.3c0-9.2,7-16.8,15.9-17.8c0,0,1.4-0.1,1.4-0.1
		c0.2,0,0.4,0,0.6,0c9.9,0,17.9,8,17.9,17.9C52.9,46.5,48.8,52.8,42.4,55.7z"/>
	<path class="st5" d="M40.9,9.2c0.6-0.4,1.3-0.6,2-0.8C43.6,8.2,44.3,8,45,8c0.7-0.1,1.4-0.1,2.1-0.1c0.4,0,0.7,0,1.1,0.1l0.5,0.1
		l0.5,0.1c2.8,0.5,5.5,1.5,8.1,2.9c0.6,0.3,1.3,0.7,1.9,1c0.6,0.4,1.2,0.7,1.8,1.1c0.6,0.4,1.2,0.8,1.8,1.2l0.9,0.6
		c0.3,0.2,0.6,0.4,0.9,0.6c2.4,1.5,5,2.7,7.7,3.3c1.4,0.3,2.8,0.5,4.2,0.5c1.4,0,2.8-0.2,4.2-0.5c1.4-0.3,2.7-0.8,3.9-1.5
		c0.6-0.3,1.2-0.7,1.7-1.2c0.5-0.4,1.1-0.9,1.5-1.4c0.9-1,1.6-2.3,1.8-3.7c0.1-0.7,0-1.4-0.2-2c-0.2-0.7-0.5-1.3-0.8-1.9
		c-0.4-0.6-0.9-1.1-1.4-1.5c-0.3-0.2-0.6-0.3-1-0.4c-0.2-0.1-0.3-0.1-0.5-0.1c-0.2,0-0.3,0-0.5,0c-0.3,0-0.7,0-1.1,0
		c-0.3,0-0.7,0.1-1,0.2c-0.7,0.2-1.4,0.4-2,0.8c1.2-0.7,2.6-1.2,4.1-1.2c0.2,0,0.4,0,0.5,0C85.8,5,86,5,86.2,5
		c0.4,0.1,0.7,0.2,1,0.4c0.6,0.4,1.2,0.9,1.6,1.5c0.4,0.6,0.7,1.3,0.9,2c0.2,0.7,0.3,1.5,0.2,2.2c-0.2,1.5-0.9,2.8-1.8,3.9
		c-0.9,1.1-2.1,2-3.3,2.8c-1.3,0.7-2.6,1.3-4,1.6c-2.8,0.7-5.8,0.7-8.6,0.1c-2.8-0.6-5.5-1.8-7.9-3.4c-0.3-0.2-0.6-0.4-0.9-0.6
		l-0.9-0.6c-0.6-0.4-1.1-0.8-1.7-1.2c-1.2-0.8-2.4-1.5-3.6-2.2c-2.5-1.4-5.1-2.5-7.9-3l-0.5-0.1l-0.5-0.1c-0.3-0.1-0.7-0.1-1.1-0.1
		c-0.7-0.1-1.4-0.1-2.1,0c-0.7,0-1.4,0.1-2.1,0.3C42.2,8.6,41.5,8.9,40.9,9.2z"/>
	<text transform="matrix(1 0 0 1 60.276 57.046)"><tspan x="0" y="0" class="st6 st7 st8 st9">P</tspan><tspan x="15.5" y="0" class="st6 st7 st10 st11">ARFUM  </tspan><tspan x="94.2" y="0" class="st6 st12 st10">achat </tspan><tspan x="130.3" y="0" class="st6 st7 st10 st11">GROUPÉ</tspan></text>
</g>
</svg>
