<?xml version="1.0" encoding="utf-8"?>
<!-- Generator: Adobe Illustrator 21.0.0, SVG Export Plug-In . SVG Version: 6.00 Build 0)  -->
<svg version="1.1" id="Layer_1" xmlns="http://www.w3.org/2000/svg" xmlns:xlink="http://www.w3.org/1999/xlink" x="0px" y="0px"
	 viewBox="0 0 50 50" style="enable-background:new 0 0 50 50;" xml:space="preserve">
<style type="text/css">
	.st0{fill:url(#SVGID_1_);}
	.st1{fill:#FFFFFF;}
</style>
<g>
	<linearGradient id="SVGID_1_" gradientUnits="userSpaceOnUse" x1="25" y1="47.3125" x2="25" y2="2.6875">
		<stop  offset="0" style="stop-color:#FC6931"/>
		<stop  offset="0.4027" style="stop-color:#FC8440"/>
		<stop  offset="1" style="stop-color:#FC8440"/>
	</linearGradient>
	<path class="st0" d="M35.3,47.3H14.7c-6.6,0-12-5.4-12-12V14.7c0-6.6,5.4-12,12-12h20.6c6.6,0,12,5.4,12,12v20.6
		C47.3,41.9,41.9,47.3,35.3,47.3z"/>
	<path class="st1" d="M32.2,12.7V13c0,0.7,0.3,1.3,0.9,1.7c3.3,2.6,5.4,6.8,5,11.4C37.5,32.5,32.3,37.6,26,38
		c-7.7,0.6-14.1-5.5-14.1-13c0-4.2,2-7.9,5-10.3c0.5-0.4,0.9-1,0.9-1.7v-0.3c0-1.8-2.1-2.8-3.5-1.7c-4.5,3.4-7.3,8.9-7,14.9
		c0.4,9.1,7.8,16.4,16.9,16.8C34.3,43,42.7,35,42.7,25c0-5.7-2.7-10.8-7-14.1C34.2,9.9,32.2,10.9,32.2,12.7z"/>
	<path class="st1" d="M25.2,26.6h-0.4c-1.2,0-2.2-1-2.2-2.2V8.2c0-1.2,1-2.2,2.2-2.2h0.4c1.2,0,2.2,1,2.2,2.2v16.2
		C27.3,25.6,26.4,26.6,25.2,26.6z"/>
</g>
</svg>
