<?xml version="1.0" encoding="utf-8"?>
<!-- Generator: Adobe Illustrator 21.0.0, SVG Export Plug-In . SVG Version: 6.00 Build 0)  -->
<svg version="1.1" id="Layer_1" xmlns="http://www.w3.org/2000/svg" xmlns:xlink="http://www.w3.org/1999/xlink" x="0px" y="0px"
	 viewBox="0 0 282 66" style="enable-background:new 0 0 282 66;" xml:space="preserve">
<style type="text/css">
	.st0{fill:#FEA500;}
	.st1{fill:#FEA500;stroke:#7F47DD;stroke-width:2;stroke-miterlimit:10;}
	.st2{fill:#FFC704;}
	.st3{fill:#FF1400;stroke:#4F4FFF;stroke-width:2;stroke-miterlimit:10;}
	.st4{fill:#FF1400;}
	.st5{fill:#F26B62;}
	.st6{fill:#181818;}
</style>
<g>
	<ellipse transform="matrix(0.9899 -0.142 0.142 0.9899 0.2378 31.5259)" class="st0" cx="221.1" cy="14.1" rx="2.6" ry="2.6"/>
	<path class="st1" d="M226.4,26c-1.3-3.2-0.6-6.9,1.7-9.5l0,0c0.4-0.4-0.1-1.1-0.6-0.9l-1.5,0.6c-3.2,1.4-6.7,1.3-9.9-0.2l0,0
		c-0.5-0.3-1,0.4-0.7,0.9l0.7,0.9c1.5,1.9,2.1,4.2,1.9,6.6l-0.6,4.9c-0.1,0.5,0.5,0.8,0.9,0.5c2.1-1.6,4.9-1.8,7.1-0.6l1.5,0.8
		c0.5,0.2,1-0.2,0.8-0.7L226.4,26z"/>
</g>
<g>
	<ellipse transform="matrix(0.9899 -0.142 0.142 0.9899 0.1269 34.8152)" class="st2" cx="244.1" cy="16.5" rx="3" ry="3"/>
	<path class="st2" d="M251.7,16.8l-0.5,0.4c-3.7,2.9-8.4,4.2-13.1,3.5c-0.4,0-0.6,0.6-0.2,0.7v0c3.5,1.3,5.6,4.8,5.2,8.4l-0.4,3
		c-0.1,0.4,0.5,0.6,0.7,0.3l0.3-0.5c1.9-2.8,5.7-3.5,8.5-1.7c0.3,0.2,0.7-0.2,0.5-0.5l-1.9-3.7c-1.3-2.5-1.2-5.6,0.4-8l1-1.5
		C252.5,16.9,252,16.5,251.7,16.8z"/>
</g>
<g>
	<ellipse transform="matrix(0.9899 -0.142 0.142 0.9899 -0.7324 28.1438)" class="st3" cx="196.9" cy="19.2" rx="2.5" ry="2.5"/>
	<path class="st4" d="M203.1,20.3l-1.5,0.8c-2.8,1.4-6.1,1.8-9.2,1c-0.7-0.2-1.1,0.7-0.6,1.1l0.7,0.6c1.8,1.4,2.8,3.6,2.9,5.9
		l0.1,3.4c0,0.5,0.7,0.8,1.1,0.5c1.4-1.2,3.3-1.5,5-0.8l2.5,1.1c0.6,0.2,1.1-0.3,0.8-0.9l-1.7-3.4c-1.3-2.7-1-5.8,0.8-8.2v0
		C204.4,20.7,203.7,20,203.1,20.3z"/>
</g>
<polygon points="42.4,14.4 39.9,14.4 39.9,9.8 38.7,9.8 38.7,6.5 39.9,6.5 39.9,5.3 31.7,5.3 31.7,14.4 29.8,14.4 29.8,16.3 
	42.4,16.3 "/>
<path class="st4" d="M33.4,39.7c-0.3-0.3-0.5-0.5-0.8-0.7c-0.4-2.5-0.4-5,0-7.6c0.5-3.2,1.6-6.2,2.6-9.3c-0.4,0-0.9,0-1.3,0
	c-1,3.1-2.1,6.2-2.5,9.5C31,33.8,31,36,31.2,38.2c-4.4-1.9-9.9,1.5-9.9,1.5c0,6.1,3.7,11.4,9,13.6h11.6c5.3-2.3,9-7.5,9-13.6
	C50.9,39.7,37.8,44.3,33.4,39.7z"/>
<path d="M36.1,16.9c-11.9,0-21.5,9.7-21.5,21.5c0,8.7,5.1,16.4,13.1,19.8l0.4,0.2h16l0.4-0.2c8-3.4,13.1-11.2,13.1-19.8
	C57.6,26.5,48,16.9,36.1,16.9z M43.2,54.2H28.9c-6.2-2.8-10.2-9-10.2-15.8c0-8.9,6.7-16.2,15.4-17.2c0,0,1.4-0.1,1.4-0.1
	c0.2,0,0.4,0,0.6,0c9.6,0,17.3,7.8,17.3,17.3C53.4,45.2,49.4,51.4,43.2,54.2z"/>
<g>
	<path class="st5" d="M41.8,9.1c1.1-0.8,2.5-1.3,3.9-1.5c1.4-0.2,2.9-0.2,4.3-0.1c2.9,0.3,5.6,1.3,8.1,2.5c0.7,0.3,1.3,0.7,1.9,1
		c0.6,0.3,1.2,0.7,1.8,1.1l3.4,2.2c1.1,0.7,2.3,1.3,3.5,1.8c1.2,0.5,2.4,0.9,3.7,1.2c2.5,0.6,5.1,0.6,7.5,0c2.5-0.5,4.8-1.7,6.5-3.5
		c0.4-0.4,0.8-0.9,1.1-1.4c0.3-0.5,0.5-1.1,0.6-1.6c0.1-0.6,0.1-1.1,0-1.7l-0.3-0.9l-0.4-0.8c-0.5-1.1-1.6-1.8-2.8-1.9
		c-1.3-0.1-2.7,0.1-3.9,0.7c1.1-0.8,2.5-1.4,4-1.5c1.5-0.1,3.1,0.7,4,2c0.2,0.3,0.4,0.7,0.6,1l0.4,1C90,9.4,90.1,10.2,90,11
		c-0.1,1.6-0.9,3.1-1.8,4.3c-1.9,2.4-4.7,3.9-7.6,4.7c-2.9,0.8-6,0.7-8.9,0.2c-2.9-0.7-5.6-1.9-8-3.5l-3.4-2.4
		c-0.5-0.4-1.1-0.8-1.7-1.1c-0.6-0.4-1.1-0.8-1.7-1.1c-2.3-1.4-4.7-2.5-7.3-3.1C47.2,8.3,44.4,8.1,41.8,9.1z"/>
</g>
<g>
	<path class="st6" d="M71.6,35.8c1.6,0,2.9,0.4,4,1.2c1.4,1,2.1,2.6,2.1,4.8c0,1.6-0.4,2.9-1.3,4c-1,1.2-2.3,1.8-4,1.8
		c-0.9,0-1.7-0.2-2.4-0.6c-0.7-0.4-1.2-1.2-1.3-2.2l0.2-0.1c0.2,0.8,0.7,1.3,1.4,1.7c0.5,0.2,0.9,0.3,1.3,0.3c1.5,0,2.6-0.6,3.3-1.8
		c0.5-0.9,0.7-1.9,0.7-3.1c0-1.9-0.5-3.3-1.6-4.1c-0.8-0.7-1.8-1-3.1-1c-0.3,0-0.5,0-0.8,0c-0.2,0-1.1,0.2-2.8,0.5v16.3
		c0,0.5,0.2,0.9,0.5,1.2c0.3,0.3,0.8,0.5,1.2,0.5h0.4v0.3h-6v-0.3h0.4c0.5,0,0.9-0.2,1.2-0.5c0.3-0.3,0.5-0.7,0.5-1.2V38.6
		c0-0.5-0.1-0.8-0.4-1.1C65,37.2,64.6,37,64.2,37c-0.1,0-0.2,0-0.3,0l-0.3,0l-0.1-0.3c1-0.1,2.2-0.3,3.8-0.5c1.6-0.3,2.6-0.4,3-0.5
		C70.7,35.8,71.1,35.8,71.6,35.8z"/>
	<path class="st6" d="M79.4,40c0.9-0.4,1.8-0.6,2.6-0.6c0.7,0,1.4,0.3,2.2,0.8c0.4,0.3,0.9,0.8,1.4,1.6c0.3,0.6,0.8,1.6,1.3,3
		l2.6,7.3c0.6,1.6,1.2,2.9,1.8,3.9c0.6,1,1.2,1.7,1.7,2.2c0.5,0.5,1,0.8,1.6,1c0.5,0.2,1,0.3,1.4,0.3s0.7,0,1-0.1l0,0.2
		c-0.7,0.2-1.3,0.3-2,0.3c-0.6,0-1.3-0.2-1.9-0.5c-0.6-0.3-1.2-0.8-1.8-1.4c-1.2-1.2-2.2-3.1-3.1-5.6l-0.8-2.4h-5.8l-1.4,3.7
		c-0.1,0.2-0.1,0.3-0.1,0.5c0,0.2,0.1,0.3,0.2,0.5c0.1,0.2,0.4,0.3,0.7,0.3h0.2v0.2h-4.2v-0.2h0.2c0.3,0,0.7-0.1,1-0.3
		c0.3-0.2,0.6-0.5,0.8-0.9l5.2-12.5c-0.8-1.1-1.7-1.6-2.8-1.6c-0.5,0-1,0.1-1.6,0.3L79.4,40z M81.6,49.5h5.3l-1.7-4.9
		c-0.3-0.9-0.6-1.7-0.9-2.2L81.6,49.5z"/>
	<path class="st6" d="M109.7,59c-0.6,0.2-1.1,0.2-1.6,0.2c-0.5,0-0.9,0-1.2-0.1c-0.3-0.1-0.7-0.2-1.1-0.3c-0.4-0.2-0.8-0.3-1.1-0.6
		c-0.3-0.2-0.7-0.5-1-0.8c-0.6-0.5-1.2-1.1-1.8-1.7c-0.5-0.6-1.5-1.7-3-3.4c-1.5-1.7-2.5-2.8-3-3.3c-0.5-0.5-0.9-0.8-1.1-0.9v-0.2
		c0.8,0,1.4,0,1.6-0.1c0.3,0,0.6-0.1,0.9-0.2c0.3-0.1,0.6-0.2,0.8-0.4c0.8-0.5,1.2-1.4,1.2-2.6c0-1-0.2-1.8-0.7-2.5
		c-0.5-0.6-1.1-0.9-1.9-0.9h-2.6v12.5c0,0.3,0.1,0.7,0.4,0.9c0.3,0.3,0.6,0.4,1,0.4h0.3l0,0.2h-4.6v-0.2h0.3c0.3,0,0.7-0.1,0.9-0.4
		c0.3-0.3,0.4-0.6,0.4-0.9V42.3c0-0.4-0.2-0.7-0.4-0.9C92,41.1,91.7,41,91.4,41h-0.3v-0.2h5.7c1.2,0,2.2,0.3,3,1
		c0.7,0.7,1.1,1.6,1.1,2.7c0,1.1-0.3,2.1-1,2.9c-0.7,0.8-1.5,1.2-2.5,1.2h0c0.5,0.5,1,1.1,1.6,1.8c2.4,2.7,4,4.4,4.7,5
		c0.7,0.7,1.3,1.2,1.8,1.7c0.5,0.4,1,0.8,1.4,1c0.8,0.4,1.6,0.7,2.5,0.7c0.2,0,0.3,0,0.5,0V59z"/>
	<path class="st6" d="M113.9,49.5c0-0.3-0.1-0.5-0.3-0.7c-0.2-0.2-0.4-0.3-0.7-0.3h-6.7v5.4c0,0.4,0.1,0.7,0.4,0.9
		c0.3,0.3,0.6,0.4,0.9,0.4h0.3v0.2h-4.6v-0.2h0.3c0.4,0,0.7-0.1,0.9-0.4c0.3-0.3,0.4-0.6,0.4-0.9V42.2c0-0.3-0.1-0.6-0.4-0.9
		s-0.6-0.3-0.9-0.3h-0.3l0-0.2h6.1c0.6,0,1.1,0,1.6-0.1c0.5-0.1,0.8-0.2,0.9-0.2v2.4h-0.2v-0.3c0-0.3-0.1-0.5-0.3-0.7
		c-0.2-0.2-0.4-0.3-0.7-0.3h-4.4v6.5h6.7c0.3,0,0.5-0.1,0.7-0.3c0.2-0.2,0.3-0.4,0.3-0.7v-0.3h0.2v3.3h-0.2V49.5z"/>
	<path class="st6" d="M131.1,37.1c0.1,0,0.2,0,0.4,0v0.2c-1.5,0-2.8,0.5-3.7,1.5c-0.9,1-1.3,2.5-1.3,4.4v7c0,1.6-0.5,3-1.6,4
		c-1,1-2.4,1.5-4.1,1.5s-3.1-0.5-4.2-1.5c-1.1-1-1.6-2.3-1.6-4V42c0-0.4-0.2-0.7-0.5-0.9c-0.2-0.1-0.4-0.1-0.6-0.1h-0.3v-0.2h4.3V41
		h-0.3c-0.3,0-0.6,0.1-0.8,0.3c-0.2,0.2-0.3,0.4-0.3,0.7v8c0,1.5,0.4,2.8,1.2,3.7c0.8,0.9,1.9,1.4,3.2,1.4c1.4,0,2.5-0.4,3.4-1.3
		c0.9-0.9,1.3-2,1.3-3.5v-7c0-2.1,0.5-3.6,1.6-4.6C128.1,37.7,129.5,37.1,131.1,37.1z"/>
	<path class="st6" d="M150,58.8c0.1,0,0.2,0,0.3,0v0.2c-0.4,0.1-0.8,0.1-1.3,0.1c-0.5,0-1.1-0.1-1.8-0.3c-0.7-0.2-1.3-0.6-1.9-1.2
		c-1.2-1.2-1.9-2.7-2.1-4.6l-1.3-9.3l-4.4,9.9c-0.4,0.9-0.6,1.6-0.7,2.1h-0.2l-5.4-11.8l-0.9,10.4c0,0.2,0,0.4,0.2,0.6
		c0.2,0.2,0.4,0.3,0.6,0.3h0.3v0.2h-4.1v-0.2h0.3c0.4,0,0.7-0.1,1-0.3c0.3-0.2,0.5-0.5,0.5-0.9l1.3-11.5c-1.2-2.4-2.7-3.6-4.4-3.6
		c-0.2,0-0.3,0-0.5,0v-0.2c0.4-0.1,0.7-0.1,0.9-0.1c0.2,0,0.5,0,0.8,0c0.3,0,0.6,0.1,1,0.2c0.4,0.1,0.7,0.3,1.1,0.5
		c0.3,0.2,0.6,0.4,0.9,0.7c0.3,0.2,0.5,0.5,0.7,0.8c0.4,0.5,0.7,1,0.9,1.4l5.1,11l5.6-12.7h0.2l2,12.4c0.3,2,0.9,3.4,1.9,4.4
		C147.5,58.3,148.7,58.8,150,58.8z"/>
	<path class="st6" d="M157.1,48.7v-2.6c0-0.4-0.3-0.7-0.7-0.7h-1.3c-0.2,0-0.3,0.1-0.5,0.2c-0.1,0.1-0.2,0.3-0.2,0.5v1.1h-1.3v-1.1
		c0-1.1,0.9-2,2-2h1.3c1.1,0,2,0.9,2,2v9.4h-1.1l-0.2-0.5l-1.5,0.5c-0.2,0.1-0.5,0.1-0.8,0.1c-1.1,0-1.8-0.7-1.8-1.8v-3.1
		c0-1.1,0.9-2,2-2H157.1z M157.1,50H155c-0.3,0-0.7,0.3-0.7,0.7v2.9c0,0.4,0.3,0.6,0.7,0.6c0.1,0,0.1,0,0.2,0l1.9-0.7V50z"/>
	<path class="st6" d="M163.5,47.2v-1.1c0-0.4-0.3-0.7-0.7-0.7h-1c-0.4,0-0.7,0.3-0.7,0.7v7.4c0,0.4,0.3,0.7,0.7,0.7h1
		c0.4,0,0.7-0.3,0.7-0.7v-1.8h1.3v1.8c0,1.1-0.9,2-2,2h-1c-1.1,0-2-0.9-2-2v-7.4c0-1.1,0.9-2,2-2h1c1.1,0,2,0.9,2,2v1.1H163.5z"/>
	<path class="st6" d="M167.6,40.8v3.8l1.2-0.5c0.2-0.1,0.5-0.1,0.7-0.1c1,0,1.9,0.9,1.9,2v9.5h-1.3v-9.6c0-0.4-0.3-0.6-0.6-0.6
		c-0.1,0-0.2,0-0.3,0l-1.6,0.7v9.4h-1.3V40.8H167.6z"/>
	<path class="st6" d="M176.9,48.7v-2.6c0-0.4-0.3-0.7-0.7-0.7H175c-0.2,0-0.3,0.1-0.5,0.2c-0.1,0.1-0.2,0.3-0.2,0.5v1.1h-1.3v-1.1
		c0-1.1,0.9-2,2-2h1.3c1.1,0,2,0.9,2,2v9.4h-1.1l-0.2-0.5l-1.5,0.5c-0.2,0.1-0.5,0.1-0.8,0.1c-1.1,0-1.8-0.7-1.8-1.8v-3.1
		c0-1.1,0.9-2,2-2H176.9z M176.9,50h-2.1c-0.3,0-0.7,0.3-0.7,0.7v2.9c0,0.4,0.3,0.6,0.7,0.6c0.1,0,0.1,0,0.2,0l1.9-0.7V50z"/>
	<path class="st6" d="M181.8,53.5c0,0.4,0.3,0.7,0.7,0.7h0.7v1.3h-0.7c-1.1,0-1.9-0.9-1.9-2v-8h-1.2v-1.3h1.2v-1.7h1.3v1.7h1.4v1.3
		h-1.4V53.5z"/>
	<path class="st6" d="M207.6,59.1c-1.8,0-3.2-0.6-4.4-1.7c-0.8-0.8-1.4-1.9-1.7-3.2c-1.3,1-3,1.5-4.9,1.5c-1.5,0-2.9-0.3-4.2-1
		c-1.3-0.7-2.2-1.6-2.9-2.7c-0.7-1.2-1.1-2.5-1.1-3.9c0-1.5,0.4-2.8,1.1-3.9c0.7-1.2,1.7-2.1,2.9-2.7c1.2-0.6,2.6-1,4.2-1
		c1.9,0,3.6,0.5,5.1,1.4l0.4,3H202c-0.4-1.6-1.4-2.7-2.9-3.3c-0.7-0.3-1.6-0.4-2.5-0.4c-1.9,0-3.5,0.7-4.7,2c-1.3,1.3-1.9,3-1.9,5
		c0,2,0.6,3.7,1.9,5c1.3,1.3,2.8,2,4.7,2c0.9,0,1.8-0.2,2.6-0.5c0.8-0.3,1.5-0.8,2.1-1.3v-3.7c0-0.3-0.1-0.5-0.3-0.7
		c-0.2-0.2-0.4-0.2-0.8-0.2H200v-0.2h4.1v0.2h-0.3c-0.3,0-0.6,0.1-0.8,0.2c-0.2,0.2-0.3,0.4-0.3,0.7v3.2c0.1,2.2,0.8,3.8,2.2,4.7
		c1,0.7,2.2,1,3.7,1c0.6,0,1.3-0.1,2.1-0.2l0,0.2C209.6,58.9,208.5,59.1,207.6,59.1z"/>
	<path class="st6" d="M222.8,59c-0.6,0.2-1.1,0.2-1.6,0.2c-0.5,0-0.9,0-1.2-0.1c-0.3-0.1-0.7-0.2-1.1-0.3c-0.4-0.2-0.8-0.3-1.1-0.6
		c-0.3-0.2-0.7-0.5-1-0.8c-0.6-0.5-1.2-1.1-1.8-1.7c-0.5-0.6-1.5-1.7-3-3.4c-1.5-1.7-2.5-2.8-3-3.3c-0.5-0.5-0.9-0.8-1.1-0.9v-0.2
		c0.8,0,1.4,0,1.6-0.1c0.3,0,0.6-0.1,0.9-0.2c0.3-0.1,0.6-0.2,0.8-0.4c0.8-0.5,1.2-1.4,1.2-2.6c0-1-0.2-1.8-0.7-2.5
		c-0.5-0.6-1.1-0.9-1.9-0.9h-2.6v12.5c0,0.3,0.1,0.7,0.4,0.9c0.3,0.3,0.6,0.4,1,0.4h0.3l0,0.2h-4.6v-0.2h0.3c0.3,0,0.7-0.1,0.9-0.4
		c0.3-0.3,0.4-0.6,0.4-0.9V42.3c0-0.4-0.2-0.7-0.4-0.9c-0.3-0.3-0.6-0.4-0.9-0.4h-0.3v-0.2h5.7c1.2,0,2.2,0.3,3,1
		c0.7,0.7,1.1,1.6,1.1,2.7c0,1.1-0.3,2.1-1,2.9c-0.7,0.8-1.5,1.2-2.5,1.2h0c0.5,0.5,1,1.1,1.6,1.8c2.4,2.7,4,4.4,4.7,5
		c0.7,0.7,1.3,1.2,1.8,1.7c0.5,0.4,1,0.8,1.4,1c0.8,0.4,1.6,0.7,2.5,0.7c0.2,0,0.3,0,0.5,0V59z"/>
	<path class="st6" d="M219.9,45.6c-0.1-0.2-0.1-0.3-0.1-0.5c0-0.1,0-0.3,0-0.5c0-0.2,0-0.4,0.1-0.7c0-0.3,0.1-0.6,0.3-0.9
		c0.1-0.3,0.3-0.6,0.5-0.8c0.2-0.3,0.4-0.5,0.7-0.7c0.3-0.2,0.6-0.4,1-0.6c0.7-0.4,1.6-0.5,2.7-0.5c2.1,0,3.9,0.7,5.2,2.1
		c1.4,1.4,2,3.2,2,5.4c0,2.2-0.8,4-2.4,5.5c-1.6,1.5-3.6,2.2-6.1,2.2c-2.4,0-4.5-0.7-6.1-2.2c-1.6-1.5-2.4-3.3-2.4-5.7
		c0-1.5,0.3-2.8,1-4c0.7-1.2,1.7-2.1,3-2.7l0.1,0.2c-0.9,0.6-1.6,1.5-2,2.6c-0.4,1.1-0.6,2.3-0.6,3.6c0,2.4,0.6,4.2,1.9,5.5
		c1.3,1.3,2.9,2,5,2c2,0,3.7-0.7,4.9-2c1.3-1.3,1.9-3.1,1.9-5.3c0-1.9-0.5-3.5-1.5-4.8c-1-1.3-2.4-2-4.3-2c-0.8,0-1.6,0.1-2.2,0.4
		c-1.2,0.5-2,1.4-2.4,2.6c-0.1,0.3-0.2,0.7-0.2,0.9s0,0.5,0,0.6L219.9,45.6z"/>
	<path class="st6" d="M250.6,37.1c0.1,0,0.2,0,0.4,0v0.2c-1.5,0-2.8,0.5-3.7,1.5c-0.9,1-1.3,2.5-1.3,4.4v7c0,1.6-0.5,3-1.6,4
		c-1,1-2.4,1.5-4.1,1.5c-1.7,0-3.1-0.5-4.2-1.5c-1.1-1-1.6-2.3-1.6-4V42c0-0.4-0.2-0.7-0.5-0.9c-0.2-0.1-0.4-0.1-0.6-0.1H233v-0.2
		h4.3V41H237c-0.3,0-0.6,0.1-0.8,0.3c-0.2,0.2-0.3,0.4-0.3,0.7v8c0,1.5,0.4,2.8,1.2,3.7c0.8,0.9,1.9,1.4,3.2,1.4
		c1.4,0,2.5-0.4,3.4-1.3c0.9-0.9,1.3-2,1.3-3.5v-7c0-2.1,0.5-3.6,1.6-4.6C247.6,37.7,248.9,37.1,250.6,37.1z"/>
	<path class="st6" d="M254,40.4c1.2,0,2.2,0.3,3,0.9c1.1,0.8,1.6,2,1.6,3.7c0,1.2-0.3,2.2-1,3.1c-0.7,0.9-1.7,1.4-3,1.4
		c-0.7,0-1.3-0.2-1.9-0.5c-0.6-0.3-0.9-0.9-1-1.7l0.2-0.1c0.2,0.6,0.5,1,1.1,1.3c0.4,0.2,0.7,0.3,1,0.3c1.1,0,2-0.4,2.5-1.3
		c0.4-0.7,0.6-1.4,0.6-2.4c0-1.5-0.4-2.5-1.2-3.1c-0.6-0.5-1.4-0.8-2.4-0.8c-0.2,0-0.4,0-0.6,0c-0.2,0-0.9,0.1-2.1,0.3v12.4
		c0,0.4,0.2,0.7,0.4,0.9c0.3,0.3,0.6,0.4,0.9,0.4h0.3v0.2h-4.6v-0.2h0.3c0.3,0,0.7-0.1,0.9-0.4c0.3-0.3,0.4-0.6,0.4-0.9V42.6
		c0-0.4-0.1-0.6-0.3-0.9c-0.2-0.2-0.5-0.3-0.8-0.3c-0.1,0-0.1,0-0.2,0l-0.3,0l0-0.2c0.7-0.1,1.7-0.2,2.9-0.4c1.2-0.2,2-0.3,2.3-0.4
		C253.3,40.4,253.6,40.4,254,40.4z"/>
	<path class="st6" d="M259.4,55.2c0.4,0,0.7-0.1,0.9-0.4c0.3-0.3,0.4-0.6,0.4-0.9V42.2c0-0.3-0.1-0.6-0.4-0.9
		c-0.3-0.2-0.6-0.3-0.9-0.3h-0.3l0-0.2h4.3c0.6,0,1.1,0,1.6-0.1c0.5-0.1,0.8-0.2,0.9-0.2V43h-0.2v-0.4c0-0.3-0.1-0.6-0.3-0.9
		c-0.2-0.2-0.5-0.4-0.8-0.4h-2.4v6.5h4c0.3,0,0.5-0.1,0.7-0.3c0.2-0.2,0.3-0.4,0.3-0.7v-0.3h0.2v3.3h-0.2v-0.3
		c0-0.3-0.1-0.5-0.3-0.7c-0.2-0.2-0.4-0.3-0.7-0.3h-4v6.3h4.5c1,0,1.8-0.2,2.4-0.7c0.5-0.5,1-1.1,1.4-2.1h0.2l-1.2,3.4h-10.2v-0.2
		H259.4z M263.1,39.4l-0.1-0.1c1.1-1.1,2-2.1,2.7-2.7c0.4,0.4,0.7,0.7,0.9,1.1C265.6,38.1,264.5,38.7,263.1,39.4z"/>
</g>
</svg>
