<svg id="Layer_4" data-name="Layer 4" xmlns="http://www.w3.org/2000/svg" viewBox="0 0 1236.85 265.98"><defs><style>.cls-1{fill:#fea500;}.cls-2{fill:#7f47dd;}.cls-3{fill:#ffc704;}.cls-4{fill:#ff1400;}.cls-5{fill:#4f4fff;}.cls-6{fill:#f26b62;}.cls-7{fill:#181818;}</style></defs><title>lOGO</title><circle class="cls-1" cx="1325.32" cy="805.85" r="12.63" transform="translate(-428.55 -565.36) rotate(-8.16)"/><path class="cls-1" d="M1351,863.35a43.64,43.64,0,0,1,8.2-45.68h0a2.72,2.72,0,0,0-3.08-4.33l-7.24,3.11a58,58,0,0,1-47.62-.8h0a2.72,2.72,0,0,0-3.3,4.14l3.25,4.14a43.64,43.64,0,0,1,9,31.86l-2.67,23.47a2.72,2.72,0,0,0,4.38,2.45,31.74,31.74,0,0,1,34.54-3l7.08,3.79a2.72,2.72,0,0,0,3.81-3.41Z" transform="translate(-327.57 -761.65)"/><path class="cls-2" d="M1354.84,883.87a3.73,3.73,0,0,1-1.77-.45l-7.08-3.79a30.75,30.75,0,0,0-33.46,2.88,3.72,3.72,0,0,1-6-3.35l2.67-23.47a42.4,42.4,0,0,0-8.81-31.13l-3.25-4.14a3.72,3.72,0,0,1,4.51-5.66,57,57,0,0,0,46.79.78l7.24-3.11a3.72,3.72,0,0,1,4.22,5.92,42.88,42.88,0,0,0-8,44.63l6.36,15.78a3.73,3.73,0,0,1-3.44,5.12ZM1331.48,874a32.69,32.69,0,0,1,15.46,3.88l7.08,3.79a1.72,1.72,0,0,0,2.41-2.16l-6.36-15.78a44.89,44.89,0,0,1,8.38-46.73,1.72,1.72,0,0,0-1.95-2.73l-7.24,3.11a59.05,59.05,0,0,1-48.44-.81,1.72,1.72,0,0,0-2.08,2.62l3.25,4.14a44.38,44.38,0,0,1,9.23,32.59l-2.67,23.47a1.72,1.72,0,0,0,2.77,1.55A32.73,32.73,0,0,1,1331.48,874Z" transform="translate(-327.57 -761.65)"/><circle class="cls-3" cx="1436.44" cy="817.55" r="14.63" transform="translate(-429.08 -549.47) rotate(-8.16)"/><path class="cls-3" d="M1473.12,818.72l-2.44,1.91a83.14,83.14,0,0,1-63.29,16.79,1.85,1.85,0,0,0-.74,3.59h0a38.15,38.15,0,0,1,24.9,40.7l-1.87,14.69a1.85,1.85,0,0,0,3.35,1.3l1.68-2.38a30.49,30.49,0,0,1,41.29-8.12,1.85,1.85,0,0,0,2.63-2.42L1469.28,867a38.15,38.15,0,0,1,1.89-38.72l4.66-7.1A1.85,1.85,0,0,0,1473.12,818.72Z" transform="translate(-327.57 -761.65)"/><circle class="cls-4" cx="1208.44" cy="830.53" r="12.12" transform="translate(-433.23 -581.7) rotate(-8.16)"/><path class="cls-5" d="M1208.42,843.66a13.14,13.14,0,1,1,1.89-.14h0A13.29,13.29,0,0,1,1208.42,843.66Zm0-24.25a11.22,11.22,0,0,0-1.59.11,11.12,11.12,0,1,0,1.59-.11Z" transform="translate(-327.57 -761.65)"/><path class="cls-4" d="M1238.62,835.93l-7.4,3.74a63.5,63.5,0,0,1-44.52,4.83,3.11,3.11,0,0,0-2.74,5.41l3.6,2.95a37.73,37.73,0,0,1,13.82,28.47l.31,16.21a3.11,3.11,0,0,0,5.17,2.26,22.87,22.87,0,0,1,24.18-3.92l12.07,5.17a3.11,3.11,0,0,0,4-4.25l-8.29-16.56a37.73,37.73,0,0,1,3.66-39.67h0A3.11,3.11,0,0,0,1238.62,835.93Z" transform="translate(-327.57 -761.65)"/><polygon points="134.36 45.72 122.2 45.72 122.2 23.45 116.8 23.45 116.8 7.57 122.2 7.57 122.2 1.51 82.51 1.51 82.51 45.72 73.6 45.72 73.6 54.85 134.36 54.85 134.36 45.72"/><path class="cls-4" d="M418.35,929.41a32.29,32.29,0,0,0-3.81-3.36,117.82,117.82,0,0,1,.13-36.59c2.62-15.33,7.49-30.16,12.34-45a44.05,44.05,0,0,0-6.47.11c-5,15-9.92,30.15-12.11,45.77a129.55,129.55,0,0,0-.38,31.89c-21.28-9.16-48.06,7.14-48.06,7.14a71.55,71.55,0,0,0,43.62,65.88h55.87a71.55,71.55,0,0,0,43.62-65.88S440,951.79,418.35,929.41Z" transform="translate(-327.57 -761.65)"/><path d="M431.54,819.19a104,104,0,0,0-40.6,199.73l1.9.81h77.41l1.91-.81a104,104,0,0,0-40.62-199.73Zm34.54,180.28H397a83.72,83.72,0,0,1,25-159.46l6.58-.48c1,0,1.94-.06,2.9-.06a83.73,83.73,0,0,1,34.54,160Z" transform="translate(-327.57 -761.65)"/><path class="cls-6" d="M459.15,781.88a35.29,35.29,0,0,1,9.16-4,55.25,55.25,0,0,1,9.86-1.85,73.82,73.82,0,0,1,10-.27c1.67.12,3.35.17,5,.39l2.5.28,2.49.39c13.27,2.21,25.91,7.21,37.78,13.39,3,1.5,5.88,3.21,8.8,4.86s5.73,3.47,8.5,5.35,5.54,3.76,8.28,5.69l4.06,2.86c1.36.93,2.73,1.85,4.12,2.73a110.92,110.92,0,0,0,36.11,15.32,91,91,0,0,0,19.5,2.13,82.55,82.55,0,0,0,19.44-2.35A72.34,72.34,0,0,0,663,819.73a61.49,61.49,0,0,0,8.12-5.44,49.92,49.92,0,0,0,7.07-6.71c4.23-4.89,7.51-10.79,8.35-17.18a22.58,22.58,0,0,0-.75-9.52,34.29,34.29,0,0,0-3.86-8.94,20.23,20.23,0,0,0-6.75-6.81,17.68,17.68,0,0,0-4.45-1.91,22.32,22.32,0,0,0-2.38-.54c-.81-.09-1.62-.22-2.44-.23a26.09,26.09,0,0,0-4.92.21,34.45,34.45,0,0,0-4.86,1,43.14,43.14,0,0,0-9.25,3.66c5.72-3.35,12.25-5.69,19-5.65.85,0,1.69.09,2.54.16a23.27,23.27,0,0,1,2.51.48,18.73,18.73,0,0,1,4.77,1.86,21.53,21.53,0,0,1,7.42,7,35.21,35.21,0,0,1,4.24,9.25,24.4,24.4,0,0,1,1,10.23c-.77,6.91-4.14,13.22-8.47,18.45A57.26,57.26,0,0,1,664.32,822a75.06,75.06,0,0,1-18.82,7.58,88.25,88.25,0,0,1-40.27.39,112.9,112.9,0,0,1-37-15.87c-1.41-.92-2.8-1.87-4.18-2.83L560,808.34c-2.69-1.94-5.36-3.9-8.13-5.71-5.48-3.72-11.12-7.2-16.93-10.37-11.59-6.35-24-11.51-37-14l-2.43-.47-2.45-.36c-1.63-.27-3.28-.37-4.93-.55a72.86,72.86,0,0,0-9.91-.06,55.31,55.31,0,0,0-9.81,1.5A35.08,35.08,0,0,0,459.15,781.88Z" transform="translate(-327.57 -761.65)"/><path class="cls-7" d="M603,910.49q11.56,0,19.27,5.58,10.36,7.44,10.36,23.25,0,11.43-6.38,19.53-6.91,8.64-19.27,8.64a22.9,22.9,0,0,1-11.83-3.12q-5.32-3.12-6.25-10.7l1.2-.4a11.22,11.22,0,0,0,6.78,8,16,16,0,0,0,6.38,1.59q10.89,0,15.81-8.5a29.38,29.38,0,0,0,3.59-14.88q0-13.82-7.71-19.93-5.85-4.78-14.88-4.78a28.76,28.76,0,0,0-3.65.2q-1.53.2-13.35,2.19v78.79a8.34,8.34,0,0,0,2.66,6,8.24,8.24,0,0,0,5.85,2.39h1.73v1.33h-29.1v-1.33h1.73a8.25,8.25,0,0,0,5.85-2.39,8.35,8.35,0,0,0,2.66-6V924a6.76,6.76,0,0,0-7.17-7.31,6.88,6.88,0,0,0-1.33.13l-1.59.13-.27-1.33q6.91-.66,18.54-2.59T597,910.83A50.92,50.92,0,0,1,603,910.49Z" transform="translate(-327.57 -761.65)"/><path class="cls-7" d="M640.67,931.19a33,33,0,0,1,12.68-2.74q5.07,0,10.45,3.75,2.94,2,6.59,7.91,2.43,4.06,6.19,14.7l12.37,35.09a97.44,97.44,0,0,0,8.67,18.71,57.19,57.19,0,0,0,8.06,10.45,21.67,21.67,0,0,0,7.61,4.92,20.28,20.28,0,0,0,6.54,1.42,23.75,23.75,0,0,0,4.61-.41l.1,1a30.08,30.08,0,0,1-9.53,1.62,20.35,20.35,0,0,1-9.33-2.38,32.46,32.46,0,0,1-8.72-6.64q-8.72-8.82-14.81-26.87l-4-11.56H650.41l-7,18.05a6.27,6.27,0,0,0-.51,2.43,4.3,4.3,0,0,0,1.07,2.59,3.91,3.91,0,0,0,3.3,1.37h.81v1H627.69v-1h.91a8.84,8.84,0,0,0,4.77-1.47,11,11,0,0,0,3.85-4.41l25.15-60.24q-5.48-7.81-13.59-7.81a22.78,22.78,0,0,0-7.81,1.52Zm10.85,45.94h25.66l-8-23.63a91.07,91.07,0,0,0-4.26-10.65Z" transform="translate(-327.57 -761.65)"/><path class="cls-7" d="M787.31,1022.87a30.28,30.28,0,0,1-7.56,1.12,37.36,37.36,0,0,1-5.83-.41,25.36,25.36,0,0,1-5.43-1.57,38.59,38.59,0,0,1-5.43-2.69,34.92,34.92,0,0,1-5.07-3.75,66.58,66.58,0,0,1-8.47-8.11q-3.8-4.36-14.65-16.38t-14.4-16q-3.55-4-5.48-4.16v-1a76.48,76.48,0,0,0,7.86-.25,26.82,26.82,0,0,0,4.21-.91,12.07,12.07,0,0,0,3.75-1.77q6-3.85,6-12.78,0-7.4-3.29-11.87a11.12,11.12,0,0,0-9.28-4.56H711.66v60.44a6.49,6.49,0,0,0,6.49,6.39h1.22l.1,1H697.26v-1h1.32a6.59,6.59,0,0,0,6.49-6.29V942a6.54,6.54,0,0,0-2-4.51,6.16,6.16,0,0,0-4.51-1.88h-1.32v-1h27.38q8.92,0,14.35,5t5.43,13.28a21.39,21.39,0,0,1-5,14.2,15.3,15.3,0,0,1-12.17,5.93h-.1q3.45,3.65,7.81,8.52,17.54,19.37,22.51,24.34t8.77,8.16a38.28,38.28,0,0,0,6.74,4.72,24.73,24.73,0,0,0,11.87,3.25,14.89,14.89,0,0,0,2.43-.2Z" transform="translate(-327.57 -761.65)"/><path class="cls-7" d="M807.39,977.13a4.79,4.79,0,0,0-1.37-3.45,4.89,4.89,0,0,0-3.4-1.52H770.17v26.06a6.07,6.07,0,0,0,1.93,4.51,6.31,6.31,0,0,0,4.56,1.88H778v1H755.77v-1h1.32a6.15,6.15,0,0,0,4.51-1.88,6.53,6.53,0,0,0,2-4.51V941.44a5.18,5.18,0,0,0-2-4.11,6.79,6.79,0,0,0-4.51-1.67h-1.22l-.1-1h29.71a37.36,37.36,0,0,0,7.71-.71,33.17,33.17,0,0,0,4.36-1.12v11.46h-1v-1.52a4.87,4.87,0,0,0-1.42-3.5,4.74,4.74,0,0,0-3.55-1.47h-21.4v31.34h32.35A5.06,5.06,0,0,0,806,967.6a4.82,4.82,0,0,0,1.42-3.55v-1.42h1v16h-1Z" transform="translate(-327.57 -761.65)"/><path class="cls-7" d="M890.75,917.2h1.72v1q-11.16,0-17.65,7.35t-6.49,21.25v33.77q0,11.87-7.5,19.17t-20,7.3q-12.47,0-20.23-7.25t-7.76-19.12V940.62a4.65,4.65,0,0,0-2.64-4.36,6,6,0,0,0-2.74-.61h-1.62v-1h20.59v1h-1.62a5.4,5.4,0,0,0-3.75,1.37,4.82,4.82,0,0,0-1.62,3.5v38.74q0,11.06,5.93,17.8T841,1003.8q10.24,0,16.43-6.39t6.19-16.83V946.91q0-14.91,7.56-22.31T890.75,917.2Z" transform="translate(-327.57 -761.65)"/><path class="cls-7" d="M982.12,1022.06h1.22v1a45.21,45.21,0,0,1-6.34.41,31.29,31.29,0,0,1-8.62-1.52,21.84,21.84,0,0,1-9.28-5.68q-8.52-8.52-10.34-22.11L942.57,949,921.48,996.7A39.87,39.87,0,0,0,918,1007h-1L890.75,950l-4.46,50.4a3.6,3.6,0,0,0,1.06,3,3.81,3.81,0,0,0,2.79,1.32h1.62v.91H872.09v-1h1.62a7.46,7.46,0,0,0,4.82-1.67,7.14,7.14,0,0,0,2.59-4.41l6.39-55.37q-8.93-17.54-21.4-17.54-1.11,0-2.33.1v-1a18.67,18.67,0,0,1,4.46-.71c1.15,0,2.4.05,3.75.15a23.37,23.37,0,0,1,4.77,1,20,20,0,0,1,5.17,2.38,32,32,0,0,1,4.26,3.25,32.93,32.93,0,0,1,3.45,3.7,43.24,43.24,0,0,1,4.36,7l24.44,52.94,27.28-61.15h.91l9.43,60q2.13,14.2,9.18,21.5A22.64,22.64,0,0,0,982.12,1022.06Z" transform="translate(-327.57 -761.65)"/><path class="cls-7" d="M1016.1,973.18V960.4a3.16,3.16,0,0,0-3.14-3.14h-6.08a3,3,0,0,0-2.23.91,2.83,2.83,0,0,0-.91,2.23v5.27h-6.29V960.3a9.5,9.5,0,0,1,9.53-9.43h6.08a9.54,9.54,0,0,1,9.43,9.43v45.33h-5.27l-1-2.43-7.2,2.33a15.27,15.27,0,0,1-3.65.61c-5.38,0-8.92-3.55-8.92-8.52v-15a9.54,9.54,0,0,1,9.43-9.43Zm0,6.29h-10.24a3.38,3.38,0,0,0-3.14,3.14v14.2a3.07,3.07,0,0,0,3.14,3,4.54,4.54,0,0,0,1.12-.1l9.13-3.14Z" transform="translate(-327.57 -761.65)"/><path class="cls-7" d="M1047.13,965.67V960.4a3.16,3.16,0,0,0-3.14-3.14h-5a3.16,3.16,0,0,0-3.14,3.14v35.8a3.16,3.16,0,0,0,3.14,3.14h5a3.16,3.16,0,0,0,3.14-3.14v-8.62h6.29v8.62a9.41,9.41,0,0,1-9.43,9.43h-5a9.48,9.48,0,0,1-9.43-9.43V960.4a9.5,9.5,0,0,1,9.43-9.53h5a9.44,9.44,0,0,1,9.43,9.53v5.27Z" transform="translate(-327.57 -761.65)"/><path class="cls-7" d="M1066.8,934.64V953.2l5.88-2.33a12,12,0,0,1,3.25-.51,9.46,9.46,0,0,1,9.33,9.43v45.84H1079V959.39a2.8,2.8,0,0,0-3-2.74,5.1,5.1,0,0,0-1.22.2L1066.8,960v45.63h-6.29v-71Z" transform="translate(-327.57 -761.65)"/><path class="cls-7" d="M1112,973.18V960.4a3.16,3.16,0,0,0-3.14-3.14h-6.08a3,3,0,0,0-2.23.91,2.83,2.83,0,0,0-.91,2.23v5.27h-6.29V960.3a9.5,9.5,0,0,1,9.53-9.43H1109a9.54,9.54,0,0,1,9.43,9.43v45.33h-5.27l-1-2.43-7.2,2.33a15.27,15.27,0,0,1-3.65.61c-5.37,0-8.92-3.55-8.92-8.52v-15a9.54,9.54,0,0,1,9.43-9.43Zm0,6.29h-10.24a3.38,3.38,0,0,0-3.14,3.14v14.2a3.07,3.07,0,0,0,3.14,3,4.54,4.54,0,0,0,1.12-.1l9.13-3.14Z" transform="translate(-327.57 -761.65)"/><path class="cls-7" d="M1135.46,996.2a3.16,3.16,0,0,0,3.14,3.14H1142v6.29h-3.55a9.54,9.54,0,0,1-9.33-9.53V957.26h-5.68v-6.39h5.58v-8.42h6.39v8.42H1142v6.39h-6.59Z" transform="translate(-327.57 -761.65)"/><path class="cls-7" d="M1260.09,1023.27q-12.88,0-21.09-8.21a29.67,29.67,0,0,1-8-15.31q-9.64,7.3-23.63,7.3a42.25,42.25,0,0,1-20.13-4.82A36.92,36.92,0,0,1,1173,951a34.91,34.91,0,0,1,14.15-13.13,43.3,43.3,0,0,1,20.18-4.66,44.32,44.32,0,0,1,24.64,6.9l2,14.3h-.91q-3-11.76-13.79-16a31.73,31.73,0,0,0-12-2.13,30.13,30.13,0,0,0-22.77,9.53q-9.08,9.53-9.08,24.19t9.13,24.29a30.34,30.34,0,0,0,22.72,9.74,34.29,34.29,0,0,0,12.57-2.33,30.1,30.1,0,0,0,10.24-6.49v-18a4.3,4.3,0,0,0-1.32-3.4,5.49,5.49,0,0,0-3.75-1.17h-1.62v-1h19.88v1h-1.52a5.65,5.65,0,0,0-3.85,1.17,4,4,0,0,0-1.22,3.4v15.62q.61,16,10.45,22.92,6.9,4.87,17.85,4.87a59.68,59.68,0,0,0,9.94-.91l.1,1A50.62,50.62,0,0,1,1260.09,1023.27Z" transform="translate(-327.57 -761.65)"/><path class="cls-7" d="M1333.61,1022.87a30.28,30.28,0,0,1-7.56,1.12,37.36,37.36,0,0,1-5.83-.41,25.36,25.36,0,0,1-5.43-1.57,38.59,38.59,0,0,1-5.43-2.69,34.92,34.92,0,0,1-5.07-3.75,66.58,66.58,0,0,1-8.47-8.11q-3.8-4.36-14.65-16.38t-14.4-16q-3.55-4-5.48-4.16v-1a76.48,76.48,0,0,0,7.86-.25,26.82,26.82,0,0,0,4.21-.91,12.07,12.07,0,0,0,3.75-1.77q6-3.85,6-12.78,0-7.4-3.29-11.87a11.12,11.12,0,0,0-9.28-4.56H1258v60.44a6.49,6.49,0,0,0,6.49,6.39h1.22l.1,1h-22.21v-1h1.32a6.59,6.59,0,0,0,6.49-6.29V942a6.54,6.54,0,0,0-2-4.51,6.16,6.16,0,0,0-4.51-1.88h-1.32v-1h27.38q8.92,0,14.35,5t5.43,13.28a21.39,21.39,0,0,1-5,14.2,15.3,15.3,0,0,1-12.17,5.93h-.1q3.45,3.65,7.81,8.52,17.54,19.37,22.51,24.34t8.77,8.16a38.28,38.28,0,0,0,6.74,4.72,24.73,24.73,0,0,0,11.87,3.25,14.89,14.89,0,0,0,2.43-.2Z" transform="translate(-327.57 -761.65)"/><path class="cls-7" d="M1319.52,958.27a7.92,7.92,0,0,1-.41-2.28q0-1,.1-2.18t.46-3.35a15.29,15.29,0,0,1,1.37-4.21,31.66,31.66,0,0,1,2.33-4,16,16,0,0,1,3.4-3.55,25.17,25.17,0,0,1,4.61-2.84,29.5,29.5,0,0,1,13.08-2.64q15.52,0,25.3,10.29t9.79,26.32A34.58,34.58,0,0,1,1368,996.45q-11.56,10.6-29.31,10.6t-29.46-10.55q-11.71-10.55-11.71-27.38a36.59,36.59,0,0,1,5.07-19.27,34.78,34.78,0,0,1,14.5-13.18l.61.91a24.16,24.16,0,0,0-9.48,12.58,52.18,52.18,0,0,0-2.89,17.44q0,17.14,9.33,26.77t23.93,9.63q14.6,0,23.88-9.69t9.28-25.5q0-13.69-7.35-23.12t-20.74-9.43a26.79,26.79,0,0,0-10.85,2.13,19.75,19.75,0,0,0-11.66,12.37,14.65,14.65,0,0,0-.81,4.36,16.93,16.93,0,0,0,.2,2.94Z" transform="translate(-327.57 -761.65)"/><path class="cls-7" d="M1468,917.2h1.72v1q-11.16,0-17.65,7.35t-6.49,21.25v33.77q0,11.87-7.5,19.17t-20,7.3q-12.47,0-20.23-7.25t-7.76-19.12V940.62a4.65,4.65,0,0,0-2.64-4.36,6,6,0,0,0-2.74-.61h-1.62v-1h20.59v1h-1.62a5.4,5.4,0,0,0-3.75,1.37,4.82,4.82,0,0,0-1.62,3.5v38.74q0,11.06,5.93,17.8t15.57,6.74q10.24,0,16.43-6.39t6.19-16.83V946.91q0-14.91,7.56-22.31T1468,917.2Z" transform="translate(-327.57 -761.65)"/><path class="cls-7" d="M1484.21,933q8.82,0,14.7,4.26,7.91,5.68,7.91,17.75a23.37,23.37,0,0,1-4.87,14.91q-5.27,6.59-14.71,6.59a17.48,17.48,0,0,1-9-2.38q-4.06-2.38-4.77-8.16l.91-.3a8.56,8.56,0,0,0,5.17,6.08,12.21,12.21,0,0,0,4.87,1.22q8.31,0,12.07-6.49a22.42,22.42,0,0,0,2.74-11.36q0-10.55-5.88-15.21a17.36,17.36,0,0,0-11.36-3.65,21.9,21.9,0,0,0-2.79.15q-1.17.15-10.19,1.67v60.14a6.36,6.36,0,0,0,2,4.56,6.29,6.29,0,0,0,4.46,1.83h1.32v1H1454.6v-1h1.32a6.3,6.3,0,0,0,4.46-1.83,6.38,6.38,0,0,0,2-4.56V943.36a5.16,5.16,0,0,0-5.48-5.58,5.23,5.23,0,0,0-1,.1l-1.22.1-.2-1q5.27-.51,14.15-2t11-1.72A38.89,38.89,0,0,1,1484.21,933Z" transform="translate(-327.57 -761.65)"/><path class="cls-7" d="M1510.68,1004.61a6.15,6.15,0,0,0,4.51-1.88,6.53,6.53,0,0,0,2-4.51V941.44a5.24,5.24,0,0,0-1.93-4.11,6.74,6.74,0,0,0-4.56-1.67h-1.22l-.1-1h20.59a38.12,38.12,0,0,0,7.76-.71,27.75,27.75,0,0,0,4.31-1.12v12.78h-1v-1.83a6,6,0,0,0-5.68-6h-11.56v31.34H1543a5.07,5.07,0,0,0,3.45-1.52,4.82,4.82,0,0,0,1.42-3.55v-1.42h1v16h-1v-1.52a4.79,4.79,0,0,0-1.37-3.45,4.89,4.89,0,0,0-3.4-1.52h-19.37v30.32h21.6q7.5,0,11.46-3.35a24.79,24.79,0,0,0,6.59-9.94h1l-5.88,16.43h-49.18v-1Zm17.75-76.46-.71-.71q7.71-8.31,12.88-13.28a23.6,23.6,0,0,1,4.16,5.37Q1538.26,923.28,1528.43,928.15Z" transform="translate(-327.57 -761.65)"/></svg>