<?xml version="1.0" encoding="utf-8"?>
<!-- Generator: Adobe Illustrator 21.0.0, SVG Export Plug-In . SVG Version: 6.00 Build 0)  -->
<svg version="1.1" xmlns="http://www.w3.org/2000/svg" xmlns:xlink="http://www.w3.org/1999/xlink" x="0px" y="0px"
	 viewBox="0 0 1892 1753" style="enable-background:new 0 0 1892 1753;" xml:space="preserve">
<style type="text/css">
	.st0{display:none;}
	.st1{display:inline;}
	.st2{fill:#181818;}
	.st3{fill:#FFD234;}
	.st4{fill:#3CC1F1;}
	.st5{fill:#F26B62;}
	.st6{fill:#FEA500;}
	.st7{fill:#FFC704;}
	.st8{fill:#FF1400;}
	.st9{fill:#232323;}
	.st10{font-family:'Deutschlander';}
	.st11{font-size:171.7005px;}
	.st12{letter-spacing:8;}
	.st13{font-size:93.8164px;}
	.st14{letter-spacing:4;}
	.st15{fill:#015581;}
	.st16{fill:#F1B80F;}
	.st17{fill:#81C176;}
	.st18{fill:#C8429A;}
</style>
<g id="Layer_3" class="st0">
	<g class="st1">
		<g>
			<g>
				<path class="st2" d="M390.6,1125.7c3.6-1.1,6.6-0.2,9,2.7c3.2,3.9,4.8,11.2,4.8,21.3c0,7.4-1,13.8-3,18.9c-2.1,5.5-5.1,8-9,7.8
					c-2-0.1-3.9-1.1-5.5-3c-1.7-1.8-2.6-4.9-2.9-9.1c0.2-0.1,0.3-0.2,0.6-0.4c0.5,3.2,1.5,5.5,3.2,6.8c1.1,0.9,2.1,1.4,3,1.4
					c3.4,0.1,5.9-2.5,7.4-7.8c1.1-3.9,1.7-8.6,1.7-14.1c0-8.7-1.2-14.8-3.6-18c-1.8-2.5-4.1-3.3-6.9-2.6c-0.7,0.2-1.2,0.4-1.7,0.6
					c-0.5,0.2-2.6,1.5-6.2,3.6c0,21.8,0,43.6,0,65.4c0,2,0.5,3.8,1.2,5.3c0.8,1.6,1.7,2.5,2.7,2.8c0.3,0.1,0.5,0.1,0.8,0.2
					c0,0.5,0,0.7,0,1.1c-5.4-1.6-8.1-2.4-13.6-4.2c0-0.4,0-0.6,0-1c0.3,0.1,0.5,0.2,0.8,0.3c1,0.3,1.9,0,2.7-1.1
					c0.8-1,1.2-2.5,1.2-4.4c0-19.2,0-38.5,0-57.7c0-1.8-0.3-3.2-0.9-4.1c-0.6-0.8-1.4-1.1-2.4-0.8c-0.2,0.1-0.4,0.2-0.6,0.3
					c-0.3,0.1-0.4,0.2-0.7,0.3c0-0.4-0.1-0.6-0.1-1c2.1-1,5-2.6,8.6-4.8c3.6-2.2,5.9-3.5,6.7-4
					C388.7,1126.4,389.6,1126,390.6,1125.7z"/>
				<path class="st2" d="M409.8,1118.2c2.7-3,5.3-4.9,7.7-5.5c2.1-0.5,4.2,0.7,6.4,3.7c1.2,1.6,2.5,5,4,10.3
					c1,3.6,2.3,10.4,3.8,20.3c2.6,16.8,5.1,33.7,7.6,50.5c1.3,9.3,3,18.8,5.3,28c1.8,7.1,3.4,12.5,4.9,16.3c1.5,3.7,3,6.5,4.6,8.2
					c1.6,1.7,2.9,2.6,4,2.8c1.1,0.2,2,0.1,2.8-0.2c0,0.6,0,0.9,0.1,1.6c-2,1.4-3.9,1.9-5.8,1.5c-1.9-0.3-3.8-1.9-5.7-4.6
					c-1.9-2.7-3.7-6.4-5.3-10.8c-4.8-13-6.9-26.7-9.1-40.4c-1-6.7-1.5-10.1-2.4-16.7c-6.8-0.3-10.2-0.5-17-0.8
					c-1.7,9.6-2.6,14.2-4.3,23.4c-0.2,1-0.3,2.1-0.3,3.1c0,1.1,0.2,2.2,0.7,3.5c0.4,1.3,1.1,2,2,2.2c0.2,0,0.3,0.1,0.5,0.1
					c0,0.5,0,0.8,0,1.3c-5-1-7.5-1.6-12.5-2.8c0-0.5,0-0.8,0-1.3c0.2,0.1,0.3,0.1,0.6,0.1c1,0.2,2-0.2,2.9-1.2c1-1,1.7-2.8,2.4-5.2
					c5.5-26.7,10.5-53.6,15.4-80.5c-2.2-6.8-5-9.7-8.3-8.9c-1.5,0.4-3.1,1.4-4.8,3.2C409.9,1119,409.9,1118.7,409.8,1118.2z
					 M416.4,1178.2c6.3,0.2,9.4,0.3,15.7,0.5c-1.6-11.1-3.2-22.1-4.9-33.2c-1-6.3-1.8-11.1-2.6-14.5
					C422,1146.7,419.2,1162.5,416.4,1178.2z"/>
				<path class="st2" d="M504.1,1252.4c-1.7,1.2-3.3,1.7-4.6,1.7c-1.3,0-2.5-0.3-3.6-0.7c-1-0.5-2.1-1.3-3.3-2.6
					c-1.2-1.3-2.3-2.7-3.3-4.4c-1-1.7-2.1-3.7-3.1-6.1c-1.9-4-3.6-8.4-5.2-13c-1.5-4.6-4.5-13.4-9-26c-4.4-12.6-7.4-20.9-8.8-24.9
					c-1.4-4.1-2.6-6.2-3.3-6.4c0-0.6,0-0.9,0-1.5c2.4,0,4-0.1,4.8-0.4c0.8-0.3,1.7-0.7,2.6-1.4c0.9-0.7,1.7-1.6,2.3-2.8
					c2.4-4,3.7-10.7,3.7-19.9c0-7.7-0.7-13.8-2-18.4c-1.3-4.5-3.2-6.8-5.7-6.7c-3.1,0.2-4.6,0.4-7.7,0.7c0,30.6,0,61.2,0,91.8
					c0,2.6,0.4,4.9,1.1,6.9c0.8,2,1.7,3.1,2.8,3.2c0.3,0,0.4,0,0.7,0.1c0,0.6,0,0.9,0.1,1.6c-5.4-0.5-8.1-0.8-13.6-1.4
					c0-0.6,0-0.9,0-1.5c0.3,0,0.5,0.1,0.8,0.1c1,0.1,1.9-0.7,2.7-2.4c0.8-1.7,1.2-4,1.2-6.6c0-28.3,0-56.6,0-84.8
					c0-2.6-0.4-4.9-1.2-6.7c-0.8-1.8-1.7-2.6-2.8-2.5c-0.3,0-0.5,0.1-0.8,0.1c0-0.6,0-0.9,0-1.5c6.7-0.8,10-1.2,16.7-1.8
					c3.6-0.3,6.6,2.1,8.8,7.1c2.2,5.1,3.3,12,3.3,20.6c0,8.6-1,16.1-3,22.2c-2,6.2-4.5,9.2-7.4,9.2c0,0,0,0-0.1,0
					c1.4,3.8,3,8.2,4.8,13.3c4.5,12.9,9,25.9,13.8,38.6c2,5.3,3.8,9.7,5.4,13.1c1.5,3.4,2.9,6,4.1,7.6c2.4,3.5,4.9,5.3,7.3,5.3
					c0.5,0,1-0.1,1.5-0.3C504.1,1251.5,504.1,1251.8,504.1,1252.4z"/>
				<path class="st2" d="M521,1179.7c0-2.1-0.3-4-0.8-5.5c-0.6-1.5-1.3-2.3-2.1-2.4c-7.9,0-11.9,0-19.8,0c0,13.8,0,27.6,0,41.4
					c0,2.8,0.4,5.2,1.2,7.2c0.8,2,1.7,3,2.8,3c0.3,0,0.5,0,0.8,0c0,0.6,0,1,0,1.6c-5.4-0.1-8.1-0.1-13.6-0.3c0-0.6,0-1,0-1.6
					c0.3,0,0.5,0,0.8,0c1.1,0,2-0.9,2.8-2.9c0.8-2,1.2-4.3,1.2-7.1c0-30,0-60,0-90c0-2.6-0.4-4.7-1.2-6.5c-0.8-1.7-1.7-2.6-2.8-2.6
					c-0.3,0-0.4,0-0.7,0c0-0.6,0-1-0.1-1.6c7.3-0.3,10.9-0.3,18.2-0.3c1.8,0,3.3-0.4,4.7-1.1c1.4-0.7,2.3-1.3,2.7-1.7
					c0,7.3,0,10.9,0,18.2c-0.2,0-0.4,0-0.6,0c0-1,0-1.4,0-2.4c0-2.1-0.3-4-0.9-5.6c-0.6-1.6-1.3-2.3-2.2-2.4c-5.2,0-7.8,0-13.1,0.1
					c0,16.6,0,33.2,0,49.7c7.9,0,11.9,0,19.8,0c0.8-0.1,1.5-0.9,2.1-2.4c0.6-1.5,0.9-3.4,0.9-5.6c0-0.9,0-1.4,0-2.3
					c0.2,0,0.4,0,0.6,0c0,10.2,0,15.2,0,25.4c-0.2,0-0.4,0-0.6,0C521,1181.2,521,1180.7,521,1179.7z"/>
				<path class="st2" d="M576.6,1090.1c0.3,0.1,0.7,0.1,1.1,0.2c0,0.6,0,0.9,0,1.5c-4.5-0.7-8.3,2.5-10.8,9.6c-3.6,10-4,21.3-4,31.9
					c0,17.1,0,34.2,0,51.4c-0.5,10-0.8,20.1-4.6,29.5c-3.1,7.6-7.1,11.7-12.2,12.1c-5.1,0.3-9.2-3.3-12.4-10.8
					c-4-9.5-4.3-19.9-4.7-30c0-21.1,0-42.2,0-63.3c0-3.1-0.5-5.4-1.6-6.9c-0.5-0.7-1.1-1-1.7-1c-0.4,0-0.6,0-1,0c0-0.6,0-1,0-1.6
					c5,0.1,7.6,0.2,12.6,0.5c0,0.6,0,1,0,1.6c-0.4,0-0.6,0-1,0c-0.9,0-1.7,0.6-2.3,2.1c-0.6,1.4-1,3.2-1,5.5c0,20.3,0,40.7,0,61
					c-0.2,8.9,0.7,19.4,3.6,27.9c2.4,7,5.6,10.3,9.5,10.1c4.2-0.2,7.5-3.8,10-10.5c2.5-6.7,3.8-15.3,3.8-25.9c0-17.1,0-34.3,0-51.4
					c-0.1-11.2,0.4-23.3,4.6-33.6C567.5,1092.5,571.7,1089.3,576.6,1090.1z"/>
				<path class="st2" d="M637.1,1234.6c0.2-0.1,0.5-0.1,0.7-0.2c0,0.5,0,0.8,0,1.3c-1.2,0.6-2.4,1.1-3.9,1.4
					c-1.4,0.3-3.2,0.1-5.3-0.8c-2.1-0.9-4-3-5.7-6.3c-4.5-8.9-5.3-19-6.3-28.7c-1.3-20.4-2.5-40.8-3.8-61.2
					c-4.4,22.1-8.7,44.1-12.9,66.2c-1.2,5.9-1.9,10.9-2.1,14.9c-0.2,0-0.4,0-0.6,0.1c-5.5-27.4-10.9-54.8-16.1-82.2
					c-0.9,24.8-1.8,49.6-2.7,74.4c-0.1,1.7,0.1,3.2,0.7,4.4c0.5,1.2,1.1,1.8,1.7,1.8c0.4,0,0.6-0.1,1-0.1c0,0.5,0,0.8,0,1.3
					c-4.8,0.5-7.2,0.7-12,1.2c0-0.6,0-0.9,0-1.5c0.4,0,0.6-0.1,1-0.1c1.1-0.1,2.1-1,2.9-2.8c0.8-1.7,1.4-4,1.6-6.7
					c1.3-27.4,2.6-54.8,3.9-82.1c-2.4-9.9-4.9-24.8-13.1-27.5c-0.3-0.1-0.9-0.1-1.4,0c0-0.6,0-0.9,0-1.5c1.1-0.6,2-0.8,2.7-0.8
					c0.7,0.1,1.5,0.3,2.3,0.5c0.8,0.3,1.8,0.9,2.9,1.8c1.1,0.9,2.2,2.3,3.2,3.9c1,1.7,1.9,3.4,2.6,5.1c0.7,1.7,1.4,3.6,2.1,5.7
					c1.1,3.7,2,7.2,2.7,10.5c4.9,25.5,9.8,51,14.9,76.5c5.4-28.2,10.9-56.3,16.7-84.4c0.2,0,0.3,0,0.6,0.1
					c1.9,26.9,3.8,53.9,5.8,80.8c1,9.2,1.6,19.2,5.6,27.6C629.6,1233.1,633.1,1235.4,637.1,1234.6z"/>
				<path class="st2" d="M656.3,1172.5c0-6,0-9.1,0-15.1c0-2.2-0.9-3.8-1.9-3.8c-1.5-0.1-2.2-0.1-3.7-0.2c-0.6,0-1,0.4-1.4,1
					c-0.3,0.6-0.6,1.6-0.6,2.7c0,2.6,0,3.8,0,6.4c-1.5,0-2.3-0.1-3.8-0.1c0-2.6,0-4,0-6.6c0-6.5,2.7-11.4,5.8-11.1
					c1.5,0.1,2.2,0.2,3.7,0.3c3.2,0.3,5.8,5.7,5.8,11.5c0,17.6,0,35.2,0,52.7c-1.3,0.2-1.9,0.3-3.2,0.5c-0.2-1.1-0.4-1.7-0.6-2.8
					c-1.8,1.4-2.6,2-4.4,3.4c-0.7,0.5-1.5,1-2.2,1.1c-3.3,0.5-5.5-3.5-5.5-9.7c0-7.4,0-11.1,0-18.5c0-6.5,2.7-11.7,5.8-11.7
					C652.5,1172.6,653.8,1172.5,656.3,1172.5z M656.3,1179.9c-2.5,0.1-3.8,0.1-6.3,0.2c-1,0-1.9,2-1.9,3.9c0,6.9,0,10.4,0,17.3
					c0,2.2,0.9,3.6,1.9,3.5c0.2,0,0.4-0.1,0.7-0.2c2.2-1.8,3.3-2.7,5.6-4.4C656.3,1192.1,656.3,1188,656.3,1179.9z"/>
				<path class="st2" d="M675.3,1164.1c0-2.3,0-3.5,0-5.8c0-1.9-0.9-3.5-1.9-3.6c-1.2-0.1-1.8-0.1-3-0.2c-1.1-0.1-1.9,1.5-1.9,3.4
					c0,13.4,0,26.9,0,40.3c0,1.9,0.9,3.4,1.9,3.3c1.2-0.2,1.8-0.2,3-0.4c1.1-0.1,1.9-1.8,1.9-3.7c0-3.8,0-5.7,0-9.4
					c1.5-0.1,2.3-0.2,3.8-0.3c0,3.7,0,5.6,0,9.3c0,5.6-2.5,10.6-5.8,11.1c-1.2,0.2-1.8,0.3-3,0.5c-3.2,0.5-5.8-3.9-5.8-9.9
					c0-13.6,0-27.3,0-40.9c0-6,2.6-10.7,5.8-10.4c1.2,0.1,1.8,0.2,3,0.3c3.2,0.3,5.8,5.1,5.8,10.8c0,2.3,0,3.4,0,5.7
					C677.6,1164.2,676.8,1164.1,675.3,1164.1z"/>
				<path class="st2" d="M687.3,1132.2c0,7.7,0,11.6,0,19.3c1.4-0.8,2.2-1.3,3.6-2.1c0.6-0.3,1.4-0.4,2-0.3c3.1,0.3,5.7,4.7,5.7,9.8
					c0,15,0,30.1,0,45.1c-1.5,0.3-2.3,0.4-3.8,0.6c0-15.5,0-30.9,0-46.4c0-1.7-0.9-2.8-1.9-2.9c-0.2,0-0.5,0.1-0.7,0.2
					c-1.9,1.1-2.9,1.7-4.8,2.9c0,15.8,0,31.6,0,47.3c-1.5,0.3-2.3,0.4-3.8,0.6c0-25,0-50,0-74.9
					C685,1131.8,685.8,1131.9,687.3,1132.2z"/>
				<path class="st2" d="M714.9,1171.9c0-4.6,0-7,0-11.6c0-1.7-0.9-2.9-1.9-3c-1.5-0.1-2.2-0.1-3.7-0.2c-0.6,0-1,0.3-1.4,0.8
					c-0.3,0.5-0.6,1.2-0.6,2.1c0,2,0,3,0,5c-1.5,0-2.3-0.1-3.8-0.1c0-2.1,0-3.1,0-5.2c0-5.1,2.7-8.8,5.8-8.5
					c1.5,0.1,2.2,0.2,3.7,0.3c3.2,0.3,5.8,4.5,5.8,8.9c0,13.4,0,26.9,0,40.3c-1.3,0.2-1.9,0.3-3.2,0.5c-0.2-0.8-0.4-1.3-0.6-2.1
					c-1.8,1.1-2.6,1.7-4.4,2.8c-0.7,0.4-1.5,0.8-2.2,0.9c-3.3,0.5-5.5-2.5-5.5-7.3c0-5.8,0-8.7,0-14.5c0-5.1,2.7-9.1,5.8-9.2
					C711.2,1171.9,712.4,1171.9,714.9,1171.9z M714.9,1177.6c-2.5,0.1-3.8,0.1-6.3,0.3c-1,0-1.9,1.6-1.9,3.1c0,5.4,0,8.1,0,13.4
					c0,1.7,0.9,2.8,1.9,2.6c0.2,0,0.4-0.1,0.7-0.2c2.2-1.5,3.3-2.2,5.6-3.6C714.9,1186.9,714.9,1183.8,714.9,1177.6z"/>
				<path class="st2" d="M729.3,1191.1c0,1.5,0.9,2.5,1.9,2.4c0.8-0.1,1.3-0.2,2.1-0.3c0,2.1,0,3.1,0,5.2c-0.9,0.1-1.3,0.2-2.2,0.3
					c-3.2,0.5-5.7-3-5.7-7.3c0-11.1,0-22.3,0-33.4c-1.4-0.1-2.1-0.1-3.5-0.2c0-2.2,0-3.4,0-5.6c1.4,0.1,2,0.2,3.4,0.3
					c0-2.9,0-4.3,0-7.2c1.6,0.2,2.3,0.3,3.9,0.5c0,2.8,0,4.3,0,7.1c1.6,0.1,2.4,0.2,4,0.4c0,2.1,0,3.2,0,5.3c-1.6-0.1-2.4-0.1-4-0.2
					C729.3,1169.3,729.3,1180.2,729.3,1191.1z"/>
				<path class="st2" d="M805.4,1198.4c-5.2,0.8-9.5,0-12.9-2.7c-2.5-2-4.1-4.9-4.9-8.5c-3.9,3.3-8.7,5.5-14.4,6.3
					c-4.5,0.6-8.6,0.2-12.3-1.6c-3.7-1.8-6.6-4.7-8.7-8.7c-2.1-4-3.1-8.8-3.1-14.1c0-5.3,1-10.1,3.1-14.1c2.1-4,5-6.8,8.6-8.5
					c3.7-1.7,7.8-2.1,12.3-1.4c5.7,0.8,10.7,3,15.1,6.2c0.5,3.5,0.7,5.2,1.2,8.7c-0.2,0-0.3,0-0.6,0c-1.2-4.8-4.1-8.3-8.4-10.6
					c-2.1-1.1-4.6-1.9-7.3-2.3c-5.6-0.7-10.2,0.7-13.9,4.9c-3.7,4.1-5.5,10-5.5,17.2c0,7.2,1.9,13.1,5.6,17.3
					c3.7,4.2,8.4,5.8,13.9,5.1c2.7-0.3,5.2-1.2,7.7-2.4c2.4-1.2,4.5-2.8,6.3-4.6c0-4.3,0-6.5,0-10.9c0-0.9-0.3-1.6-0.8-2
					c-0.5-0.5-1.3-0.7-2.3-0.7c-0.4,0-0.6,0-1,0c0-0.3,0-0.4,0-0.6c4.9,0,7.3,0,12.1,0c0,0.2,0,0.4,0,0.6c-0.4,0-0.6,0-0.9,0
					c-1,0-1.8,0.2-2.4,0.7c-0.5,0.5-0.8,1.1-0.7,2c0,3.7,0,5.5,0,9.2c0.2,6.3,2.4,10.6,6.4,12.6c2.8,1.4,6.4,1.8,10.9,1.1
					c1.9-0.3,3.9-0.7,6.1-1.3c0,0.2,0,0.3,0.1,0.5C811.3,1197,808.3,1197.9,805.4,1198.4z"/>
				<path class="st2" d="M855,1192.7c-1.7,0.4-3.3,0.7-4.6,0.8c-1.3,0.1-2.5,0.1-3.6,0.1c-1,0-2.1-0.2-3.3-0.4s-2.3-0.6-3.3-1
					c-1-0.4-2.1-0.9-3.1-1.5c-1.9-1-3.6-2.1-5.2-3.4c-1.5-1.3-4.5-3.6-9-7.4c-4.4-3.8-7.4-6.5-8.8-7.9c-1.4-1.4-2.6-2.1-3.3-2.2
					c0-0.2,0-0.3,0-0.5c2.4,0,4,0,4.8-0.1c0.8-0.1,1.7-0.2,2.6-0.5c0.9-0.2,1.7-0.5,2.3-0.9c2.4-1.3,3.7-3.3,3.7-6.3
					c0-2.4-0.7-4.4-2-6c-1.3-1.6-3.2-2.5-5.7-2.8c-3.1-0.3-4.6-0.4-7.7-0.7c0,10.8,0,21.6,0,32.4c0,0.9,0.4,1.7,1.1,2.3
					c0.8,0.6,1.7,0.9,2.8,0.8c0.3,0,0.4,0,0.7-0.1c0,0.2,0,0.3,0.1,0.5c-5.4,0.5-8.1,0.8-13.6,1.4c0-0.2,0-0.3,0-0.6
					c0.3,0,0.5-0.1,0.8-0.1c1-0.1,1.9-0.5,2.7-1.3c0.8-0.7,1.2-1.6,1.2-2.6c0-10.3,0-20.5,0-30.8c0-1-0.4-1.8-1.2-2.6
					c-0.8-0.8-1.7-1.2-2.8-1.3c-0.3,0-0.5-0.1-0.8-0.1c0-0.2,0-0.3,0-0.6c6.7,0.8,10,1.1,16.7,1.8c3.6,0.3,6.6,1.5,8.8,3.3
					c2.2,1.8,3.3,4,3.3,6.7c0,2.7-1,4.9-3,6.8c-2,1.9-4.5,2.9-7.4,3c0,0,0,0-0.1,0c1.4,1.2,3,2.6,4.8,4.2
					c7.1,6.2,11.7,9.7,13.8,11.1c2,1.4,3.8,2.5,5.4,3.4c1.6,0.9,2.9,1.5,4.1,1.8c2.4,0.8,4.9,1.1,7.3,1c0.5,0,1-0.1,1.5-0.2
					C855,1192.4,855,1192.5,855,1192.7z"/>
				<path class="st2" d="M851.1,1164.2c-0.2-0.4-0.2-0.7-0.2-1c0-0.3,0-0.6,0.1-1c0-0.4,0.1-0.9,0.3-1.5c0.1-0.6,0.4-1.2,0.8-1.8
					c0.4-0.6,0.9-1.2,1.4-1.7c0.5-0.5,1.2-1,2.1-1.5c0.8-0.4,1.8-0.8,2.8-1.1c2.2-0.7,4.9-1,8-0.9c6.3,0.1,11.5,1.6,15.5,4.5
					c4,2.9,6,6.6,6,11.2c0,4.6-2.4,8.3-7.1,11.3c-4.7,3-10.7,4.5-17.9,4.7c-7.2,0.2-13.2-1-18-4c-4.8-3-7.2-7.2-7.2-12.4
					c0-3.4,1-6.4,3.1-8.9c2.1-2.5,5-4.4,8.9-5.6c0.1,0.2,0.2,0.3,0.4,0.4c-2.7,1.2-4.6,3-5.8,5.4c-1.2,2.5-1.8,5.1-1.8,7.9
					c0,5.2,1.9,9.3,5.7,12c3.8,2.8,8.7,3.9,14.6,3.8s10.8-1.6,14.6-4.3c3.8-2.8,5.7-6.4,5.7-10.9c0-3.9-1.5-7.2-4.5-9.8
					c-3-2.7-7.2-4-12.7-4.2c-2.4-0.1-4.6,0.2-6.6,0.7c-3.6,1-6,2.7-7.1,5.2c-0.3,0.7-0.5,1.4-0.5,1.9c0,0.5,0,1,0.1,1.3
					C851.4,1164.2,851.3,1164.2,851.1,1164.2z"/>
				<path class="st2" d="M946.5,1140c0.3-0.1,0.7-0.1,1.1-0.2c0,0.2,0,0.3,0,0.6c-4.5,1-8.1,3-10.8,6c-2.6,3-4,6.7-4,11.3
					c0,6.8,0,10.3,0,17.1c0,4-1.5,7.2-4.6,9.3c-3.1,2.1-7.1,2.9-12.2,2.5c-5.1-0.4-9.2-1.7-12.4-4c-3.2-2.3-4.7-5.1-4.7-8.5
					c0-7,0-10.5,0-17.5c0-0.9-0.5-1.5-1.6-1.8c-0.5-0.2-1.1-0.2-1.7-0.2c-0.4,0-0.6,0-1,0c0-0.2,0-0.3,0-0.4c5-0.2,7.6-0.3,12.6-0.5
					c0,0.2,0,0.3,0,0.5c-0.4,0-0.6,0-1,0.1c-0.9,0-1.7,0.3-2.3,0.7c-0.6,0.4-1,1-1,1.6c0,6.8,0,10.3,0,17.1c0,3.3,1.2,5.9,3.6,8
					c2.4,2.1,5.6,3.3,9.5,3.6c4.2,0.3,7.5-0.4,10-2.3c2.5-1.9,3.8-4.6,3.8-8.1c0-6.7,0-10.1,0-16.8c0-4.9,1.5-8.8,4.6-11.8
					C937.5,1143.1,941.5,1141.1,946.5,1140z"/>
				<path class="st2" d="M961,1146.3c3.6-0.7,6.6-0.4,9,1c3.2,1.9,4.8,5.8,4.8,11.4c0,4.1-1,7.6-3,10.4c-2.1,3-5.1,4.3-9,4.2
					c-2-0.1-3.9-0.6-5.5-1.6c-1.7-1-2.6-2.6-2.9-4.9c0.2-0.1,0.3-0.1,0.6-0.2c0.5,1.7,1.5,2.9,3.2,3.6c1.1,0.5,2.1,0.8,3,0.8
					c3.4,0,5.9-1.3,7.4-4.2c1.1-2.1,1.7-4.7,1.7-7.7c0-4.7-1.2-8-3.6-9.6c-1.8-1.2-4.1-1.6-6.9-1.1c-0.7,0.1-1.2,0.2-1.7,0.4
					c-0.5,0.1-2.6,0.8-6.2,2c0,11.6,0,23.2,0,34.8c0,1.1,0.5,2,1.2,2.8c0.8,0.8,1.7,1.3,2.7,1.5c0.3,0.1,0.5,0.1,0.8,0.1
					c0,0.2,0,0.4,0,0.6c-5.4-0.9-8.1-1.3-13.6-2c0-0.2,0-0.3,0-0.5c0.3,0,0.5,0.1,0.8,0.1c1,0.1,1.9-0.1,2.7-0.7
					c0.8-0.6,1.2-1.4,1.2-2.4c0-10.3,0-20.5,0-30.8c0-1-0.3-1.7-0.9-2.2c-0.6-0.5-1.4-0.6-2.4-0.5c-0.2,0-0.4,0.1-0.6,0.1
					c-0.3,0.1-0.4,0.1-0.7,0.1c0-0.2-0.1-0.3-0.1-0.5c2.1-0.5,5-1.2,8.6-2.3c3.6-1.1,5.9-1.9,6.7-2.2
					C959.1,1146.7,960,1146.4,961,1146.3z"/>
				<path class="st2" d="M981.9,1194.9c1.1,0.2,2,0,2.8-0.8c0.8-0.8,1.2-1.9,1.2-3.2c0-14.6,0-29.2,0-43.8c0-1.3-0.4-2.2-1.2-2.9
					c-0.8-0.7-1.7-0.9-2.8-0.6c-0.3,0.1-0.4,0.1-0.7,0.2c0-0.3,0-0.4-0.1-0.7c5-1.2,7.6-1.9,12.6-3.2c1.8-0.5,3.4-1.1,4.7-2
					c1.4-0.8,2.3-1.4,2.6-1.8c0,4.5,0,6.8,0,11.3c-0.2,0.1-0.4,0.1-0.6,0.1c0-0.6,0-1,0-1.6c0-1.4-0.3-2.6-1-3.4
					c-0.7-0.8-1.5-1.1-2.4-0.9c-2.8,0.7-4.2,1.1-7.1,1.8c0,10,0,15,0,25.1c4.7-0.1,7.1-0.1,11.8-0.2c0.8-0.1,1.5-0.5,2.1-1.4
					c0.6-0.9,0.9-2,0.9-3.3c0-0.5,0-0.8,0-1.3c0.2,0,0.4,0,0.6,0c0,5.9,0,8.9,0,14.8c-0.2,0-0.4,0-0.6,0c0-0.6,0-0.8,0-1.4
					c0-1.2-0.3-2.3-0.8-3.2c-0.6-0.9-1.3-1.3-2.1-1.4c-4.7,0-7.1-0.1-11.8-0.1c0,9.7,0,14.6,0,24.3c5.3,1.2,7.9,1.9,13.2,3.3
					c3.1,0.8,5.4,0.4,7-1.3c1.6-1.7,3-4.7,4-8.9c0.2,0,0.4,0.1,0.6,0.1c-1.4,6.4-2.2,9.5-3.6,15.4c-9.9-3.2-20-5.9-30.1-8.2
					c0-0.3,0-0.4,0-0.7C981.4,1194.8,981.5,1194.8,981.9,1194.9z M992.7,1134.7c-0.2-0.2-0.3-0.3-0.4-0.4c3.1-5.6,5.8-10.5,7.9-14.4
					c1.1,1.1,2,2.3,2.5,3.6C1000,1126.9,996.7,1130.7,992.7,1134.7z"/>
			</g>
		</g>
		<g>
			
				<ellipse transform="matrix(0.9899 -0.142 0.142 0.9899 -132.9745 133.5948)" class="st3" cx="869.9" cy="998.8" rx="15" ry="15"/>
			<path class="st3" d="M900.3,1067c-7.4-18.4-3.6-39.5,9.7-54.1l0,0c2.3-2.6-0.5-6.5-3.7-5.1l-8.6,3.7c-18.1,7.8-38.6,7.4-56.4-0.9
				h0c-3.1-1.4-6,2.2-3.9,4.9l3.8,4.9c8.4,10.7,12.2,24.3,10.7,37.8l-3.2,27.8c-0.3,2.8,2.9,4.7,5.2,2.9
				c11.7-9.2,27.8-10.6,40.9-3.5l8.4,4.5c2.7,1.4,5.6-1.3,4.5-4L900.3,1067z"/>
			
				<ellipse transform="matrix(0.9899 -0.142 0.142 0.9899 -134.1938 144.2481)" class="st4" cx="943.9" cy="1012.7" rx="17.3" ry="17.3"/>
			
				<ellipse transform="matrix(0.9899 -0.142 0.142 0.9899 -137.9145 122.8666)" class="st5" cx="792.2" cy="1028.1" rx="14.4" ry="14.4"/>
			<path class="st4" d="M987.4,1014.1l-2.9,2.3c-21.2,16.6-48.3,23.8-75,19.9c-2.5-0.2-3.3,3.4-0.9,4.3v0
				c19.9,7.2,32.2,27.2,29.5,48.2l-2.2,17.4c-0.3,2.3,2.6,3.4,4,1.5l2-2.8c11.1-15.8,32.7-20,48.9-9.6c1.9,1.2,4.2-0.9,3.1-2.9
				l-11.1-21.1c-7.7-14.6-6.8-32.1,2.2-45.9l5.5-8.4C992,1014.9,989.4,1012.5,987.4,1014.1z"/>
			<path class="st5" d="M828,1034.5l-8.8,4.4c-16.3,8.3-35.1,10.3-52.8,5.7c-3.8-1-6.3,3.9-3.3,6.4l4.3,3.5
				c10.1,8.3,16.1,20.6,16.4,33.7l0.4,19.2c0.1,3.1,3.8,4.8,6.1,2.7c7.9-7,19-8.8,28.7-4.6l14.3,6.1c3.2,1.4,6.3-2,4.7-5l-9.8-19.6
				c-7.6-15.2-5.9-33.5,4.3-47v0C834.9,1036.9,831.5,1032.7,828,1034.5z"/>
		</g>
		<g>
			<g>
				<g>
					<polygon points="286,1052.2 277.5,1052.2 277.5,1036.6 273.8,1036.6 273.8,1025.5 277.5,1025.5 277.5,1021.3 249.8,1021.3 
						249.8,1052.2 243.5,1052.2 243.5,1058.6 286,1058.6 					"/>
					<path class="st5" d="M255.5,1137.7c-0.9-0.9-1.8-1.7-2.7-2.4c-1.2-8.5-1.4-17,0.1-25.6c1.8-10.7,5.2-21.1,8.6-31.5
						c-1.5-0.1-3-0.1-4.5,0.1c-3.5,10.5-6.9,21.1-8.5,32c-1.1,7.5-1.1,15-0.3,22.3c-14.9-6.4-33.6,5-33.6,5
						c0,20.7,12.6,38.5,30.5,46.1h39.1c17.9-7.6,30.5-25.4,30.5-46.1C314.9,1137.7,270.7,1153.3,255.5,1137.7z"/>
					<path d="M264.8,1060.5c-40.1,0-72.8,32.7-72.8,72.8c0,29.3,17.4,55.6,44.3,67l1.3,0.6h54.2l1.3-0.6
						c26.9-11.4,44.3-37.7,44.3-67C337.5,1093.2,304.9,1060.5,264.8,1060.5z M288.9,1186.7h-48.3c-21-9.5-34.4-30.3-34.4-53.4
						c0-30.1,22.8-54.9,52-58.2c-0.1,0,4.6-0.3,4.6-0.3c0.7,0,1.4,0,2,0c32.3,0,58.6,26.3,58.6,58.6
						C323.4,1156.4,309.9,1177.2,288.9,1186.7z"/>
				</g>
			</g>
			<g>
				<path class="st5" d="M284.1,1034.4c4-2.5,8.6-3.7,13.3-4.2c1.2-0.2,2.3-0.1,3.5-0.2c1.2-0.1,2.4,0,3.5,0l1.8,0.1l0.9,0l0.9,0.1
					l3.5,0.4c9.3,1.5,18.3,4.9,26.6,9.3c2.1,1,4.1,2.3,6.2,3.4c2,1.2,4.1,2.3,6,3.7l5.8,4c1.9,1.3,3.8,2.6,5.7,3.9
					c3.9,2.4,7.9,4.6,12.1,6.4c4.2,1.8,8.6,3.2,13,4.2c8.9,1.9,18.2,2,27.1-0.1c4.4-1.1,8.7-2.7,12.6-4.9l1.5-0.8l1.4-0.9
					c1-0.6,1.8-1.3,2.7-2c0.9-0.7,1.7-1.5,2.6-2.2c0.8-0.8,1.6-1.6,2.3-2.4c1.5-1.7,2.7-3.6,3.8-5.5c1-2,1.7-4.1,2-6.3
					c0.3-2.2,0.1-4.4-0.5-6.5c-0.6-2.2-1.5-4.3-2.6-6.2c-1.1-1.9-2.7-3.6-4.6-4.7c-1-0.6-2-1-3.1-1.3c-1.1-0.3-2.2-0.5-3.3-0.6
					c-2.3-0.1-4.6,0.2-6.8,0.8c-2.2,0.6-4.4,1.4-6.5,2.5c4-2.4,8.5-4.1,13.3-4.1c1.2,0,2.4,0.1,3.6,0.4c1.2,0.3,2.3,0.7,3.4,1.3
					c2.1,1.2,4,2.9,5.3,4.9c1.4,2,2.3,4.2,3,6.5c0.7,2.3,1,4.8,0.8,7.3c-0.3,2.4-1,4.8-2,7c-1.1,2.2-2.4,4.2-3.9,6.1
					c-3,3.8-6.9,6.7-11,9.2c-4.1,2.4-8.6,4.2-13.3,5.4c-9.3,2.4-19.1,2.3-28.4,0.3c-4.6-1-9.2-2.6-13.5-4.4l-3.2-1.5
					c-1.1-0.5-2.1-1.1-3.2-1.6c-2.1-1.1-4.1-2.4-6.1-3.6c-2-1.3-3.9-2.7-5.8-4l-5.7-4c-1.9-1.4-3.9-2.5-5.8-3.7
					c-2-1.2-3.9-2.5-6-3.5c-2-1.1-4.1-2.2-6.1-3.2l-6.3-2.8l-6.5-2.3l-3.3-0.9c-1.1-0.3-2.2-0.6-3.4-0.8l-3.4-0.6l-0.9-0.2l-0.9-0.1
					l-1.7-0.1c-1.1-0.1-2.3-0.2-3.5-0.2c-1.2,0-2.3,0-3.5,0.1c-1.1,0.1-2.3,0.2-3.4,0.3c-1.1,0.2-2.3,0.4-3.4,0.7l-1.7,0.4
					c-0.6,0.2-1.1,0.4-1.7,0.5C286.2,1033.3,285.1,1033.8,284.1,1034.4z"/>
			</g>
		</g>
	</g>
</g>
<g id="Layer_4">
	<g>
		
			<ellipse transform="matrix(0.9899 -0.142 0.142 0.9899 -100.9719 196.2937)" class="st6" cx="1325.3" cy="805.8" rx="12.6" ry="12.6"/>
		<path class="st6" d="M1351,863.3c-6.3-15.5-3.1-33.3,8.2-45.7l0,0c2-2.2-0.4-5.5-3.1-4.3l-7.2,3.1c-15.3,6.6-32.6,6.3-47.6-0.8
			l0,0c-2.6-1.2-5.1,1.9-3.3,4.1l3.2,4.1c7.1,9,10.3,20.5,9,31.9l-2.7,23.5c-0.3,2.4,2.5,3.9,4.4,2.4c9.9-7.7,23.5-8.9,34.5-3
			l7.1,3.8c2.2,1.2,4.8-1.1,3.8-3.4L1351,863.3z"/>
	</g>
	<g>
		
			<ellipse transform="matrix(0.9899 -0.142 0.142 0.9899 -101.508 212.186)" class="st7" cx="1436.4" cy="817.6" rx="14.6" ry="14.6"/>
		<path class="st7" d="M1473.1,818.7l-2.4,1.9c-17.9,14-40.8,20.1-63.3,16.8c-2.1-0.1-2.8,2.9-0.7,3.6v0c16.8,6.1,27.2,23,24.9,40.7
			l-1.9,14.7c-0.2,1.9,2.2,2.9,3.3,1.3l1.7-2.4c9.4-13.3,27.6-16.9,41.3-8.1c1.6,1,3.5-0.7,2.6-2.4l-9.4-17.8
			c-6.5-12.3-5.7-27.1,1.9-38.7l4.7-7.1C1477,819.4,1474.8,817.4,1473.1,818.7z"/>
	</g>
	<g>
		
			<ellipse transform="matrix(0.9899 -0.142 0.142 0.9899 -105.6594 179.9529)" class="st8" cx="1208.4" cy="830.5" rx="12.1" ry="12.1"/>
		<path class="st8" d="M1238.6,835.9l-7.4,3.7c-13.8,7-29.6,8.7-44.5,4.8c-3.2-0.8-5.3,3.3-2.7,5.4l3.6,2.9
			c8.6,7,13.6,17.4,13.8,28.5l0.3,16.2c0.1,2.7,3.2,4,5.2,2.3c6.6-5.9,16-7.4,24.2-3.9l12.1,5.2c2.7,1.1,5.3-1.7,4-4.2l-8.3-16.6
			c-6.4-12.8-5-28.2,3.7-39.7v0C1244.5,838,1241.6,834.4,1238.6,835.9z"/>
	</g>
	<polygon points="461.9,807.4 449.8,807.4 449.8,785.1 444.4,785.1 444.4,769.2 449.8,769.2 449.8,763.2 410.1,763.2 410.1,807.4 
		401.2,807.4 401.2,816.5 461.9,816.5 	"/>
	<path class="st8" d="M418.4,929.4c-1.2-1.3-2.5-2.4-3.8-3.4c-1.7-12.1-2-24.3,0.1-36.6c2.6-15.3,7.5-30.2,12.3-45
		c-2.2-0.1-4.3-0.1-6.5,0.1c-5,15-9.9,30.2-12.1,45.8c-1.5,10.8-1.5,21.4-0.4,31.9c-21.3-9.2-48.1,7.1-48.1,7.1
		c0,29.6,18,55,43.6,65.9h55.9c25.6-10.9,43.6-36.3,43.6-65.9C503.1,929.4,440,951.8,418.4,929.4z"/>
	<path d="M431.5,819.2c-57.3,0-104,46.6-104,104c0,41.8,24.9,79.4,63.4,95.7l1.9,0.8h77.4l1.9-0.8c38.5-16.3,63.4-53.9,63.4-95.7
		C535.5,865.8,488.9,819.2,431.5,819.2z M466.1,999.5H397c-30-13.6-49.2-43.3-49.2-76.3c0-43,32.5-78.5,74.2-83.2
		c-0.2,0,6.6-0.5,6.6-0.5c1,0,1.9-0.1,2.9-0.1c46.2,0,83.7,37.6,83.7,83.7C515.3,956.2,496,985.9,466.1,999.5z"/>
	<g>
		<path class="st5" d="M459.2,781.9c2.8-1.8,6-3,9.2-4c3.2-0.9,6.5-1.5,9.9-1.9c3.3-0.3,6.7-0.4,10-0.3c1.7,0.1,3.4,0.2,5,0.4
			l2.5,0.3l2.5,0.4c13.3,2.2,25.9,7.2,37.8,13.4c3,1.5,5.9,3.2,8.8,4.9c2.9,1.7,5.7,3.5,8.5,5.4c2.8,1.8,5.5,3.8,8.3,5.7l4.1,2.9
			c1.4,0.9,2.7,1.8,4.1,2.7c11.1,7.1,23.3,12.5,36.1,15.3c6.4,1.4,13,2.2,19.5,2.1c6.5,0,13.1-0.8,19.4-2.3
			c6.4-1.6,12.5-3.9,18.2-7.1c2.9-1.6,5.6-3.4,8.1-5.4c2.6-2,4.9-4.2,7.1-6.7c4.2-4.9,7.5-10.8,8.3-17.2c0.4-3.2,0.2-6.4-0.8-9.5
			c-0.9-3.2-2.1-6.2-3.9-8.9c-1.7-2.8-4-5.1-6.8-6.8c-1.4-0.8-2.9-1.5-4.4-1.9c-0.8-0.3-1.6-0.4-2.4-0.5c-0.8-0.1-1.6-0.2-2.4-0.2
			c-1.6-0.1-3.3,0-4.9,0.2c-1.6,0.2-3.3,0.5-4.9,1c-3.2,0.9-6.3,2.1-9.2,3.7c5.7-3.4,12.3-5.7,19-5.6c0.8,0,1.7,0.1,2.5,0.2
			c0.8,0.1,1.7,0.2,2.5,0.5c1.7,0.4,3.3,1,4.8,1.9c3,1.7,5.5,4.1,7.4,7c1.9,2.9,3.3,6,4.2,9.3c1.1,3.3,1.4,6.8,1,10.2
			c-0.8,6.9-4.1,13.2-8.5,18.4c-4.3,5.3-9.8,9.6-15.6,12.9c-5.9,3.4-12.3,5.9-18.8,7.6c-13.2,3.3-27.1,3.2-40.3,0.4
			c-13.2-2.9-25.7-8.5-37-15.9c-1.4-0.9-2.8-1.9-4.2-2.8l-4.1-2.9c-2.7-1.9-5.4-3.9-8.1-5.7c-5.5-3.7-11.1-7.2-16.9-10.4
			c-11.6-6.3-24-11.5-37-14l-2.4-0.5l-2.5-0.4c-1.6-0.3-3.3-0.4-4.9-0.5c-3.3-0.2-6.6-0.3-9.9-0.1c-3.3,0.2-6.6,0.7-9.8,1.5
			C465.2,779.1,462,780.2,459.2,781.9z"/>
	</g>
	<g>
		<path class="st2" d="M603,910.5c7.7,0,14.1,1.9,19.3,5.6c6.9,5,10.4,12.7,10.4,23.3c0,7.6-2.1,14.1-6.4,19.5
			c-4.6,5.8-11,8.6-19.3,8.6c-4.3,0-8.3-1-11.8-3.1c-3.5-2.1-5.6-5.6-6.2-10.7l1.2-0.4c1,3.8,3.2,6.5,6.8,8c2.4,1.1,4.5,1.6,6.4,1.6
			c7.3,0,12.5-2.8,15.8-8.5c2.4-4.2,3.6-9.1,3.6-14.9c0-9.2-2.6-15.9-7.7-19.9c-3.9-3.2-8.9-4.8-14.9-4.8c-1.4,0-2.6,0.1-3.7,0.2
			c-1,0.1-5.5,0.9-13.4,2.2v78.8c0.1,2.4,1,4.4,2.7,6c1.7,1.6,3.6,2.4,5.8,2.4h1.7v1.3h-29.1v-1.3h1.7c2.2,0,4.2-0.8,5.8-2.4
			c1.7-1.6,2.6-3.6,2.7-6V924c0-2.3-0.7-4.1-2-5.4c-1.3-1.3-3.1-1.9-5.2-1.9c-0.4,0-0.9,0-1.3,0.1l-1.6,0.1l-0.3-1.3
			c4.6-0.4,10.8-1.3,18.5-2.6c7.8-1.3,12.6-2,14.4-2.3C598.8,910.6,600.8,910.5,603,910.5z"/>
		<path class="st2" d="M640.7,931.2c4.4-1.8,8.6-2.7,12.7-2.7c3.4,0,6.9,1.3,10.4,3.8c2,1.4,4.2,4,6.6,7.9c1.6,2.7,3.7,7.6,6.2,14.7
			l12.4,35.1c2.8,7.8,5.7,14.1,8.7,18.7c2.9,4.6,5.6,8.1,8.1,10.4c2.4,2.3,5,4,7.6,4.9c2.6,0.9,4.8,1.4,6.5,1.4s3.3-0.1,4.6-0.4
			l0.1,1c-3.2,1.1-6.4,1.6-9.5,1.6c-3.1,0-6.2-0.8-9.3-2.4c-3.1-1.6-6-3.8-8.7-6.6c-5.8-5.9-10.8-14.8-14.8-26.9l-4-11.6h-27.8
			l-7,18.1c-0.3,0.8-0.5,1.6-0.5,2.4c0,0.8,0.4,1.7,1.1,2.6s1.8,1.4,3.3,1.4h0.8v1h-20.4v-1h0.9c1.6,0,3.2-0.5,4.8-1.5
			c1.6-1,2.8-2.4,3.9-4.4l25.2-60.2c-3.7-5.2-8.2-7.8-13.6-7.8c-2.4,0-5,0.5-7.8,1.5L640.7,931.2z M651.5,977.1h25.7l-8-23.6
			c-1.6-4.5-3-8.1-4.3-10.6L651.5,977.1z"/>
		<path class="st2" d="M787.3,1022.9c-2.8,0.7-5.4,1.1-7.6,1.1c-2.2,0-4.1-0.1-5.8-0.4c-1.7-0.3-3.5-0.8-5.4-1.6
			c-1.9-0.8-3.7-1.7-5.4-2.7c-1.7-1-3.4-2.3-5.1-3.8c-3.1-2.5-5.9-5.2-8.5-8.1c-2.5-2.9-7.4-8.4-14.7-16.4c-7.2-8-12-13.3-14.4-16
			c-2.4-2.6-4.2-4-5.5-4.2v-1c3.9,0,6.5-0.1,7.9-0.3c1.3-0.2,2.7-0.5,4.2-0.9c1.5-0.4,2.7-1,3.8-1.8c4-2.6,6-6.8,6-12.8
			c0-4.9-1.1-8.9-3.3-11.9c-2.2-3-5.3-4.5-9.3-4.6h-12.6v60.4c0,1.7,0.6,3.2,1.9,4.5c1.3,1.3,2.8,1.9,4.6,1.9h1.2l0.1,1h-22.2v-1
			h1.3c1.7,0,3.2-0.6,4.5-1.8c1.3-1.2,2-2.7,2-4.5V942c-0.1-1.8-0.7-3.3-2-4.5c-1.3-1.3-2.8-1.9-4.5-1.9h-1.3v-1h27.4
			c5.9,0,10.7,1.7,14.3,5c3.6,3.3,5.4,7.8,5.4,13.3c0,5.5-1.7,10.2-5,14.2s-7.4,5.9-12.2,5.9h-0.1c2.3,2.4,4.9,5.3,7.8,8.5
			c11.7,12.9,19.2,21,22.5,24.3c3.3,3.3,6.2,6,8.8,8.2c2.5,2.1,4.8,3.7,6.7,4.7c4,2.2,7.9,3.2,11.9,3.2c0.8,0,1.6-0.1,2.4-0.2
			V1022.9z"/>
		<path class="st2" d="M807.4,977.1c0-1.4-0.5-2.5-1.4-3.4c-0.9-0.9-2-1.5-3.4-1.5h-32.5v26.1c0,1.8,0.6,3.3,1.9,4.5
			c1.3,1.3,2.8,1.9,4.6,1.9h1.3v1h-22.2v-1h1.3c1.8,0,3.3-0.6,4.5-1.9c1.3-1.3,1.9-2.8,2-4.5v-56.8c0-1.6-0.7-3-2-4.1
			s-2.8-1.7-4.5-1.7h-1.2l-0.1-1h29.7c2.9,0,5.5-0.2,7.7-0.7c2.2-0.5,3.7-0.8,4.4-1.1v11.5h-1v-1.5c0-1.4-0.5-2.5-1.4-3.5
			c-0.9-1-2.1-1.5-3.5-1.5h-21.4v31.3h32.4c1.4-0.1,2.5-0.6,3.4-1.5c0.9-0.9,1.4-2.1,1.4-3.5v-1.4h1v16h-1V977.1z"/>
		<path class="st2" d="M890.8,917.2c0.5,0,1.1,0,1.7,0v1c-7.4,0-13.3,2.5-17.6,7.4c-4.3,4.9-6.5,12-6.5,21.2v33.8
			c0,7.9-2.5,14.3-7.5,19.2c-5,4.9-11.7,7.3-20,7.3s-15.1-2.4-20.2-7.3c-5.2-4.8-7.8-11.2-7.8-19.1v-40.1c0-2-0.9-3.4-2.6-4.4
			c-0.8-0.4-1.7-0.6-2.7-0.6h-1.6v-1h20.6v1h-1.6c-1.5,0-2.7,0.5-3.8,1.4c-1,0.9-1.6,2.1-1.6,3.5v38.7c0,7.4,2,13.3,5.9,17.8
			c4,4.5,9.1,6.7,15.6,6.7c6.8,0,12.3-2.1,16.4-6.4c4.1-4.3,6.2-9.9,6.2-16.8v-33.7c0-9.9,2.5-17.4,7.6-22.3
			C876.2,919.7,882.7,917.2,890.8,917.2z"/>
		<path class="st2" d="M982.1,1022.1c0.4,0,0.8,0,1.2,0v1c-1.9,0.3-4,0.4-6.3,0.4c-2.3,0-5.2-0.5-8.6-1.5c-3.4-1-6.5-2.9-9.3-5.7
			c-5.7-5.7-9.1-13-10.3-22.1l-6.2-45.1l-21.1,47.7c-1.9,4.1-3,7.6-3.4,10.3h-1L890.8,950l-4.5,50.4c-0.1,1.2,0.2,2.2,1.1,3
			c0.8,0.9,1.8,1.3,2.8,1.3h1.6v0.9h-19.7v-1h1.6c1.8,0,3.4-0.6,4.8-1.7c1.4-1.1,2.2-2.6,2.6-4.4l6.4-55.4
			c-6-11.7-13.1-17.5-21.4-17.5c-0.7,0-1.5,0-2.3,0.1v-1c1.8-0.5,3.3-0.7,4.5-0.7c1.2,0,2.4,0.1,3.8,0.2c1.4,0.1,2.9,0.4,4.8,1
			c1.8,0.5,3.5,1.3,5.2,2.4c1.6,1,3,2.1,4.3,3.2c1.2,1.1,2.4,2.4,3.4,3.7c1.8,2.4,3.3,4.8,4.4,7l24.4,52.9l27.3-61.2h0.9l9.4,60
			c1.4,9.5,4.5,16.6,9.2,21.5C969.9,1019.6,975.6,1022.1,982.1,1022.1z"/>
		<path class="st2" d="M1016.1,973.2v-12.8c0-1.8-1.5-3.1-3.1-3.1h-6.1c-0.9,0-1.6,0.3-2.2,0.9c-0.6,0.5-0.9,1.3-0.9,2.2v5.3h-6.3
			v-5.4c0-5.3,4.4-9.4,9.5-9.4h6.1c5.3,0,9.4,4.5,9.4,9.4v45.3h-5.3l-1-2.4l-7.2,2.3c-1.1,0.3-2.5,0.6-3.7,0.6
			c-5.4,0-8.9-3.5-8.9-8.5v-15c0-5.3,4.5-9.4,9.4-9.4H1016.1z M1016.1,979.5h-10.2c-1.6,0-3.1,1.6-3.1,3.1v14.2c0,1.8,1.5,3,3.1,3
			c0.3,0,0.7,0,1.1-0.1l9.1-3.1V979.5z"/>
		<path class="st2" d="M1047.1,965.7v-5.3c0-1.7-1.4-3.1-3.1-3.1h-5c-1.7,0-3.1,1.4-3.1,3.1v35.8c0,1.7,1.4,3.1,3.1,3.1h5
			c1.7,0,3.1-1.4,3.1-3.1v-8.6h6.3v8.6c0,5.2-4.2,9.4-9.4,9.4h-5c-5.2,0-9.4-4.3-9.4-9.4v-35.8c0-5.3,4.3-9.5,9.4-9.5h5
			c5.3,0,9.4,4.3,9.4,9.5v5.3H1047.1z"/>
		<path class="st2" d="M1066.8,934.6v18.6l5.9-2.3c1-0.3,2.2-0.5,3.2-0.5c5.1,0,9.3,4.3,9.3,9.4v45.8h-6.3v-46.2
			c0-1.7-1.4-2.7-3-2.7c-0.4,0-0.8,0.1-1.2,0.2l-7.9,3.1v45.6h-6.3v-71H1066.8z"/>
		<path class="st2" d="M1112,973.2v-12.8c0-1.8-1.5-3.1-3.1-3.1h-6.1c-0.9,0-1.6,0.3-2.2,0.9c-0.6,0.5-0.9,1.3-0.9,2.2v5.3h-6.3
			v-5.4c0-5.3,4.4-9.4,9.5-9.4h6.1c5.3,0,9.4,4.5,9.4,9.4v45.3h-5.3l-1-2.4l-7.2,2.3c-1.1,0.3-2.5,0.6-3.7,0.6
			c-5.4,0-8.9-3.5-8.9-8.5v-15c0-5.3,4.5-9.4,9.4-9.4H1112z M1112,979.5h-10.2c-1.6,0-3.1,1.6-3.1,3.1v14.2c0,1.8,1.5,3,3.1,3
			c0.3,0,0.7,0,1.1-0.1l9.1-3.1V979.5z"/>
		<path class="st2" d="M1135.5,996.2c0,1.8,1.5,3.1,3.1,3.1h3.4v6.3h-3.5c-5.3,0-9.3-4.6-9.3-9.5v-38.8h-5.7v-6.4h5.6v-8.4h6.4v8.4
			h6.6v6.4h-6.6V996.2z"/>
		<path class="st2" d="M1260.1,1023.3c-8.6,0-15.6-2.7-21.1-8.2c-4.1-4.1-6.7-9.2-8-15.3c-6.4,4.9-14.3,7.3-23.6,7.3
			c-7.4,0-14.1-1.6-20.1-4.8c-6.1-3.2-10.8-7.6-14.2-13.2c-3.4-5.6-5.1-11.9-5.1-19c0-7,1.7-13.4,5.1-19c3.4-5.6,8.1-10,14.1-13.1
			c6-3.1,12.7-4.7,20.2-4.7c9.3,0,17.5,2.3,24.6,6.9l2,14.3h-0.9c-2-7.8-6.6-13.2-13.8-16c-3.5-1.4-7.5-2.1-12-2.1
			c-9.1,0-16.7,3.2-22.8,9.5c-6.1,6.4-9.1,14.4-9.1,24.2c0,9.8,3,17.9,9.1,24.3c6.1,6.4,13.7,9.7,22.7,9.7c4.4,0,8.6-0.8,12.6-2.3
			c4-1.6,7.4-3.7,10.2-6.5v-18c0-1.5-0.4-2.6-1.3-3.4c-0.9-0.8-2.1-1.2-3.8-1.2h-1.6v-1h19.9v1h-1.5c-1.7,0-3,0.4-3.9,1.2
			c-0.9,0.8-1.3,1.9-1.2,3.4v15.6c0.4,10.7,3.9,18.3,10.4,22.9c4.6,3.2,10.5,4.9,17.8,4.9c3,0,6.4-0.3,9.9-0.9l0.1,1
			C1269.7,1022.4,1264.7,1023.3,1260.1,1023.3z"/>
		<path class="st2" d="M1333.6,1022.9c-2.8,0.7-5.4,1.1-7.6,1.1c-2.2,0-4.1-0.1-5.8-0.4c-1.7-0.3-3.5-0.8-5.4-1.6
			c-1.9-0.8-3.7-1.7-5.4-2.7c-1.7-1-3.4-2.3-5.1-3.8c-3.1-2.5-5.9-5.2-8.5-8.1c-2.5-2.9-7.4-8.4-14.7-16.4c-7.2-8-12-13.3-14.4-16
			c-2.4-2.6-4.2-4-5.5-4.2v-1c3.9,0,6.5-0.1,7.9-0.3c1.3-0.2,2.7-0.5,4.2-0.9c1.5-0.4,2.7-1,3.8-1.8c4-2.6,6-6.8,6-12.8
			c0-4.9-1.1-8.9-3.3-11.9c-2.2-3-5.3-4.5-9.3-4.6H1258v60.4c0,1.7,0.6,3.2,1.9,4.5c1.3,1.3,2.8,1.9,4.6,1.9h1.2l0.1,1h-22.2v-1h1.3
			c1.7,0,3.2-0.6,4.5-1.8c1.3-1.2,2-2.7,2-4.5V942c-0.1-1.8-0.7-3.3-2-4.5c-1.3-1.3-2.8-1.9-4.5-1.9h-1.3v-1h27.4
			c5.9,0,10.7,1.7,14.3,5c3.6,3.3,5.4,7.8,5.4,13.3c0,5.5-1.7,10.2-5,14.2s-7.4,5.9-12.2,5.9h-0.1c2.3,2.4,4.9,5.3,7.8,8.5
			c11.7,12.9,19.2,21,22.5,24.3c3.3,3.3,6.2,6,8.8,8.2c2.5,2.1,4.8,3.7,6.7,4.7c4,2.2,7.9,3.2,11.9,3.2c0.8,0,1.6-0.1,2.4-0.2
			V1022.9z"/>
		<path class="st2" d="M1319.5,958.3c-0.3-0.9-0.4-1.6-0.4-2.3c0-0.6,0-1.4,0.1-2.2c0.1-0.8,0.2-1.9,0.5-3.3
			c0.2-1.4,0.7-2.8,1.4-4.2c0.7-1.4,1.5-2.7,2.3-4c0.9-1.3,2-2.5,3.4-3.5c1.4-1.1,2.9-2,4.6-2.8c3.6-1.8,7.9-2.6,13.1-2.6
			c10.3,0,18.8,3.4,25.3,10.3c6.5,6.9,9.8,15.6,9.8,26.3c0,10.7-3.9,19.6-11.6,26.6c-7.7,7.1-17.5,10.6-29.3,10.6
			c-11.8,0-21.7-3.5-29.5-10.5c-7.8-7-11.7-16.2-11.7-27.4c0-7.2,1.7-13.7,5.1-19.3c3.4-5.6,8.2-10,14.5-13.2l0.6,0.9
			c-4.4,2.9-7.6,7.1-9.5,12.6c-1.9,5.5-2.9,11.3-2.9,17.4c0,11.4,3.1,20.4,9.3,26.8c6.2,6.4,14.2,9.6,23.9,9.6s17.7-3.2,23.9-9.7
			c6.2-6.5,9.3-15,9.3-25.5c0-9.1-2.5-16.8-7.4-23.1c-4.9-6.3-11.8-9.4-20.7-9.4c-4,0-7.6,0.7-10.9,2.1c-5.9,2.5-9.8,6.6-11.7,12.4
			c-0.5,1.7-0.8,3.1-0.8,4.4s0.1,2.2,0.2,2.9L1319.5,958.3z"/>
		<path class="st2" d="M1468,917.2c0.5,0,1.1,0,1.7,0v1c-7.4,0-13.3,2.5-17.6,7.4c-4.3,4.9-6.5,12-6.5,21.2v33.8
			c0,7.9-2.5,14.3-7.5,19.2c-5,4.9-11.7,7.3-20,7.3s-15.1-2.4-20.2-7.3c-5.2-4.8-7.8-11.2-7.8-19.1v-40.1c0-2-0.9-3.4-2.6-4.4
			c-0.8-0.4-1.7-0.6-2.7-0.6h-1.6v-1h20.6v1h-1.6c-1.5,0-2.7,0.5-3.8,1.4c-1,0.9-1.6,2.1-1.6,3.5v38.7c0,7.4,2,13.3,5.9,17.8
			c4,4.5,9.1,6.7,15.6,6.7c6.8,0,12.3-2.1,16.4-6.4c4.1-4.3,6.2-9.9,6.2-16.8v-33.7c0-9.9,2.5-17.4,7.6-22.3
			C1453.4,919.7,1459.9,917.2,1468,917.2z"/>
		<path class="st2" d="M1484.2,933c5.9,0,10.8,1.4,14.7,4.3c5.3,3.8,7.9,9.7,7.9,17.7c0,5.8-1.6,10.8-4.9,14.9
			c-3.5,4.4-8.4,6.6-14.7,6.6c-3.3,0-6.3-0.8-9-2.4c-2.7-1.6-4.3-4.3-4.8-8.2l0.9-0.3c0.7,2.9,2.5,4.9,5.2,6.1
			c1.8,0.8,3.4,1.2,4.9,1.2c5.5,0,9.6-2.2,12.1-6.5c1.8-3.2,2.7-7,2.7-11.4c0-7-2-12.1-5.9-15.2c-3-2.4-6.8-3.7-11.4-3.7
			c-1.1,0-2,0.1-2.8,0.2c-0.8,0.1-4.2,0.7-10.2,1.7v60.1c0.1,1.8,0.7,3.3,2,4.6c1.3,1.2,2.8,1.8,4.5,1.8h1.3v1h-22.2v-1h1.3
			c1.7,0,3.2-0.6,4.5-1.8c1.3-1.2,2-2.7,2-4.6v-54.9c0-1.8-0.5-3.1-1.5-4.1c-1-1-2.3-1.5-4-1.5c-0.3,0-0.7,0-1,0.1l-1.2,0.1l-0.2-1
			c3.5-0.3,8.2-1,14.1-2c5.9-1,9.6-1.6,11-1.7C1481.1,933.1,1482.6,933,1484.2,933z"/>
		<path class="st2" d="M1510.7,1004.6c1.8,0,3.3-0.6,4.5-1.9c1.3-1.3,1.9-2.8,2-4.5v-56.8c0-1.6-0.6-3-1.9-4.1
			c-1.3-1.1-2.8-1.7-4.6-1.7h-1.2l-0.1-1h20.6c2.9,0,5.5-0.2,7.8-0.7c2.3-0.5,3.7-0.8,4.3-1.1v12.8h-1v-1.8c0-1.6-0.6-3-1.7-4.2
			c-1.1-1.1-2.5-1.8-4-1.8h-11.6v31.3h19.3c1.4-0.1,2.5-0.6,3.4-1.5c0.9-0.9,1.4-2.1,1.4-3.5v-1.4h1v16h-1v-1.5
			c0-1.4-0.5-2.5-1.4-3.4c-0.9-0.9-2-1.5-3.4-1.5h-19.4v30.3h21.6c5,0,8.8-1.1,11.5-3.3s4.8-5.5,6.6-9.9h1l-5.9,16.4h-49.2v-1
			H1510.7z M1528.4,928.2l-0.7-0.7c5.1-5.5,9.4-10,12.9-13.3c1.8,1.8,3.2,3.6,4.2,5.4C1540.4,922,1535,924.9,1528.4,928.2z"/>
	</g>
</g>
<g id="Layer_2" class="st0">
	<g class="st1">
		<g>
			<g>
				<g>
					<text transform="matrix(1 0 0 1 364.5765 547.8569)" class="st9 st10 st11">            GROUPÉ</text>
				</g>
				<text transform="matrix(1 0 0 1 317.7347 414.228)"><tspan x="0" y="0" class="st9 st10 st11">PARFUM</tspan><tspan x="621.5" y="0" class="st9 st10 st11 st12"> </tspan><tspan x="666.5" y="0" class="st9 st10 st13 st14">achat</tspan></text>
				<g>
					<g>
						<g>
							<g>
								<polygon class="st5" points="427.1,458.8 431.7,458.8 431.7,450.4 433.7,450.4 433.7,444.4 431.7,444.4 431.7,442.2 
									446.6,442.2 446.6,458.8 449.9,458.8 449.9,462.2 427.1,462.2 								"/>
								<path class="st5" d="M443.5,504.7c0.5-0.5,0.9-0.9,1.4-1.3c0.6-4.5,0.7-9.1,0-13.8c-1-5.8-2.8-11.3-4.6-16.9
									c0.8,0,1.6,0,2.4,0c1.9,5.7,3.7,11.3,4.6,17.2c0.6,4,0.6,8,0.1,12c8-3.4,18.1,2.7,18.1,2.7c0,11.1-6.8,20.7-16.4,24.8h-21
									c-9.6-4.1-16.4-13.6-16.4-24.8C411.6,504.7,435.3,513.1,443.5,504.7z"/>
								<path class="st5" d="M399.4,502.3c0,15.7,9.4,29.8,23.8,36l0.7,0.3h29.1l0.7-0.3c14.5-6.1,23.8-20.3,23.8-36
									c0-21.6-17.5-39.1-39.1-39.1C417,463.2,399.4,480.8,399.4,502.3z M407,502.3c0-17.4,14.1-31.5,31.5-31.5c0.4,0,0.7,0,1.1,0
									c0,0,2.5,0.2,2.5,0.2c15.7,1.8,27.9,15.1,27.9,31.3c0,12.4-7.2,23.6-18.5,28.7h-26C414.3,525.9,407,514.7,407,502.3z"/>
							</g>
						</g>
					</g>
					<g>
						<g>
							<defs>
								<rect id="SVGID_1_" x="386.5" y="439.3" width="98.1" height="121.8"/>
							</defs>
							<clipPath id="SVGID_2_">
								<use xlink:href="#SVGID_1_"  style="overflow:visible;"/>
							</clipPath>
						</g>
					</g>
				</g>
				<g>
					<path class="st5" d="M427.1,447.8c-12-2.2-24.2-3.2-36.4-3.7c-12.2-0.4-24.4-0.1-36.5,0.9c-6.1,0.5-12.1,1.3-18.1,2.2l-9,1.5
						l-4.5,0.7l-2.3,0.4l-2.3,0.3l-4.6,0.5c-1.5,0.1-3.1,0.2-4.6,0.3c-3.1,0.3-6.1,0.2-9.2,0.3c-1.5,0-3.1-0.1-4.6-0.1l-2.3-0.1
						c-0.8,0-1.5-0.1-2.3-0.2l-4.6-0.4l-4.6-0.6c-12.2-1.9-24.1-5.7-34.6-12.3c-5.2-3.3-10-7.4-14-12.1c-4-4.8-7.1-10.3-8.9-16.2
						c-1.9-5.9-2.6-12.2-2.2-18.3c0.4-6.2,1.8-12.2,3.8-18c4.2-11.5,10.6-22.2,18.1-31.8c-7.2,9.9-13.3,20.5-17.2,32.1
						c-1.8,5.8-3.1,11.7-3.4,17.8c-0.2,6,0.5,12.1,2.4,17.8c1.9,5.7,4.9,11,8.8,15.6c3.9,4.6,8.5,8.5,13.6,11.7
						c10.3,6.3,22,10.1,34,11.8l4.5,0.6l4.5,0.4c0.8,0.1,1.5,0.1,2.3,0.2l2.3,0.1c1.5,0,3,0.1,4.5,0.1c3-0.1,6.1,0,9.1-0.3
						c1.5-0.1,3-0.2,4.5-0.3l4.5-0.5l2.3-0.3l2.2-0.4l4.5-0.7l9.1-1.5c3-0.5,6.1-0.8,9.1-1.2l2.3-0.3l2.3-0.2l4.6-0.4
						C378.5,441.8,403.2,442.9,427.1,447.8z"/>
				</g>
			</g>
		</g>
		<g>
			<g>
				<path class="st15" d="M847.1,292c0.5,2.7,0.8,5.5,0.8,8.3V371h-70.6c-2.8,0-5.6-0.3-8.3-0.8c3.9,21.3,22.5,37.4,44.9,37.4h70.6
					v-70.6C884.4,314.5,868.3,295.9,847.1,292z"/>
				<circle class="st15" cx="803.9" cy="328.2" r="26.7"/>
			</g>
			<g>
				<path class="st16" d="M941.8,292c-0.5,2.7-0.8,5.5-0.8,8.3V371h70.6c2.8,0,5.6-0.3,8.3-0.8c-3.9,21.3-22.5,37.4-44.9,37.4h-70.6
					v-70.6C904.4,314.5,920.5,295.9,941.8,292z"/>
				<circle class="st16" cx="984.9" cy="328.2" r="26.7"/>
			</g>
			<g>
				<path class="st17" d="M847.1,536.9c0.5-2.7,0.8-5.5,0.8-8.3v-70.6h-70.6c-2.8,0-5.6,0.3-8.3,0.8c3.9-21.3,22.5-37.4,44.9-37.4
					h70.6v70.6C884.4,514.3,868.3,532.9,847.1,536.9z"/>
				<circle class="st17" cx="803.9" cy="500.7" r="26.7"/>
			</g>
			<g>
				<path class="st18" d="M941.8,536.9c-0.5-2.7-0.8-5.5-0.8-8.3v-70.6h70.6c2.8,0,5.6,0.3,8.3,0.8c-3.9-21.3-22.5-37.4-44.9-37.4
					h-70.6v70.6C904.4,514.3,920.5,532.9,941.8,536.9z"/>
				<circle class="st18" cx="984.9" cy="500.7" r="26.7"/>
			</g>
		</g>
	</g>
</g>
<g id="Layer_1">
</g>
</svg>
