<?xml version="1.0" encoding="utf-8"?>
<!-- Generator: Adobe Illustrator 17.0.0, SVG Export Plug-In . SVG Version: 6.00 Build 0)  -->
<!DOCTYPE svg PUBLIC "-//W3C//DTD SVG 1.1//EN" "http://www.w3.org/Graphics/SVG/1.1/DTD/svg11.dtd">
<svg version="1.1" id="Layer_1" xmlns="http://www.w3.org/2000/svg" xmlns:xlink="http://www.w3.org/1999/xlink" x="0px" y="0px"
	 width="290px" height="80px" viewBox="0 0 290 80" enable-background="new 0 0 290 80" xml:space="preserve">
<g>
	<path fill="#FAA51A" d="M235.079,17.706c1.622-0.295,2.748-2.204,2.515-4.264c-0.233-2.06-1.736-3.49-3.357-3.194
		c-1.622,0.295-2.748,2.204-2.515,4.264C231.954,16.571,233.457,18.001,235.079,17.706z"/>
	<path fill="#FAA51A" d="M240.687,31.124c-1.47-4.634-0.722-9.927,1.924-13.622l0,0c0.462-0.645-0.094-1.635-0.724-1.29l-1.7,0.929
		c-3.582,1.957-7.652,1.87-11.181-0.238l0,0c-0.609-0.364-1.189,0.561-0.774,1.234l0.762,1.235c1.661,2.691,2.422,6.103,2.118,9.501
		l-0.626,7c-0.064,0.714,0.582,1.173,1.027,0.73c2.327-2.311,5.508-2.659,8.112-0.886l1.661,1.131
		c0.526,0.358,1.117-0.315,0.894-1.017L240.687,31.124z"/>
</g>
<g>
	<path fill="#FFC80C" d="M261.238,21.784c1.877-0.342,3.181-2.552,2.912-4.936s-2.009-4.04-3.887-3.698
		c-1.877,0.342-3.181,2.552-2.912,4.936C257.62,20.47,259.36,22.126,261.238,21.784z"/>
	<path fill="#FFC80C" d="M269.364,17.814l-0.573,0.57c-4.206,4.18-9.577,5.989-14.862,5.006c-0.501-0.039-0.646,0.854-0.174,1.07v0
		c3.947,1.808,6.377,6.852,5.847,12.138l-0.439,4.38c-0.057,0.57,0.525,0.858,0.786,0.388l0.395-0.71
		c2.205-3.964,6.472-5.03,9.694-2.423c0.376,0.304,0.826-0.222,0.618-0.722l-2.196-5.302c-1.518-3.664-1.348-8.087,0.443-11.546
		L270,18.548C270.272,18.021,269.75,17.419,269.364,17.814z"/>
</g>
<g>
	<path fill="#EE2924" d="M207.618,24.917c1.556-0.283,2.637-2.116,2.414-4.092c-0.223-1.977-1.666-3.349-3.222-3.066
		c-1.556,0.283-2.637,2.116-2.414,4.092C204.619,23.828,206.062,25.2,207.618,24.917z"/>
	<path fill="#EE2924" d="M214.299,22.948l-1.737,1.116c-3.231,2.076-6.947,2.588-10.453,1.44c-0.757-0.248-1.249,0.986-0.644,1.615
		l0.846,0.879c2.01,2.089,3.196,5.193,3.246,8.491l0.073,4.833c0.012,0.791,0.748,1.2,1.214,0.675
		c1.555-1.753,3.768-2.208,5.679-1.168l2.835,1.542c0.625,0.34,1.244-0.495,0.94-1.267l-1.947-4.938
		c-1.51-3.83-1.176-8.417,0.86-11.831v0C215.677,23.552,214.989,22.505,214.299,22.948z"/>
</g>
<polygon points="31.924,14.431 29.069,14.431 29.069,7.788 27.801,7.788 27.801,3.055 29.069,3.055 29.069,1.247 19.749,1.247 
	19.749,14.431 17.656,14.431 17.656,17.154 31.924,17.154 "/>
<path fill="#EE2924" d="M21.69,50.826c-0.288-0.381-0.587-0.707-0.894-1.003c-0.405-3.602-0.459-7.253,0.031-10.913
	c0.615-4.571,1.759-8.994,2.897-13.405c-0.507-0.032-1.014-0.03-1.519,0.032c-1.167,4.482-2.329,8.993-2.844,13.65
	c-0.354,3.206-0.354,6.373-0.09,9.509c-4.998-2.732-11.284,2.13-11.284,2.13c0,8.827,4.221,16.401,10.243,19.646h13.119
	c6.021-3.245,10.242-10.819,10.242-19.646C41.59,50.826,26.766,57.499,21.69,50.826z"/>
<path d="M24.786,17.955c-13.458,0-24.412,13.911-24.412,31.013c0,12.468,5.838,23.678,14.878,28.548l0.447,0.243h18.177l0.448-0.243
	c9.036-4.875,14.878-16.08,14.878-28.548C49.202,31.866,38.249,17.955,24.786,17.955z M32.896,71.717H16.68
	C9.647,67.671,5.127,58.808,5.127,48.968c0-12.815,7.64-23.396,17.434-24.804c-0.043,0.006,1.544-0.144,1.544-0.144
	c0.225-0.009,0.455-0.019,0.68-0.019c10.841,0,19.664,11.198,19.664,24.967C44.449,58.808,39.93,67.671,32.896,71.717z"/>
<g>
	<path fill="#F26B62" d="M31.27,6.83c0,0,0.218-0.231,0.712-0.566c0.499-0.311,1.257-0.805,2.349-1.11
		c1.077-0.312,2.463-0.605,4.053-0.503c0.805-0.026,1.627,0.166,2.522,0.261c0.432,0.107,0.875,0.218,1.329,0.331
		c0.457,0.109,0.921,0.234,1.372,0.417c0.918,0.329,1.883,0.668,2.812,1.15c0.474,0.225,0.957,0.455,1.437,0.706
		c0.462,0.277,0.931,0.559,1.407,0.844c0.47,0.293,0.973,0.56,1.435,0.888c0.463,0.328,0.931,0.66,1.405,0.996
		c0.469,0.341,0.966,0.664,1.419,1.042c0.452,0.38,0.908,0.763,1.368,1.15c0.9,0.758,1.816,1.529,2.743,2.309
		c0.915,0.722,1.815,1.371,2.809,2.018c1.961,1.265,4.131,2.223,6.38,2.712c2.234,0.544,4.569,0.557,6.746,0.047
		c2.168-0.522,4.225-1.483,5.869-2.871c1.658-1.363,2.952-3.058,3.735-4.849c0.741-1.796,0.994-3.692,0.614-5.322
		c-0.109-0.454-0.202-0.921-0.319-1.336c-0.141-0.372-0.279-0.739-0.402-1.107c-0.183-0.341-0.361-0.673-0.535-0.996
		c-0.235-0.258-0.426-0.57-0.678-0.783c-0.987-0.9-2.289-1.076-3.323-0.924c-1.04,0.161-1.851,0.481-2.377,0.729
		c-0.53,0.249-0.797,0.42-0.797,0.42s0.231-0.215,0.715-0.561c0.487-0.335,1.225-0.838,2.331-1.171
		c0.556-0.14,1.201-0.281,1.932-0.211c0.183,0.02,0.37,0.041,0.56,0.063c0.186,0.045,0.37,0.118,0.562,0.18
		c0.401,0.1,0.735,0.355,1.111,0.577c0.36,0.24,0.646,0.578,0.986,0.889c0.263,0.356,0.534,0.729,0.799,1.123
		c0.215,0.42,0.423,0.862,0.636,1.317c0.168,0.438,0.297,0.867,0.453,1.316c0.685,1.995,0.593,4.364-0.177,6.596
		c-0.786,2.223-2.178,4.361-4.102,6.051c-0.946,0.861-2.017,1.618-3.183,2.239c-1.159,0.63-2.411,1.143-3.729,1.446
		c-2.619,0.654-5.444,0.673-8.089,0.062c-2.65-0.617-5.12-1.766-7.288-3.205c-0.532-0.379-1.08-0.712-1.589-1.126
		c-0.498-0.412-1.04-0.822-1.489-1.231c-0.892-0.817-1.773-1.625-2.64-2.419c-0.424-0.389-0.845-0.774-1.262-1.156
		c-0.422-0.375-0.867-0.708-1.288-1.065c-0.427-0.35-0.849-0.697-1.266-1.039c-0.417-0.343-0.867-0.62-1.291-0.928
		c-0.429-0.301-0.853-0.597-1.27-0.889c-0.435-0.258-0.864-0.512-1.286-0.761c-0.829-0.54-1.684-0.932-2.506-1.322
		c-0.812-0.423-1.653-0.626-2.423-0.945c-0.796-0.18-1.549-0.462-2.28-0.523c-1.455-0.263-2.756-0.197-3.814-0.056
		c-1.065,0.144-1.867,0.451-2.405,0.674C31.527,6.641,31.27,6.83,31.27,6.83z"/>
</g>
<g>
	<path fill="#191918" d="M65.039,45.183c1.81,0,3.317,0.555,4.524,1.664c1.622,1.48,2.434,3.791,2.434,6.934
		c0,2.272-0.499,4.214-1.498,5.825c-1.082,1.718-2.589,2.576-4.524,2.576c-1.019,0-1.945-0.31-2.777-0.931
		c-0.832-0.62-1.321-1.684-1.466-3.19l0.281-0.119c0.229,1.136,0.759,1.929,1.591,2.378c0.562,0.317,1.061,0.475,1.497,0.475
		c1.705,0,2.943-0.845,3.713-2.536c0.562-1.241,0.842-2.721,0.842-4.438c0-2.747-0.603-4.728-1.809-5.944
		c-0.916-0.951-2.08-1.427-3.494-1.427c-0.333,0-0.619,0.02-0.858,0.059c-0.239,0.04-1.285,0.258-3.136,0.654v23.497
		c0.021,0.713,0.229,1.308,0.624,1.783c0.395,0.475,0.853,0.713,1.373,0.713h0.406v0.396h-6.833v-0.396h0.405
		c0.52,0,0.978-0.238,1.373-0.713c0.395-0.476,0.603-1.07,0.624-1.783V49.225c0-0.687-0.156-1.222-0.468-1.605
		c-0.312-0.383-0.718-0.575-1.217-0.575c-0.104,0-0.208,0.014-0.312,0.04l-0.374,0.04l-0.062-0.396
		c1.081-0.132,2.532-0.389,4.352-0.773c1.82-0.383,2.948-0.607,3.385-0.674C64.071,45.216,64.539,45.183,65.039,45.183z"/>
	<path fill="#191918" d="M73.894,51.356c1.032-0.544,2.024-0.817,2.976-0.817c0.794,0,1.611,0.373,2.453,1.119
		c0.46,0.403,0.976,1.19,1.548,2.359c0.381,0.807,0.865,2.268,1.453,4.385l2.905,10.464c0.667,2.339,1.345,4.199,2.036,5.58
		c0.69,1.381,1.322,2.419,1.893,3.115c0.571,0.696,1.167,1.184,1.786,1.467c0.619,0.282,1.131,0.423,1.536,0.423
		s0.766-0.041,1.083-0.121l0.024,0.302c-0.762,0.322-1.508,0.484-2.239,0.484c-0.73,0-1.461-0.237-2.191-0.711
		c-0.731-0.474-1.413-1.134-2.048-1.981c-1.366-1.754-2.524-4.425-3.477-8.014l-0.929-3.448H76.18l-1.643,5.383
		c-0.08,0.242-0.119,0.484-0.119,0.726c0,0.242,0.083,0.499,0.25,0.771c0.167,0.272,0.424,0.408,0.774,0.408h0.19v0.302h-4.786
		v-0.302h0.214c0.381,0,0.754-0.146,1.119-0.438c0.365-0.292,0.667-0.731,0.905-1.316l5.906-17.964
		c-0.857-1.552-1.921-2.329-3.191-2.329c-0.571,0-1.183,0.151-1.834,0.454L73.894,51.356z M76.442,65.056h6.025l-1.881-7.047
		c-0.365-1.351-0.699-2.409-1-3.176L76.442,65.056z"/>
	<path fill="#191918" d="M108.327,78.695c-0.667,0.222-1.258,0.333-1.774,0.333c-0.516,0-0.973-0.041-1.369-0.121
		c-0.397-0.081-0.822-0.237-1.274-0.469c-0.452-0.232-0.877-0.499-1.274-0.801c-0.397-0.302-0.794-0.676-1.191-1.119
		c-0.73-0.746-1.393-1.553-1.988-2.42c-0.595-0.867-1.742-2.495-3.441-4.884c-1.699-2.389-2.826-3.977-3.381-4.763
		c-0.556-0.786-0.984-1.199-1.286-1.24v-0.302c0.92,0,1.536-0.025,1.845-0.076c0.31-0.05,0.639-0.141,0.988-0.272
		c0.349-0.131,0.643-0.307,0.881-0.529c0.937-0.766,1.405-2.036,1.405-3.811c0-1.472-0.258-2.651-0.774-3.538
		c-0.516-0.887-1.242-1.341-2.179-1.361h-2.953v18.025c0,0.504,0.147,0.948,0.441,1.331c0.294,0.383,0.655,0.575,1.083,0.575h0.286
		l0.024,0.302h-5.215v-0.302h0.31c0.396,0,0.746-0.181,1.048-0.544c0.301-0.363,0.46-0.806,0.476-1.331V54.592
		c-0.016-0.524-0.171-0.973-0.464-1.346c-0.294-0.373-0.647-0.559-1.06-0.559h-0.31v-0.302h6.429c1.397,0,2.52,0.499,3.369,1.497
		c0.849,0.998,1.274,2.319,1.274,3.962c0,1.644-0.389,3.055-1.167,4.234s-1.73,1.769-2.857,1.769h-0.024
		c0.54,0.726,1.151,1.573,1.834,2.54c2.746,3.851,4.508,6.271,5.287,7.258c0.778,0.988,1.464,1.799,2.06,2.435
		c0.595,0.635,1.123,1.104,1.583,1.406c0.937,0.645,1.865,0.968,2.786,0.968c0.191,0,0.381-0.02,0.572-0.06V78.695z"/>
	<path fill="#191918" d="M113.042,65.056c0-0.403-0.107-0.746-0.321-1.028c-0.214-0.282-0.48-0.433-0.798-0.454h-7.62v7.772
		c0,0.524,0.151,0.973,0.452,1.346c0.301,0.373,0.659,0.559,1.072,0.559h0.31v0.302h-5.215v-0.302h0.31
		c0.413,0,0.766-0.186,1.06-0.559c0.294-0.373,0.448-0.821,0.464-1.346V54.411c0-0.484-0.155-0.892-0.464-1.225
		c-0.31-0.333-0.663-0.499-1.06-0.499h-0.286l-0.024-0.302h6.977c0.682,0,1.286-0.07,1.81-0.212
		c0.524-0.141,0.865-0.252,1.024-0.333v3.417h-0.238v-0.454c0-0.403-0.111-0.751-0.333-1.043c-0.223-0.292-0.5-0.438-0.834-0.438
		h-5.024v9.345h7.596c0.317-0.02,0.587-0.171,0.809-0.454c0.222-0.282,0.333-0.635,0.333-1.058v-0.423h0.238v4.778h-0.238V65.056z"
		/>
	<path fill="#191918" d="M132.616,47.183c0.127,0,0.262,0,0.405,0v0.302c-1.746,0-3.128,0.731-4.143,2.193
		c-1.016,1.462-1.524,3.574-1.524,6.336v10.071c0,2.359-0.587,4.264-1.762,5.716c-1.175,1.452-2.739,2.178-4.691,2.178
		s-3.536-0.721-4.751-2.162c-1.214-1.441-1.822-3.342-1.822-5.701V54.169c0-0.584-0.207-1.018-0.619-1.3
		c-0.191-0.121-0.405-0.181-0.643-0.181h-0.381v-0.302h4.834v0.302h-0.381c-0.349,0-0.643,0.136-0.881,0.408
		c-0.238,0.272-0.365,0.62-0.381,1.043v11.553c0,2.198,0.464,3.967,1.393,5.308c0.929,1.341,2.147,2.011,3.655,2.011
		c1.603,0,2.889-0.635,3.858-1.905c0.968-1.27,1.452-2.943,1.452-5.02V56.044c0-2.964,0.591-5.181,1.774-6.653
		C129.19,47.919,130.726,47.183,132.616,47.183z"/>
	<path fill="#191918" d="M154.071,78.454c0.095,0,0.191,0,0.286,0v0.302c-0.445,0.08-0.941,0.121-1.488,0.121
		c-0.548,0-1.223-0.151-2.024-0.454c-0.802-0.302-1.528-0.867-2.179-1.693c-1.333-1.694-2.143-3.891-2.429-6.593l-1.453-13.458
		l-4.953,14.214c-0.445,1.23-0.714,2.258-0.809,3.085h-0.238l-6.168-17.027l-1.048,15.031c-0.032,0.343,0.051,0.646,0.25,0.907
		c0.198,0.262,0.417,0.393,0.655,0.393h0.381v0.272h-4.62v-0.302h0.381c0.429,0,0.806-0.166,1.131-0.499
		c0.325-0.333,0.528-0.771,0.607-1.315l1.5-16.513c-1.397-3.488-3.072-5.232-5.024-5.232c-0.175,0-0.357,0.01-0.548,0.03v-0.302
		c0.429-0.141,0.778-0.212,1.048-0.212c0.27,0,0.563,0.015,0.881,0.045c0.317,0.03,0.69,0.126,1.119,0.287
		c0.429,0.162,0.833,0.398,1.214,0.711c0.381,0.313,0.714,0.635,1,0.968c0.286,0.333,0.556,0.701,0.81,1.104
		c0.429,0.726,0.77,1.421,1.024,2.087l5.739,15.787l6.406-18.236h0.214l2.215,17.904c0.333,2.823,1.051,4.96,2.155,6.411
		C151.209,77.728,152.531,78.454,154.071,78.454z"/>
	<path fill="#191918" d="M162.048,63.877v-3.811c0-0.544-0.357-0.937-0.738-0.937h-1.429c-0.214,0-0.381,0.091-0.524,0.272
		c-0.143,0.151-0.214,0.393-0.214,0.665v1.573h-1.476v-1.603c0-1.573,1.024-2.813,2.238-2.813h1.429
		c1.238,0,2.214,1.331,2.214,2.813v13.518h-1.238l-0.238-0.726l-1.691,0.695c-0.262,0.091-0.595,0.181-0.857,0.181
		c-1.262,0-2.095-1.058-2.095-2.54v-4.476c0-1.573,1.048-2.813,2.214-2.813H162.048z M162.048,65.752h-2.405
		c-0.381,0-0.738,0.484-0.738,0.937v4.234c0,0.544,0.357,0.907,0.738,0.907c0.072,0,0.167,0,0.262-0.03l2.143-0.937V65.752z"/>
	<path fill="#191918" d="M169.335,61.639v-1.573c0-0.514-0.333-0.937-0.738-0.937h-1.167c-0.405,0-0.738,0.423-0.738,0.937v10.676
		c0,0.514,0.333,0.937,0.738,0.937h1.167c0.405,0,0.738-0.423,0.738-0.937v-2.571h1.476v2.571c0,1.542-0.976,2.813-2.215,2.813
		h-1.167c-1.214,0-2.214-1.27-2.214-2.813V60.066c0-1.572,1-2.843,2.214-2.843h1.167c1.238,0,2.215,1.27,2.215,2.843v1.573H169.335z
		"/>
	<path fill="#191918" d="M173.954,52.385v5.534l1.381-0.696c0.238-0.091,0.524-0.151,0.762-0.151c1.191,0,2.191,1.27,2.191,2.813
		v13.669h-1.476v-13.79c0-0.514-0.333-0.816-0.714-0.816c-0.095,0-0.191,0.03-0.286,0.06l-1.857,0.938v13.609h-1.476V52.385H173.954
		z"/>
	<path fill="#191918" d="M184.575,63.877v-3.811c0-0.544-0.357-0.937-0.738-0.937h-1.429c-0.214,0-0.381,0.091-0.524,0.272
		c-0.143,0.151-0.214,0.393-0.214,0.665v1.573h-1.476v-1.603c0-1.573,1.024-2.813,2.238-2.813h1.429
		c1.238,0,2.214,1.331,2.214,2.813v13.518h-1.238l-0.238-0.726l-1.691,0.695c-0.262,0.091-0.595,0.181-0.857,0.181
		c-1.262,0-2.095-1.058-2.095-2.54v-4.476c0-1.573,1.048-2.813,2.214-2.813H184.575z M184.575,65.752h-2.405
		c-0.381,0-0.738,0.484-0.738,0.937v4.234c0,0.544,0.357,0.907,0.738,0.907c0.072,0,0.167,0,0.262-0.03l2.143-0.937V65.752z"/>
	<path fill="#191918" d="M190.075,70.742c0,0.544,0.357,0.937,0.738,0.937h0.81v1.875h-0.833c-1.238,0-2.191-1.361-2.191-2.843
		V59.129h-1.333v-1.905h1.31v-2.51h1.5v2.51h1.548v1.905h-1.548V70.742z"/>
	<path fill="#191918" d="M219.341,78.816c-2.016,0-3.667-0.816-4.953-2.45c-0.952-1.21-1.58-2.732-1.881-4.567
		c-1.508,1.452-3.358,2.178-5.548,2.178c-1.731,0-3.306-0.479-4.727-1.437c-1.421-0.957-2.532-2.273-3.334-3.947
		c-0.802-1.673-1.202-3.558-1.202-5.655c0-2.097,0.401-3.987,1.202-5.67c0.801-1.683,1.909-2.989,3.322-3.916
		c1.413-0.927,2.992-1.391,4.739-1.391c2.191,0,4.12,0.686,5.786,2.057l0.476,4.264h-0.214c-0.476-2.339-1.556-3.932-3.239-4.778
		c-0.826-0.423-1.762-0.635-2.81-0.635c-2.143,0-3.926,0.948-5.346,2.843c-1.421,1.895-2.131,4.3-2.131,7.213
		c0,2.914,0.715,5.328,2.143,7.243c1.429,1.916,3.207,2.883,5.334,2.903c1.032,0,2.016-0.232,2.953-0.696
		c0.937-0.463,1.738-1.109,2.405-1.935v-5.353c0-0.443-0.103-0.781-0.31-1.013c-0.207-0.232-0.5-0.348-0.881-0.348h-0.381v-0.302
		h4.667v0.302h-0.357c-0.397,0-0.699,0.116-0.905,0.348c-0.207,0.232-0.302,0.57-0.286,1.013v4.657
		c0.095,3.186,0.913,5.464,2.453,6.835c1.079,0.968,2.477,1.452,4.191,1.452c0.714,0,1.492-0.091,2.334-0.272l0.024,0.302
		C221.595,78.564,220.421,78.816,219.341,78.816z"/>
	<path fill="#191918" d="M236.606,78.695c-0.667,0.222-1.258,0.333-1.774,0.333c-0.516,0-0.972-0.041-1.369-0.121
		c-0.397-0.081-0.822-0.237-1.274-0.469c-0.452-0.232-0.877-0.499-1.274-0.801c-0.397-0.302-0.794-0.676-1.191-1.119
		c-0.73-0.746-1.393-1.553-1.988-2.42c-0.595-0.867-1.742-2.495-3.441-4.884c-1.699-2.389-2.826-3.977-3.381-4.763
		c-0.556-0.786-0.984-1.199-1.286-1.24v-0.302c0.92,0,1.536-0.025,1.845-0.076c0.31-0.05,0.639-0.141,0.988-0.272
		c0.349-0.131,0.643-0.307,0.881-0.529c0.937-0.766,1.405-2.036,1.405-3.811c0-1.472-0.258-2.651-0.774-3.538
		c-0.516-0.887-1.242-1.341-2.179-1.361h-2.953v18.025c0,0.504,0.147,0.948,0.441,1.331c0.294,0.383,0.655,0.575,1.083,0.575h0.286
		l0.024,0.302h-5.215v-0.302h0.31c0.396,0,0.746-0.181,1.048-0.544c0.301-0.363,0.46-0.806,0.476-1.331V54.592
		c-0.016-0.524-0.171-0.973-0.464-1.346c-0.294-0.373-0.647-0.559-1.06-0.559h-0.31v-0.302h6.429c1.397,0,2.52,0.499,3.369,1.497
		c0.849,0.998,1.274,2.319,1.274,3.962c0,1.644-0.389,3.055-1.167,4.234s-1.73,1.769-2.857,1.769h-0.024
		c0.54,0.726,1.151,1.573,1.834,2.54c2.746,3.851,4.508,6.271,5.286,7.258c0.778,0.988,1.464,1.799,2.06,2.435
		c0.595,0.635,1.123,1.104,1.583,1.406c0.936,0.645,1.865,0.968,2.786,0.968c0.191,0,0.381-0.02,0.572-0.06V78.695z"/>
	<path fill="#191918" d="M233.296,59.431c-0.064-0.262-0.095-0.489-0.095-0.68c0-0.191,0.008-0.408,0.024-0.65
		c0.016-0.242,0.051-0.575,0.107-0.998c0.055-0.423,0.163-0.842,0.321-1.255c0.158-0.413,0.341-0.811,0.548-1.195
		c0.206-0.383,0.472-0.736,0.798-1.058c0.325-0.322,0.687-0.605,1.083-0.847c0.841-0.524,1.865-0.786,3.072-0.786
		c2.429,0,4.409,1.024,5.941,3.07c1.532,2.047,2.298,4.663,2.298,7.848c0,3.186-0.905,5.832-2.715,7.939
		c-1.81,2.107-4.104,3.16-6.882,3.16c-2.778,0-5.084-1.048-6.918-3.145c-1.834-2.097-2.75-4.819-2.75-8.166
		c0-2.157,0.396-4.072,1.191-5.746c0.794-1.673,1.929-2.984,3.405-3.932l0.143,0.272c-1.032,0.867-1.774,2.117-2.227,3.75
		c-0.452,1.633-0.679,3.367-0.679,5.202c0,3.408,0.73,6.069,2.191,7.984c1.46,1.916,3.334,2.873,5.62,2.873
		c2.286,0,4.155-0.963,5.608-2.888c1.452-1.925,2.179-4.461,2.179-7.606c0-2.722-0.576-5.02-1.726-6.895
		c-1.151-1.875-2.774-2.813-4.87-2.813c-0.937,0-1.786,0.212-2.548,0.635c-1.381,0.746-2.294,1.976-2.738,3.69
		c-0.127,0.504-0.191,0.938-0.191,1.3s0.016,0.655,0.048,0.877L233.296,59.431z"/>
	<path fill="#191918" d="M268.157,47.183c0.127,0,0.262,0,0.405,0v0.302c-1.746,0-3.128,0.731-4.143,2.193
		c-1.016,1.462-1.524,3.574-1.524,6.336v10.071c0,2.359-0.587,4.264-1.762,5.716c-1.175,1.452-2.739,2.178-4.691,2.178
		c-1.953,0-3.536-0.721-4.751-2.162c-1.214-1.441-1.822-3.342-1.822-5.701V54.169c0-0.584-0.207-1.018-0.619-1.3
		c-0.191-0.121-0.405-0.181-0.643-0.181h-0.381v-0.302h4.834v0.302h-0.381c-0.349,0-0.643,0.136-0.881,0.408
		c-0.238,0.272-0.365,0.62-0.381,1.043v11.553c0,2.198,0.464,3.967,1.393,5.308c0.929,1.341,2.147,2.011,3.655,2.011
		c1.603,0,2.889-0.635,3.858-1.905c0.968-1.27,1.452-2.943,1.452-5.02V56.044c0-2.964,0.591-5.181,1.774-6.653
		C264.732,47.919,266.268,47.183,268.157,47.183z"/>
	<path fill="#191918" d="M271.967,51.9c1.381,0,2.532,0.423,3.453,1.27c1.238,1.129,1.857,2.893,1.857,5.292
		c0,1.734-0.381,3.216-1.143,4.446c-0.826,1.311-1.977,1.966-3.453,1.966c-0.778,0-1.485-0.237-2.119-0.711
		c-0.635-0.474-1.008-1.285-1.119-2.435l0.214-0.091c0.174,0.867,0.579,1.472,1.214,1.814c0.429,0.242,0.809,0.363,1.143,0.363
		c1.302,0,2.246-0.645,2.834-1.935c0.429-0.947,0.643-2.076,0.643-3.387c0-2.097-0.461-3.609-1.381-4.536
		c-0.699-0.726-1.588-1.089-2.667-1.089c-0.254,0-0.473,0.015-0.655,0.045c-0.183,0.03-0.98,0.197-2.393,0.499v17.934
		c0.016,0.544,0.175,0.998,0.476,1.361c0.301,0.363,0.651,0.544,1.048,0.544h0.31v0.302h-5.215v-0.302h0.31
		c0.396,0,0.746-0.181,1.048-0.544c0.301-0.363,0.46-0.817,0.476-1.361V54.985c0-0.524-0.119-0.932-0.357-1.225
		c-0.238-0.292-0.548-0.438-0.929-0.438c-0.08,0-0.159,0.01-0.238,0.03l-0.286,0.03l-0.048-0.302
		c0.825-0.101,1.933-0.297,3.322-0.59c1.389-0.292,2.25-0.463,2.584-0.514C271.229,51.926,271.586,51.9,271.967,51.9z"/>
	<path fill="#191918" d="M278.183,73.252c0.413,0,0.766-0.186,1.06-0.559c0.294-0.373,0.448-0.821,0.464-1.346V54.411
		c0-0.484-0.151-0.892-0.452-1.225c-0.302-0.333-0.659-0.499-1.072-0.499h-0.286l-0.024-0.302h4.834c0.682,0,1.29-0.07,1.822-0.212
		c0.532-0.141,0.869-0.252,1.012-0.333v3.811h-0.238v-0.544c0-0.484-0.131-0.897-0.393-1.24c-0.262-0.343-0.576-0.524-0.941-0.544
		h-2.715v9.345h4.524c0.318-0.02,0.587-0.171,0.81-0.454c0.222-0.282,0.333-0.635,0.333-1.058v-0.423h0.238v4.778h-0.238v-0.454
		c0-0.403-0.107-0.746-0.322-1.028c-0.214-0.282-0.48-0.433-0.798-0.454h-4.548v9.043h5.072c1.175,0,2.072-0.333,2.691-0.998
		c0.619-0.665,1.135-1.653,1.548-2.964h0.238l-1.381,4.899h-11.549v-0.302H278.183z M282.35,50.449l-0.167-0.212
		c1.206-1.653,2.214-2.974,3.024-3.962c0.429,0.544,0.754,1.079,0.976,1.603C285.168,48.624,283.89,49.481,282.35,50.449z"/>
</g>
</svg>
